<svg version="1.1" xmlns="http://www.w3.org/2000/svg" width="1080" height="251">

<path d="M0,0 L1,0 L1,17 L18,17 L18,0 L19,0 L19,17 L36,17 L36,0 L37,0 L37,17 L53,17 L53,0 L55,0 L55,17 L71,17 L71,0 L73,0 L73,17 L89,17 L89,0 L91,0 L91,17 L106,17 L106,0 L108,0 L108,17 L124,17 L124,0 L126,0 L126,17 L142,17 L142,0 L144,0 L144,17 L159,17 L159,0 L161,0 L161,17 L177,17 L177,0 L179,0 L179,17 L195,17 L195,0 L197,0 L197,17 L213,17 L213,0 L214,0 L214,35 L231,35 L231,37 L214,37 L214,50 L223,50 L223,51 L227,51 L227,52 L229,52 L229,53 L230,53 L230,54 L232,54 L232,56 L233,56 L233,57 L234,57 L234,62 L223,62 L223,60 L222,60 L222,59 L221,59 L221,58 L219,58 L219,57 L215,57 L215,58 L214,58 L214,59 L213,59 L213,62 L214,62 L214,63 L215,63 L215,64 L218,64 L218,65 L225,65 L225,66 L228,66 L228,67 L229,67 L229,68 L231,68 L231,69 L232,69 L232,70 L233,70 L233,71 L234,71 L234,73 L235,73 L235,75 L236,75 L236,81 L235,81 L235,83 L234,83 L234,85 L233,85 L233,86 L232,86 L232,89 L266,89 L266,87 L265,87 L265,86 L264,86 L264,84 L263,84 L263,83 L262,83 L262,80 L261,80 L261,51 L273,51 L273,78 L274,78 L274,80 L275,80 L275,81 L276,81 L276,82 L277,82 L277,83 L283,83 L283,82 L284,82 L284,81 L285,81 L285,80 L286,80 L286,79 L287,79 L287,51 L298,51 L298,82 L297,82 L297,84 L296,84 L296,85 L295,85 L295,87 L294,87 L294,88 L292,88 L292,89 L291,89 L291,90 L289,90 L289,91 L285,91 L285,107 L302,107 L302,90 L303,90 L303,107 L320,107 L320,90 L321,90 L321,107 L337,107 L337,91 L325,91 L325,51 L337,51 L337,81 L357,81 L357,89 L373,89 L373,72 L374,72 L374,89 L390,89 L390,60 L378,60 L378,51 L390,51 L390,37 L374,37 L374,35 L390,35 L390,18 L374,18 L374,17 L390,17 L390,0 L391,0 L391,17 L408,17 L408,0 L409,0 L409,17 L426,17 L426,0 L427,0 L427,17 L443,17 L443,0 L444,0 L444,17 L461,17 L461,0 L462,0 L462,17 L479,17 L479,0 L480,0 L480,17 L496,17 L496,0 L497,0 L497,17 L514,17 L514,0 L516,0 L516,17 L532,17 L532,0 L533,0 L533,17 L549,17 L549,0 L551,0 L551,17 L567,17 L567,0 L569,0 L569,17 L585,17 L585,0 L587,0 L587,17 L602,17 L602,0 L604,0 L604,17 L620,17 L620,0 L622,0 L622,17 L638,17 L638,0 L640,0 L640,17 L656,17 L656,0 L658,0 L658,17 L674,17 L674,18 L658,18 L658,35 L674,35 L674,37 L658,37 L658,53 L675,53 L675,55 L658,55 L658,71 L675,71 L675,72 L658,72 L658,89 L674,89 L674,90 L658,90 L658,107 L674,107 L674,108 L496,108 L496,107 L534,107 L534,91 L526,91 L526,90 L525,90 L525,88 L524,88 L524,87 L523,87 L523,85 L522,85 L522,84 L521,84 L521,83 L520,83 L520,81 L519,81 L519,80 L518,80 L518,78 L517,78 L517,77 L516,77 L516,75 L515,75 L515,73 L514,73 L514,72 L511,72 L511,91 L500,91 L500,51 L512,51 L512,52 L514,52 L514,18 L480,18 L480,53 L479,53 L479,37 L462,37 L462,51 L463,51 L463,54 L464,54 L464,57 L465,57 L465,60 L466,60 L466,62 L467,62 L467,65 L468,65 L468,70 L469,70 L469,71 L470,71 L470,74 L471,74 L471,76 L472,76 L472,78 L473,78 L473,81 L474,81 L474,83 L475,83 L475,86 L476,86 L476,89 L477,89 L477,91 L464,91 L464,87 L463,87 L463,84 L448,84 L448,88 L447,88 L447,91 L435,91 L435,87 L436,87 L436,84 L437,84 L437,81 L438,81 L438,80 L439,80 L439,77 L440,77 L440,72 L427,72 L427,89 L426,89 L426,72 L410,72 L410,71 L426,71 L426,55 L416,55 L416,60 L402,60 L402,89 L403,89 L403,91 L391,91 L391,107 L408,107 L408,90 L409,90 L409,107 L426,107 L426,108 L443,108 L443,125 L427,125 L427,143 L426,143 L426,126 L409,126 L409,142 L408,142 L408,126 L391,126 L391,143 L390,143 L390,126 L374,126 L374,143 L373,143 L373,126 L356,126 L356,143 L355,143 L355,126 L338,126 L338,143 L337,143 L337,126 L321,126 L321,143 L320,143 L320,126 L303,126 L303,143 L302,143 L302,126 L285,126 L285,142 L284,142 L284,126 L267,126 L267,143 L266,143 L266,126 L250,126 L250,143 L249,143 L249,126 L232,126 L232,142 L231,142 L231,126 L214,126 L214,143 L213,143 L213,126 L198,126 L198,125 L213,125 L213,108 L54,108 L54,125 L57,125 L57,126 L54,126 L54,143 L53,143 L53,126 L37,126 L37,143 L36,143 L36,126 L19,126 L19,142 L18,142 L18,126 L1,126 L1,143 L0,143 L0,126 L-10,126 L-10,125 L0,125 L0,108 L-10,108 L-10,107 L0,107 L0,90 L-10,90 L-10,89 L0,89 L0,72 L-10,72 L-10,71 L0,71 L0,55 L-10,55 L-10,53 L0,53 L0,37 L-10,37 L-10,35 L0,35 L0,18 L-9,18 L-9,17 L0,17 Z " fill="#909090" transform="translate(385,19)" data-index="1"></path>
<path d="M0,0 L1,0 L1,17 L18,17 L18,0 L19,0 L19,17 L36,17 L36,0 L37,0 L37,17 L53,17 L53,0 L54,0 L54,17 L71,17 L71,0 L72,0 L72,17 L89,17 L89,0 L90,0 L90,17 L106,17 L106,0 L107,0 L107,17 L124,17 L124,0 L125,0 L125,17 L142,17 L142,0 L143,0 L143,17 L153,17 L153,18 L143,18 L143,35 L153,35 L153,37 L143,37 L143,53 L153,53 L153,55 L143,55 L143,71 L153,71 L153,72 L143,72 L143,89 L153,89 L153,90 L143,90 L143,107 L153,107 L153,108 L143,108 L143,125 L153,125 L153,126 L143,126 L143,143 L142,143 L142,126 L125,126 L125,142 L124,142 L124,126 L107,126 L107,143 L106,143 L106,126 L90,126 L90,143 L89,143 L89,126 L72,126 L72,142 L71,142 L71,126 L54,126 L54,143 L53,143 L53,126 L37,126 L37,143 L36,143 L36,126 L19,126 L19,143 L18,143 L18,126 L1,126 L1,143 L0,143 L0,126 L-17,126 L-17,125 L0,125 L0,108 L-17,108 L-17,107 L0,107 L0,90 L-16,90 L-16,89 L0,89 L0,86 L-1,86 L-1,85 L-2,85 L-2,83 L-3,83 L-3,78 L8,78 L8,80 L9,80 L9,81 L10,81 L10,82 L11,82 L11,84 L18,84 L18,83 L20,83 L20,81 L21,81 L21,78 L20,78 L20,77 L18,77 L18,76 L17,76 L17,75 L11,75 L11,74 L8,74 L8,73 L6,73 L6,72 L4,72 L4,71 L3,71 L3,70 L2,70 L2,69 L0,69 L0,67 L-1,67 L-1,65 L-2,65 L-2,58 L-1,58 L-1,55 L-17,55 L-17,53 L0,53 L0,37 L-16,37 L-16,35 L0,35 L0,18 L-16,18 L-16,17 L0,17 Z " fill="#999999" transform="translate(37,19)" data-index="2" style="opacity: 1; visibility: visible;"></path>
<path d="M0,0 L2,0 L2,17 L18,17 L18,0 L20,0 L20,17 L36,17 L36,0 L38,0 L38,17 L53,17 L53,0 L55,0 L55,17 L71,17 L71,0 L73,0 L73,17 L89,17 L89,0 L91,0 L91,17 L107,17 L107,0 L109,0 L109,17 L125,17 L125,18 L109,18 L109,35 L125,35 L125,37 L109,37 L109,53 L126,53 L126,55 L109,55 L109,71 L126,71 L126,72 L109,72 L109,89 L125,89 L125,90 L109,90 L109,107 L125,107 L125,108 L-53,108 L-53,107 L-15,107 L-15,91 L-12,91 L-12,51 L-24,51 L-24,53 L-34,53 L-34,37 L-33,37 L-33,35 L-34,35 L-34,18 L-13,18 L-13,17 L0,17 Z " fill="#C6C6C6" transform="translate(934,19)" data-index="3"></path>
<path d="M0,0 L1,0 L1,17 L18,17 L18,0 L19,0 L19,17 L35,17 L35,0 L36,0 L36,17 L53,17 L53,0 L54,0 L54,17 L71,17 L71,0 L72,0 L72,17 L89,17 L89,0 L90,0 L90,17 L106,17 L106,0 L107,0 L107,17 L124,17 L124,0 L125,0 L125,17 L142,17 L142,0 L143,0 L143,18 L159,18 L159,35 L143,35 L143,37 L159,37 L159,51 L147,51 L147,60 L159,60 L159,89 L143,89 L143,72 L142,72 L142,89 L126,89 L126,81 L106,81 L106,51 L94,51 L94,91 L106,91 L106,107 L90,107 L90,90 L89,90 L89,107 L72,107 L72,90 L71,90 L71,107 L54,107 L54,91 L58,91 L58,90 L60,90 L60,89 L61,89 L61,88 L63,88 L63,87 L64,87 L64,85 L65,85 L65,84 L66,84 L66,82 L67,82 L67,51 L56,51 L56,79 L55,79 L55,80 L54,80 L54,81 L53,81 L53,82 L52,82 L52,83 L46,83 L46,82 L45,82 L45,81 L44,81 L44,80 L43,80 L43,78 L42,78 L42,51 L30,51 L30,80 L31,80 L31,83 L32,83 L32,84 L33,84 L33,86 L34,86 L34,87 L35,87 L35,89 L1,89 L1,86 L2,86 L2,85 L3,85 L3,83 L4,83 L4,81 L5,81 L5,75 L4,75 L4,73 L3,73 L3,71 L2,71 L2,70 L1,70 L1,69 L0,69 L0,68 L-2,68 L-2,67 L-3,67 L-3,66 L-6,66 L-6,65 L-13,65 L-13,64 L-16,64 L-16,63 L-17,63 L-17,62 L-18,62 L-18,59 L-17,59 L-17,58 L-16,58 L-16,57 L-12,57 L-12,58 L-10,58 L-10,59 L-9,59 L-9,60 L-8,60 L-8,62 L3,62 L3,57 L2,57 L2,56 L1,56 L1,54 L-1,54 L-1,53 L-2,53 L-2,52 L-4,52 L-4,51 L-8,51 L-8,50 L-17,50 L-17,37 L0,37 L0,35 L-17,35 L-17,17 L0,17 Z " fill="#B5B6B6" transform="translate(616,19)" data-index="4"></path>
<path d="M0,0 L34,0 L34,34 L32,34 L32,33 L20,33 L20,73 L31,73 L31,54 L34,54 L34,55 L35,55 L35,57 L36,57 L36,59 L37,59 L37,60 L38,60 L38,62 L39,62 L39,63 L40,63 L40,65 L41,65 L41,66 L42,66 L42,67 L43,67 L43,69 L44,69 L44,70 L45,70 L45,72 L46,72 L46,73 L54,73 L54,89 L16,89 L16,90 L178,90 L178,107 L195,107 L195,108 L178,108 L178,125 L176,125 L176,108 L160,108 L160,125 L158,125 L158,108 L142,108 L142,125 L140,125 L140,108 L124,108 L124,125 L122,125 L122,108 L107,108 L107,125 L105,125 L105,108 L89,108 L89,125 L87,125 L87,108 L71,108 L71,125 L69,125 L69,108 L53,108 L53,125 L52,125 L52,108 L35,108 L35,124 L34,124 L34,108 L17,108 L17,125 L16,125 L16,108 L0,108 L0,125 L-1,125 L-1,108 L-18,108 L-18,124 L-19,124 L-19,108 L-36,108 L-36,125 L-37,125 L-37,108 L-53,108 L-53,107 L-37,107 L-37,90 L-54,90 L-54,89 L-71,89 L-71,72 L-72,72 L-72,89 L-89,89 L-89,73 L-77,73 L-77,71 L-78,71 L-78,42 L-64,42 L-64,37 L-54,37 L-54,53 L-70,53 L-70,54 L-54,54 L-54,71 L-53,71 L-53,54 L-40,54 L-40,59 L-41,59 L-41,62 L-42,62 L-42,63 L-43,63 L-43,66 L-44,66 L-44,69 L-45,69 L-45,73 L-33,73 L-33,70 L-32,70 L-32,66 L-17,66 L-17,69 L-16,69 L-16,73 L-3,73 L-3,71 L-4,71 L-4,68 L-5,68 L-5,65 L-6,65 L-6,63 L-7,63 L-7,60 L-8,60 L-8,58 L-9,58 L-9,56 L-10,56 L-10,53 L-11,53 L-11,52 L-12,52 L-12,47 L-13,47 L-13,44 L-14,44 L-14,42 L-15,42 L-15,39 L-16,39 L-16,36 L-17,36 L-17,33 L-18,33 L-18,19 L-1,19 L-1,35 L0,35 Z " fill="#BABABA" transform="translate(865,37)" data-index="5"></path>
<path d="M0,0 L122,0 L122,32 L121,32 L121,33 L118,33 L118,34 L116,34 L116,35 L115,35 L115,36 L113,36 L113,38 L112,38 L112,40 L111,40 L111,48 L112,48 L112,49 L113,49 L113,51 L114,51 L114,52 L115,52 L115,53 L105,53 L105,19 L104,19 L104,35 L88,35 L88,19 L87,19 L87,35 L85,35 L85,33 L73,33 L73,53 L71,53 L71,51 L70,51 L70,50 L69,50 L69,48 L68,48 L68,47 L67,47 L67,45 L66,45 L66,44 L65,44 L65,43 L64,43 L64,41 L63,41 L63,39 L62,39 L62,38 L61,38 L61,36 L60,36 L60,35 L59,35 L59,33 L47,33 L47,73 L58,73 L58,72 L68,72 L68,89 L-54,89 L-54,73 L-53,73 L-53,72 L-7,72 L-7,73 L-4,73 L-4,74 L7,74 L7,73 L10,73 L10,72 L12,72 L12,71 L14,71 L14,70 L15,70 L15,69 L16,69 L16,68 L17,68 L17,67 L18,67 L18,66 L19,66 L19,64 L20,64 L20,62 L21,62 L21,59 L22,59 L22,45 L21,45 L21,43 L20,43 L20,42 L19,42 L19,40 L18,40 L18,39 L17,39 L17,37 L16,37 L16,36 L14,36 L14,35 L12,35 L12,34 L10,34 L10,33 L6,33 L6,32 L0,32 L0,19 L15,19 L15,18 L0,18 Z " fill="#D4D4D4" transform="translate(476,37)" data-index="6"></path>
<path d="M0,0 L1,0 L1,17 L18,17 L18,0 L19,0 L19,17 L36,17 L36,0 L37,0 L37,17 L53,17 L53,0 L54,0 L54,17 L71,17 L71,0 L72,0 L72,17 L89,17 L89,0 L90,0 L90,17 L106,17 L106,0 L107,0 L107,17 L124,17 L124,0 L125,0 L125,17 L142,17 L142,0 L143,0 L143,17 L153,17 L153,18 L143,18 L143,19 L142,19 L142,18 L125,18 L125,51 L131,51 L131,91 L119,91 L119,51 L124,51 L124,18 L107,18 L107,19 L106,19 L106,18 L90,18 L90,76 L91,76 L91,79 L92,79 L92,82 L93,82 L93,85 L94,85 L94,88 L95,88 L95,91 L83,91 L83,90 L82,90 L82,85 L81,85 L81,84 L67,84 L67,87 L66,87 L66,91 L53,91 L53,89 L27,89 L27,88 L26,88 L26,89 L25,89 L25,90 L23,90 L23,91 L5,91 L5,90 L3,90 L3,89 L2,89 L2,88 L1,88 L1,87 L0,87 L0,86 L-1,86 L-1,85 L-2,85 L-2,83 L-3,83 L-3,78 L8,78 L8,80 L9,80 L9,81 L10,81 L10,82 L11,82 L11,84 L18,84 L18,83 L20,83 L20,81 L21,81 L21,78 L20,78 L20,77 L18,77 L18,76 L17,76 L17,75 L11,75 L11,74 L8,74 L8,73 L6,73 L6,72 L4,72 L4,71 L3,71 L3,70 L2,70 L2,69 L0,69 L0,67 L-1,67 L-1,65 L-2,65 L-2,58 L-1,58 L-1,55 L-17,55 L-17,53 L0,53 L0,37 L-16,37 L-16,35 L0,35 L0,18 L-16,18 L-16,17 L0,17 Z " fill="#A0A09F" transform="translate(37,19)" data-index="7" style="visibility: visible; opacity: 1;"></path>
<path d="M0,0 L1,0 L1,16 L17,16 L17,0 L18,0 L18,34 L30,34 L30,35 L35,35 L35,36 L37,36 L37,37 L40,37 L40,38 L43,38 L43,39 L44,39 L44,40 L45,40 L45,41 L46,41 L46,45 L45,45 L45,46 L44,46 L44,47 L37,47 L37,46 L36,46 L36,45 L35,45 L35,43 L34,43 L34,40 L27,40 L27,41 L23,41 L23,46 L24,46 L24,48 L25,48 L25,49 L26,49 L26,50 L27,50 L27,51 L28,51 L28,52 L29,52 L29,53 L31,53 L31,54 L49,54 L49,53 L53,53 L53,70 L37,70 L37,71 L88,71 L88,88 L76,88 L76,89 L72,89 L72,106 L71,106 L71,89 L54,89 L54,105 L53,105 L53,89 L36,89 L36,106 L35,106 L35,89 L20,89 L20,88 L35,88 L35,71 L-124,71 L-124,88 L-121,88 L-121,89 L-124,89 L-124,106 L-125,106 L-125,89 L-141,89 L-141,106 L-142,106 L-142,89 L-159,89 L-159,105 L-160,105 L-160,89 L-177,89 L-177,106 L-178,106 L-178,89 L-188,89 L-188,88 L-178,88 L-178,71 L-188,71 L-188,70 L-178,70 L-178,53 L-188,53 L-188,52 L-178,52 L-178,35 L-188,35 L-188,34 L-168,34 L-168,26 L-167,26 L-167,43 L-166,43 L-166,45 L-165,45 L-165,47 L-164,47 L-164,48 L-163,48 L-163,49 L-162,49 L-162,50 L-161,50 L-161,51 L-160,51 L-160,52 L-159,52 L-159,53 L-157,53 L-157,54 L-141,54 L-141,70 L-19,70 L-19,53 L-29,53 L-29,54 L-40,54 L-40,14 L-28,14 L-28,16 L-27,16 L-27,17 L-26,17 L-26,19 L-25,19 L-25,20 L-24,20 L-24,22 L-23,22 L-23,24 L-22,24 L-22,25 L-21,25 L-21,26 L-20,26 L-20,28 L-19,28 L-19,29 L-18,29 L-18,31 L-17,31 L-17,32 L-16,32 L-16,34 L-14,34 L-14,14 L-2,14 L-2,16 L0,16 Z " fill="#989898" transform="translate(563,56)" data-index="8"></path>
<path d="M0,0 L1,0 L1,17 L18,17 L18,0 L19,0 L19,17 L36,17 L36,0 L37,0 L37,17 L53,17 L53,0 L54,0 L54,17 L71,17 L71,0 L72,0 L72,17 L89,17 L89,0 L90,0 L90,17 L106,17 L106,0 L107,0 L107,17 L124,17 L124,0 L126,0 L126,17 L142,17 L142,0 L143,0 L143,17 L146,17 L146,18 L125,18 L125,35 L126,35 L126,37 L125,37 L125,53 L135,53 L135,51 L147,51 L147,91 L136,91 L136,90 L135,90 L135,88 L134,88 L134,87 L133,87 L133,85 L132,85 L132,84 L131,84 L131,83 L130,83 L130,81 L129,81 L129,80 L128,80 L128,78 L127,78 L127,77 L126,77 L126,75 L125,75 L125,73 L124,73 L124,72 L121,72 L121,91 L110,91 L110,51 L122,51 L122,52 L124,52 L124,18 L90,18 L90,53 L89,53 L89,37 L72,37 L72,51 L73,51 L73,54 L74,54 L74,57 L75,57 L75,60 L76,60 L76,62 L77,62 L77,65 L78,65 L78,70 L79,70 L79,71 L80,71 L80,74 L81,74 L81,76 L82,76 L82,78 L83,78 L83,81 L84,81 L84,83 L85,83 L85,86 L86,86 L86,89 L87,89 L87,91 L74,91 L74,87 L73,87 L73,84 L58,84 L58,88 L57,88 L57,91 L45,91 L45,87 L46,87 L46,84 L47,84 L47,81 L48,81 L48,80 L49,80 L49,77 L50,77 L50,72 L37,72 L37,89 L36,89 L36,72 L20,72 L20,71 L36,71 L36,55 L26,55 L26,60 L25,60 L25,51 L0,51 L0,37 L-16,37 L-16,35 L0,35 L0,18 L-16,18 L-16,17 L0,17 Z " fill="#AFAFAF" transform="translate(775,19)" data-index="9"></path>
<path d="M0,0 L54,0 L54,18 L69,18 L69,19 L54,19 L54,32 L60,32 L60,33 L64,33 L64,34 L66,34 L66,35 L68,35 L68,36 L70,36 L70,37 L71,37 L71,39 L72,39 L72,40 L73,40 L73,42 L74,42 L74,43 L75,43 L75,45 L76,45 L76,59 L75,59 L75,62 L74,62 L74,64 L73,64 L73,66 L72,66 L72,67 L71,67 L71,68 L70,68 L70,69 L69,69 L69,70 L68,70 L68,71 L66,71 L66,72 L64,72 L64,73 L61,73 L61,74 L50,74 L50,73 L47,73 L47,72 L3,72 L3,71 L4,71 L4,70 L6,70 L6,69 L7,69 L7,67 L8,67 L8,66 L9,66 L9,64 L10,64 L10,62 L11,62 L11,60 L10,60 L10,59 L7,59 L7,58 L4,58 L4,57 L0,57 L0,61 L-2,61 L-2,63 L-3,63 L-3,64 L-5,64 L-5,65 L-10,65 L-10,64 L-12,64 L-12,63 L-13,63 L-13,60 L-14,60 L-14,58 L-15,58 L-15,47 L-14,47 L-14,45 L-13,45 L-13,44 L-12,44 L-12,43 L-11,43 L-11,42 L-10,42 L-10,41 L-4,41 L-4,42 L-3,42 L-3,43 L-2,43 L-2,44 L0,44 L0,46 L5,46 L5,45 L9,45 L9,44 L10,44 L10,41 L9,41 L9,39 L8,39 L8,38 L7,38 L7,36 L5,36 L5,35 L3,35 L3,34 L1,34 L1,33 L0,33 Z " fill="#C9C9C9" transform="translate(422,37)" data-index="10"></path>
<path d="M0,0 L1,0 L1,17 L18,17 L18,0 L19,0 L19,17 L36,17 L36,0 L37,0 L37,17 L53,17 L53,0 L55,0 L55,17 L71,17 L71,0 L73,0 L73,17 L89,17 L89,0 L91,0 L91,17 L106,17 L106,0 L108,0 L108,17 L124,17 L124,0 L126,0 L126,17 L142,17 L142,0 L144,0 L144,17 L159,17 L159,0 L161,0 L161,17 L177,17 L177,0 L179,0 L179,17 L195,17 L195,0 L197,0 L197,17 L213,17 L213,0 L214,0 L214,35 L231,35 L231,37 L214,37 L214,50 L223,50 L223,51 L227,51 L227,52 L229,52 L229,53 L230,53 L230,54 L232,54 L232,56 L233,56 L233,57 L234,57 L234,62 L223,62 L223,60 L222,60 L222,59 L221,59 L221,58 L219,58 L219,57 L215,57 L215,58 L214,58 L214,59 L213,59 L213,62 L214,62 L214,63 L215,63 L215,64 L218,64 L218,65 L225,65 L225,66 L228,66 L228,67 L229,67 L229,68 L231,68 L231,69 L232,69 L232,70 L233,70 L233,71 L234,71 L234,73 L235,73 L235,75 L236,75 L236,81 L235,81 L235,83 L234,83 L234,85 L233,85 L233,86 L232,86 L232,88 L230,88 L230,89 L229,89 L229,90 L227,90 L227,91 L209,91 L209,90 L207,90 L207,89 L206,89 L206,88 L205,88 L205,87 L204,87 L204,86 L203,86 L203,85 L202,85 L202,83 L201,83 L201,78 L205,78 L205,77 L212,77 L212,80 L213,80 L213,82 L214,82 L214,83 L215,83 L215,84 L222,84 L222,83 L223,83 L223,82 L224,82 L224,78 L223,78 L223,77 L222,77 L222,76 L221,76 L221,75 L218,75 L218,74 L215,74 L215,73 L213,73 L213,72 L208,72 L208,71 L206,71 L206,70 L205,70 L205,69 L204,69 L204,67 L203,67 L203,66 L202,66 L202,58 L203,58 L203,56 L204,56 L204,54 L206,54 L206,53 L207,53 L207,52 L209,52 L209,51 L212,51 L212,50 L213,50 L213,18 L37,18 L37,51 L38,51 L38,52 L40,52 L40,53 L42,53 L42,54 L44,54 L44,56 L45,56 L45,57 L46,57 L46,59 L47,59 L47,62 L46,62 L46,63 L42,63 L42,64 L37,64 L37,62 L35,62 L35,61 L34,61 L34,60 L33,60 L33,59 L27,59 L27,60 L26,60 L26,61 L25,61 L25,62 L24,62 L24,63 L23,63 L23,65 L22,65 L22,76 L23,76 L23,78 L24,78 L24,81 L25,81 L25,82 L27,82 L27,83 L32,83 L32,82 L34,82 L34,81 L35,81 L35,79 L37,79 L37,75 L41,75 L41,76 L44,76 L44,77 L47,77 L47,78 L48,78 L48,80 L47,80 L47,82 L46,82 L46,84 L45,84 L45,85 L44,85 L44,87 L43,87 L43,88 L41,88 L41,89 L40,89 L40,90 L38,90 L38,91 L21,91 L21,90 L19,90 L19,89 L18,89 L18,88 L17,88 L17,87 L16,87 L16,86 L15,86 L15,85 L14,85 L14,84 L13,84 L13,82 L12,82 L12,80 L11,80 L11,63 L10,63 L10,71 L0,71 L0,55 L-10,55 L-10,53 L0,53 L0,37 L-10,37 L-10,35 L0,35 L0,18 L-9,18 L-9,17 L0,17 Z " fill="#BABABA" transform="translate(385,19)" data-index="11"></path>
<path d="M0,0 L88,0 L88,1 L87,1 L87,2 L86,2 L86,3 L85,3 L85,4 L84,4 L84,5 L83,5 L83,6 L82,6 L82,7 L81,7 L81,8 L80,8 L80,9 L79,9 L79,11 L78,11 L78,12 L77,12 L77,13 L76,13 L76,14 L75,14 L75,15 L74,15 L74,16 L73,16 L73,17 L72,17 L72,18 L71,18 L71,19 L-2,19 L-2,20 L-6,20 L-6,21 L-9,21 L-9,22 L-11,22 L-11,23 L-12,23 L-12,24 L-14,24 L-14,25 L-15,25 L-15,26 L-16,26 L-16,27 L-17,27 L-17,28 L-18,28 L-18,29 L-19,29 L-19,30 L-20,30 L-20,32 L-21,32 L-21,34 L-22,34 L-22,36 L-23,36 L-23,38 L-24,38 L-24,115 L-25,115 L-25,116 L-26,116 L-26,117 L-27,117 L-27,118 L-28,118 L-28,119 L-29,119 L-29,120 L-30,120 L-30,121 L-31,121 L-31,122 L-32,122 L-32,123 L-33,123 L-33,124 L-34,124 L-34,125 L-35,125 L-35,126 L-36,126 L-36,127 L-37,127 L-37,128 L-38,128 L-38,129 L-39,129 L-39,130 L-40,130 L-40,131 L-41,131 L-41,132 L-42,132 L-42,34 L-41,34 L-41,30 L-40,30 L-40,28 L-39,28 L-39,26 L-38,26 L-38,25 L-37,25 L-37,23 L-36,23 L-36,21 L-35,21 L-35,20 L-34,20 L-34,18 L-33,18 L-33,17 L-32,17 L-32,16 L-31,16 L-31,15 L-30,15 L-30,14 L-29,14 L-29,13 L-28,13 L-28,12 L-27,12 L-27,11 L-26,11 L-26,10 L-25,10 L-25,9 L-23,9 L-23,8 L-22,8 L-22,7 L-20,7 L-20,6 L-18,6 L-18,5 L-16,5 L-16,4 L-14,4 L-14,3 L-11,3 L-11,2 L-8,2 L-8,1 L0,1 Z " fill="#FEBE03" transform="translate(254,18)" data-index="12" style="visibility: visible; opacity: 1;"></path>
<path d="M0,0 L1,0 L1,86 L0,86 L0,90 L-1,90 L-1,92 L-2,92 L-2,95 L-3,95 L-3,97 L-4,97 L-4,99 L-5,99 L-5,101 L-6,101 L-6,103 L-7,103 L-7,105 L-8,105 L-8,106 L-9,106 L-9,107 L-10,107 L-10,108 L-11,108 L-11,109 L-12,109 L-12,110 L-13,110 L-13,111 L-14,111 L-14,112 L-15,112 L-15,113 L-16,113 L-16,114 L-18,114 L-18,115 L-19,115 L-19,116 L-21,116 L-21,117 L-23,117 L-23,118 L-24,118 L-24,119 L-26,119 L-26,120 L-28,120 L-28,121 L-32,121 L-32,122 L-120,122 L-120,121 L-119,121 L-119,120 L-118,120 L-118,119 L-117,119 L-117,118 L-116,118 L-116,117 L-115,117 L-115,116 L-114,116 L-114,115 L-113,115 L-113,114 L-112,114 L-112,113 L-111,113 L-111,112 L-110,112 L-110,111 L-109,111 L-109,110 L-108,110 L-108,109 L-107,109 L-107,108 L-106,108 L-106,107 L-105,107 L-105,106 L-104,106 L-104,104 L-42,104 L-42,103 L-36,103 L-36,102 L-33,102 L-33,101 L-30,101 L-30,100 L-28,100 L-28,99 L-27,99 L-27,98 L-26,98 L-26,97 L-25,97 L-25,96 L-24,96 L-24,95 L-23,95 L-23,94 L-22,94 L-22,92 L-21,92 L-21,90 L-20,90 L-20,88 L-19,88 L-19,85 L-18,85 L-18,80 L-17,80 L-17,17 L-16,17 L-16,16 L-15,16 L-15,15 L-14,15 L-14,14 L-13,14 L-13,13 L-12,13 L-12,12 L-11,12 L-11,11 L-10,11 L-10,10 L-9,10 L-9,9 L-8,9 L-8,8 L-7,8 L-7,7 L-6,7 L-6,6 L-5,6 L-5,5 L-4,5 L-4,4 L-3,4 L-3,3 L-2,3 L-2,2 L-1,2 L-1,1 L0,1 Z " fill="#FEBE03" transform="translate(353,40)" data-index="13"></path>
<path d="M0,0 L159,0 L159,17 L144,17 L144,18 L143,18 L143,35 L142,35 L142,18 L125,18 L125,34 L124,34 L124,18 L107,18 L107,36 L105,36 L105,19 L90,19 L90,35 L88,35 L88,18 L72,18 L72,34 L70,34 L70,18 L54,18 L54,35 L52,35 L52,18 L37,18 L37,35 L35,35 L35,18 L19,18 L19,35 L17,35 L17,18 L3,18 L3,17 L0,17 Z " fill="#BEBEBE" transform="translate(439,127)" data-index="14"></path>
<path d="M0,0 L12,0 L12,1 L15,1 L15,2 L17,2 L17,3 L19,3 L19,4 L21,4 L21,7 L22,7 L22,8 L23,8 L23,12 L19,12 L19,13 L12,13 L12,12 L11,12 L11,10 L10,10 L10,8 L7,8 L7,7 L3,7 L3,8 L2,8 L2,9 L1,9 L1,12 L2,12 L2,13 L4,13 L4,14 L7,14 L7,15 L13,15 L13,16 L16,16 L16,17 L18,17 L18,18 L19,18 L19,19 L21,19 L21,20 L22,20 L22,21 L23,21 L23,23 L24,23 L24,25 L25,25 L25,31 L24,31 L24,33 L23,33 L23,34 L22,34 L22,36 L21,36 L21,37 L20,37 L20,38 L18,38 L18,39 L17,39 L17,40 L15,40 L15,41 L12,41 L12,42 L8,42 L8,57 L42,57 L42,58 L-136,58 L-136,57 L6,57 L6,42 L0,42 L0,41 L-3,41 L-3,40 L-46,40 L-46,41 L-58,41 L-58,10 L-70,10 L-70,1 L-34,1 L-34,10 L-45,10 L-45,21 L-6,21 L-6,19 L-7,19 L-7,18 L-8,18 L-8,17 L-9,17 L-9,6 L-8,6 L-8,5 L-7,5 L-7,4 L-6,4 L-6,3 L-4,3 L-4,2 L-3,2 L-3,1 L0,1 Z " fill="#929495" transform="translate(1017,69)" data-index="15"></path>
<path d="M0,0 L1,0 L1,17 L18,17 L18,0 L19,0 L19,17 L36,17 L36,0 L37,0 L37,71 L52,71 L52,67 L53,67 L53,65 L54,65 L54,63 L55,63 L55,60 L56,60 L56,57 L57,57 L57,54 L58,54 L58,51 L73,51 L73,54 L74,54 L74,57 L75,57 L75,60 L76,60 L76,62 L77,62 L77,65 L78,65 L78,70 L79,70 L79,71 L80,71 L80,74 L81,74 L81,76 L82,76 L82,78 L83,78 L83,81 L84,81 L84,83 L85,83 L85,86 L86,86 L86,89 L87,89 L87,91 L74,91 L74,87 L73,87 L73,84 L58,84 L58,88 L57,88 L57,91 L45,91 L45,87 L46,87 L46,84 L47,84 L47,81 L48,81 L48,80 L49,80 L49,77 L50,77 L50,72 L37,72 L37,89 L36,89 L36,72 L20,72 L20,71 L36,71 L36,55 L26,55 L26,60 L25,60 L25,51 L0,51 L0,37 L-16,37 L-16,35 L0,35 L0,18 L-16,18 L-16,17 L0,17 Z " fill="#A4A4A4" transform="translate(775,19)" data-index="16"></path>
<path d="M0,0 L16,0 L16,1 L17,1 L17,0 L34,0 L34,33 L29,33 L29,71 L5,71 L5,70 L4,70 L4,67 L3,67 L3,64 L2,64 L2,61 L1,61 L1,58 L0,58 Z " fill="#B0B0B0" transform="translate(127,37)" data-index="17" style="opacity: 1;"></path>
<path d="M0,0 L10,0 L10,16 L-6,16 L-6,17 L10,17 L10,34 L11,34 L11,17 L24,17 L24,22 L23,22 L23,25 L22,25 L22,26 L21,26 L21,29 L20,29 L20,32 L19,32 L19,36 L27,36 L27,52 L11,52 L11,35 L10,35 L10,52 L-7,52 L-7,35 L-8,35 L-8,52 L-25,52 L-25,36 L-13,36 L-13,34 L-14,34 L-14,5 L0,5 Z " fill="#878787" transform="translate(801,74)" data-index="18"></path>
<path d="M0,0 L36,0 L36,1 L48,1 L48,0 L91,0 L91,1 L94,1 L94,2 L100,2 L100,17 L-4,17 L-4,1 L0,1 Z " fill="#F8F8F8" transform="translate(923,109)" data-index="19"></path>
<path d="M0,0 L2,0 L2,17 L18,17 L18,0 L20,0 L20,17 L36,17 L36,0 L38,0 L38,17 L53,17 L53,0 L55,0 L55,17 L71,17 L71,0 L73,0 L73,17 L89,17 L89,0 L91,0 L91,17 L107,17 L107,0 L109,0 L109,17 L125,17 L125,18 L109,18 L109,35 L125,35 L125,37 L109,37 L109,53 L126,53 L126,55 L109,55 L109,71 L126,71 L126,72 L109,72 L109,89 L125,89 L125,90 L109,90 L109,107 L91,107 L91,92 L95,92 L95,91 L98,91 L98,90 L100,90 L100,89 L101,89 L101,88 L103,88 L103,87 L104,87 L104,86 L105,86 L105,84 L106,84 L106,83 L107,83 L107,81 L108,81 L108,75 L107,75 L107,73 L106,73 L106,71 L105,71 L105,70 L104,70 L104,69 L102,69 L102,68 L101,68 L101,67 L99,67 L99,66 L96,66 L96,65 L90,65 L90,64 L87,64 L87,63 L85,63 L85,62 L84,62 L84,59 L85,59 L85,58 L86,58 L86,57 L90,57 L90,58 L93,58 L93,60 L94,60 L94,62 L95,62 L95,63 L102,63 L102,62 L106,62 L106,58 L105,58 L105,57 L104,57 L104,54 L102,54 L102,53 L100,53 L100,52 L98,52 L98,51 L95,51 L95,50 L89,50 L89,36 L73,36 L73,35 L89,35 L89,18 L-13,18 L-13,17 L0,17 Z " fill="#BCBCBC" transform="translate(934,19)" data-index="20"></path>
<path d="M0,0 L10,0 L10,1 L14,1 L14,2 L16,2 L16,3 L18,3 L18,4 L20,4 L20,5 L21,5 L21,7 L22,7 L22,8 L23,8 L23,10 L24,10 L24,11 L25,11 L25,13 L26,13 L26,27 L25,27 L25,30 L24,30 L24,32 L23,32 L23,34 L22,34 L22,35 L21,35 L21,36 L20,36 L20,37 L19,37 L19,38 L18,38 L18,39 L16,39 L16,40 L14,40 L14,41 L11,41 L11,42 L0,42 L0,41 L-3,41 L-3,40 L-5,40 L-5,39 L-6,39 L-6,38 L-8,38 L-8,37 L-9,37 L-9,36 L-10,36 L-10,35 L-11,35 L-11,33 L-12,33 L-12,32 L-13,32 L-13,30 L-14,30 L-14,27 L-15,27 L-15,14 L-14,14 L-14,12 L-13,12 L-13,10 L-12,10 L-12,8 L-11,8 L-11,7 L-10,7 L-10,6 L-9,6 L-9,4 L-7,4 L-7,3 L-5,3 L-5,2 L-3,2 L-3,1 L0,1 Z " fill="#080808" transform="translate(472,69)" data-index="21"></path>
<path d="M0,0 L2,0 L2,16 L12,16 L12,14 L13,14 L13,23 L25,23 L25,53 L-11,53 L-11,54 L-12,54 L-12,14 L-11,14 L-11,16 L0,16 Z " fill="#AFAFAF" transform="translate(934,56)" data-index="22"></path>
<path d="M0,0 L12,0 L12,2 L13,2 L13,3 L14,3 L14,5 L15,5 L15,7 L16,7 L16,8 L17,8 L17,10 L18,10 L18,11 L19,11 L19,12 L20,12 L20,14 L21,14 L21,15 L22,15 L22,17 L23,17 L23,19 L24,19 L24,20 L26,20 L26,0 L37,0 L37,40 L26,40 L26,39 L25,39 L25,37 L24,37 L24,36 L23,36 L23,34 L22,34 L22,33 L21,33 L21,32 L20,32 L20,30 L19,30 L19,29 L18,29 L18,27 L17,27 L17,26 L16,26 L16,24 L15,24 L15,22 L14,22 L14,21 L11,21 L11,40 L0,40 Z " fill="#030303" transform="translate(885,70)" data-index="23"></path>
<path d="M0,0 L12,0 L12,2 L13,2 L13,3 L14,3 L14,5 L15,5 L15,6 L16,6 L16,8 L17,8 L17,10 L18,10 L18,11 L19,11 L19,12 L20,12 L20,14 L21,14 L21,15 L22,15 L22,17 L23,17 L23,18 L24,18 L24,20 L26,20 L26,0 L37,0 L37,40 L26,40 L26,39 L25,39 L25,37 L24,37 L24,36 L23,36 L23,35 L22,35 L22,33 L21,33 L21,32 L20,32 L20,30 L19,30 L19,29 L18,29 L18,27 L17,27 L17,26 L16,26 L16,24 L15,24 L15,22 L14,22 L14,21 L13,21 L13,19 L11,19 L11,40 L0,40 Z " fill="#040404" transform="translate(523,70)" data-index="24"></path>
<path d="M0,0 L1,0 L1,16 L17,16 L17,0 L18,0 L18,34 L30,34 L30,35 L35,35 L35,36 L37,36 L37,37 L40,37 L40,38 L43,38 L43,39 L44,39 L44,40 L45,40 L45,41 L46,41 L46,45 L45,45 L45,46 L44,46 L44,47 L37,47 L37,46 L36,46 L36,45 L35,45 L35,43 L34,43 L34,40 L27,40 L27,41 L23,41 L23,46 L24,46 L24,48 L25,48 L25,49 L26,49 L26,50 L27,50 L27,51 L28,51 L28,52 L29,52 L29,53 L-2,53 L-2,54 L-3,54 L-3,14 L-2,14 L-2,16 L0,16 Z " fill="#EDEDED" transform="translate(563,56)" data-index="25"></path>
<path d="M0,0 L8,0 L8,16 L27,16 L27,22 L28,22 L28,25 L29,25 L29,27 L30,27 L30,28 L31,28 L31,30 L32,30 L32,31 L33,31 L33,32 L34,32 L34,33 L36,33 L36,34 L37,34 L37,35 L-5,35 L-5,34 L-4,34 L-4,33 L-2,33 L-2,32 L-1,32 L-1,30 L0,30 L0,29 L1,29 L1,27 L2,27 L2,25 L3,25 L3,23 L2,23 L2,22 L-1,22 L-1,21 L-4,21 L-4,20 L-8,20 L-8,24 L-10,24 L-10,26 L-11,26 L-11,27 L-13,27 L-13,28 L-18,28 L-18,27 L-20,27 L-20,26 L-21,26 L-21,23 L-22,23 L-22,21 L-23,21 L-23,10 L-22,10 L-22,8 L-21,8 L-21,7 L-20,7 L-20,6 L-19,6 L-19,5 L-18,5 L-18,4 L-12,4 L-12,5 L-11,5 L-11,6 L-10,6 L-10,7 L-8,7 L-8,9 L-3,9 L-3,8 L1,8 L1,7 L2,7 L2,4 L1,4 L1,2 L0,2 Z " fill="#9D9C9B" transform="translate(430,74)" data-index="26"></path>
<path d="M0,0 L15,0 L15,3 L16,3 L16,6 L17,6 L17,8 L18,8 L18,12 L19,12 L19,14 L20,14 L20,18 L21,18 L21,20 L22,20 L22,23 L23,23 L23,25 L24,25 L24,28 L25,28 L25,31 L26,31 L26,34 L27,34 L27,37 L28,37 L28,40 L16,40 L16,39 L15,39 L15,34 L14,34 L14,33 L0,33 L0,36 L-1,36 L-1,40 L-14,40 L-14,38 L-13,38 L-13,37 L-12,37 L-12,33 L-11,33 L-11,31 L-10,31 L-10,28 L-9,28 L-9,24 L-8,24 L-8,23 L-7,23 L-7,19 L-6,19 L-6,16 L-5,16 L-5,15 L-4,15 L-4,11 L-3,11 L-3,9 L-2,9 L-2,6 L-1,6 L-1,2 L0,2 Z " fill="#080808" transform="translate(104,70)" data-index="27" style="visibility: visible; opacity: 1;"></path>
<path d="M0,0 L15,0 L15,3 L16,3 L16,6 L17,6 L17,9 L18,9 L18,11 L19,11 L19,14 L20,14 L20,19 L21,19 L21,20 L22,20 L22,23 L23,23 L23,25 L24,25 L24,27 L25,27 L25,30 L26,30 L26,32 L27,32 L27,35 L28,35 L28,38 L29,38 L29,40 L16,40 L16,36 L15,36 L15,33 L0,33 L0,37 L-1,37 L-1,40 L-13,40 L-13,36 L-12,36 L-12,33 L-11,33 L-11,30 L-10,30 L-10,29 L-9,29 L-9,26 L-8,26 L-8,23 L-7,23 L-7,20 L-6,20 L-6,16 L-5,16 L-5,14 L-4,14 L-4,12 L-3,12 L-3,9 L-2,9 L-2,6 L-1,6 L-1,3 L0,3 Z " fill="#090909" transform="translate(833,70)" data-index="28"></path>
<path d="M0,0 L12,0 L12,27 L13,27 L13,29 L14,29 L14,30 L15,30 L15,31 L16,31 L16,32 L22,32 L22,31 L23,31 L23,30 L24,30 L24,29 L25,29 L25,28 L26,28 L26,0 L37,0 L37,31 L36,31 L36,33 L35,33 L35,34 L34,34 L34,36 L33,36 L33,37 L31,37 L31,38 L30,38 L30,39 L28,39 L28,40 L10,40 L10,39 L8,39 L8,38 L7,38 L7,37 L5,37 L5,36 L4,36 L4,35 L3,35 L3,33 L2,33 L2,32 L1,32 L1,29 L0,29 Z " fill="#050505" transform="translate(646,70)" data-index="29"></path>
<path d="M0,0 L11,0 L11,1 L15,1 L15,2 L17,2 L17,3 L19,3 L19,4 L20,4 L20,6 L21,6 L21,7 L22,7 L22,12 L12,12 L12,11 L11,11 L11,10 L10,10 L10,9 L9,9 L9,8 L8,8 L8,7 L3,7 L3,8 L2,8 L2,9 L1,9 L1,12 L2,12 L2,13 L3,13 L3,14 L6,14 L6,15 L13,15 L13,16 L16,16 L16,17 L17,17 L17,18 L19,18 L19,19 L21,19 L21,20 L22,20 L22,23 L24,23 L24,33 L22,33 L22,36 L21,36 L21,37 L20,37 L20,38 L18,38 L18,39 L17,39 L17,40 L15,40 L15,41 L-3,41 L-3,40 L-5,40 L-5,39 L-6,39 L-6,38 L-7,38 L-7,37 L-8,37 L-8,36 L-9,36 L-9,35 L-10,35 L-10,33 L-11,33 L-11,28 L0,28 L0,30 L1,30 L1,31 L2,31 L2,32 L3,32 L3,34 L10,34 L10,33 L12,33 L12,31 L13,31 L13,28 L12,28 L12,27 L10,27 L10,26 L9,26 L9,25 L3,25 L3,24 L0,24 L0,23 L-2,23 L-2,22 L-4,22 L-4,21 L-5,21 L-5,20 L-6,20 L-6,19 L-8,19 L-8,17 L-9,17 L-9,15 L-10,15 L-10,8 L-9,8 L-9,6 L-8,6 L-8,5 L-7,5 L-7,4 L-6,4 L-6,3 L-5,3 L-5,2 L-3,2 L-3,1 L0,1 Z " fill="#080807" transform="translate(45,69)" data-index="30" style="visibility: visible; opacity: 1;"></path>
<path d="M0,0 L11,0 L11,1 L15,1 L15,2 L17,2 L17,3 L18,3 L18,4 L20,4 L20,6 L21,6 L21,7 L22,7 L22,12 L11,12 L11,10 L10,10 L10,9 L9,9 L9,8 L7,8 L7,7 L3,7 L3,8 L2,8 L2,9 L1,9 L1,12 L2,12 L2,13 L3,13 L3,14 L6,14 L6,15 L13,15 L13,16 L16,16 L16,17 L17,17 L17,18 L19,18 L19,19 L20,19 L20,20 L21,20 L21,21 L22,21 L22,23 L23,23 L23,25 L24,25 L24,31 L23,31 L23,33 L22,33 L22,35 L21,35 L21,36 L20,36 L20,38 L18,38 L18,39 L17,39 L17,40 L15,40 L15,41 L-3,41 L-3,40 L-5,40 L-5,39 L-6,39 L-6,38 L-7,38 L-7,37 L-8,37 L-8,36 L-9,36 L-9,35 L-10,35 L-10,33 L-11,33 L-11,28 L-7,28 L-7,27 L0,27 L0,30 L1,30 L1,32 L2,32 L2,33 L3,33 L3,34 L10,34 L10,33 L11,33 L11,32 L12,32 L12,28 L11,28 L11,27 L10,27 L10,26 L9,26 L9,25 L6,25 L6,24 L3,24 L3,23 L1,23 L1,22 L-4,22 L-4,21 L-6,21 L-6,20 L-7,20 L-7,19 L-8,19 L-8,17 L-9,17 L-9,16 L-10,16 L-10,8 L-9,8 L-9,6 L-8,6 L-8,4 L-6,4 L-6,3 L-5,3 L-5,2 L-3,2 L-3,1 L0,1 Z " fill="#070708" transform="translate(597,69)" data-index="31"></path>
<path d="M0,0 L46,0 L46,1 L49,1 L49,2 L51,2 L51,17 L-1,17 L-1,1 L0,1 Z " fill="#F7F7F7" transform="translate(423,109)" data-index="32"></path>
<path d="M0,0 L3,0 L3,1 L15,1 L15,0 L48,0 L48,1 L51,1 L51,2 L52,2 L52,17 L0,17 Z " fill="#F7F7F7" transform="translate(546,109)" data-index="33"></path>
<path d="M0,0 L9,0 L9,1 L14,1 L14,2 L16,2 L16,3 L18,3 L18,4 L20,4 L20,6 L21,6 L21,7 L22,7 L22,9 L23,9 L23,12 L22,12 L22,13 L18,13 L18,14 L13,14 L13,12 L11,12 L11,11 L10,11 L10,10 L9,10 L9,9 L3,9 L3,10 L2,10 L2,11 L1,11 L1,12 L0,12 L0,13 L-1,13 L-1,15 L-2,15 L-2,26 L-1,26 L-1,28 L0,28 L0,31 L1,31 L1,32 L3,32 L3,33 L8,33 L8,32 L10,32 L10,31 L11,31 L11,29 L13,29 L13,25 L17,25 L17,26 L20,26 L20,27 L23,27 L23,28 L24,28 L24,30 L23,30 L23,32 L22,32 L22,34 L21,34 L21,35 L20,35 L20,37 L19,37 L19,38 L17,38 L17,39 L16,39 L16,40 L14,40 L14,41 L-3,41 L-3,40 L-5,40 L-5,39 L-6,39 L-6,38 L-7,38 L-7,37 L-8,37 L-8,36 L-9,36 L-9,35 L-10,35 L-10,34 L-11,34 L-11,32 L-12,32 L-12,30 L-13,30 L-13,11 L-12,11 L-12,9 L-11,9 L-11,7 L-10,7 L-10,6 L-9,6 L-9,5 L-8,5 L-8,4 L-6,4 L-6,3 L-5,3 L-5,2 L-2,2 L-2,1 L0,1 Z " fill="#070707" transform="translate(409,69)" data-index="34"></path>
<path d="M0,0 L30,0 L30,1 L41,1 L41,0 L51,0 L51,17 L0,17 Z " fill="#F3F3F3" transform="translate(493,109)" data-index="35"></path>
<path d="M0,0 L12,0 L12,1 L15,1 L15,2 L17,2 L17,3 L19,3 L19,4 L21,4 L21,7 L22,7 L22,8 L23,8 L23,12 L19,12 L19,13 L12,13 L12,12 L11,12 L11,10 L10,10 L10,8 L7,8 L7,7 L3,7 L3,8 L2,8 L2,9 L1,9 L1,12 L2,12 L2,13 L4,13 L4,14 L7,14 L7,15 L13,15 L13,16 L16,16 L16,17 L18,17 L18,18 L19,18 L19,19 L21,19 L21,20 L22,20 L22,21 L23,21 L23,23 L24,23 L24,25 L25,25 L25,31 L24,31 L24,33 L23,33 L23,34 L22,34 L22,36 L21,36 L21,37 L20,37 L20,38 L18,38 L18,39 L17,39 L17,40 L15,40 L15,41 L8,41 L8,34 L12,34 L12,33 L13,33 L13,28 L12,28 L12,27 L11,27 L11,26 L10,26 L10,25 L3,25 L3,24 L0,24 L0,23 L-2,23 L-2,22 L-4,22 L-4,21 L-5,21 L-5,20 L-6,20 L-6,19 L-7,19 L-7,18 L-8,18 L-8,17 L-9,17 L-9,6 L-8,6 L-8,5 L-7,5 L-7,4 L-6,4 L-6,3 L-4,3 L-4,2 L-3,2 L-3,1 L0,1 Z " fill="#0B0B0B" transform="translate(1017,69)" data-index="36"></path>
<path d="M0,0 L17,0 L17,33 L13,33 L13,35 L12,35 L12,39 L11,39 L11,42 L10,42 L10,44 L9,44 L9,48 L8,48 L8,49 L7,49 L7,52 L6,52 L6,53 L0,53 Z " fill="#FAFAFA" transform="translate(91,37)" data-index="37" style="visibility: visible; opacity: 1;"></path>
<path d="M0,0 L3,0 L3,1 L4,1 L4,3 L5,3 L5,5 L6,5 L6,6 L7,6 L7,8 L8,8 L8,9 L9,9 L9,11 L10,11 L10,12 L11,12 L11,13 L12,13 L12,15 L13,15 L13,16 L14,16 L14,18 L15,18 L15,19 L23,19 L23,35 L-13,35 L-13,18 L-11,18 L-11,19 L0,19 Z " fill="#F6F6F6" transform="translate(896,91)" data-index="38"></path>
<path d="M0,0 L37,0 L37,9 L24,9 L24,38 L25,38 L25,40 L12,40 L12,9 L0,9 Z " fill="#070605" transform="translate(763,70)" data-index="39"></path>
<path d="M0,0 L36,0 L36,9 L24,9 L24,40 L12,40 L12,9 L0,9 Z " fill="#040405" transform="translate(947,70)" data-index="40"></path>
<path d="M0,0 L12,0 L12,30 L31,30 L31,40 L0,40 Z " fill="#060606" transform="translate(710,70)" data-index="41"></path>
<path d="M0,0 L14,0 L14,1 L15,1 L15,6 L16,6 L16,7 L22,7 L22,23 L5,23 L5,7 L4,7 L4,23 L-13,23 L-13,7 L-1,7 L-1,3 L0,3 Z " fill="#FEFEFE" transform="translate(104,103)" data-index="42" style="opacity: 1; visibility: visible;"></path>
<path d="M0,0 L17,0 L17,52 L16,52 L16,51 L15,51 L15,47 L14,47 L14,45 L13,45 L13,41 L12,41 L12,39 L11,39 L11,36 L10,36 L10,33 L0,33 Z " fill="#FAFAFA" transform="translate(109,37)" data-index="43" style="opacity: 1; visibility: visible;"></path>
<path d="M0,0 L17,0 L17,34 L0,34 Z " fill="#F6F6F7" transform="translate(723,56)" data-index="44"></path>
<path d="M0,0 L19,0 L19,1 L21,1 L21,2 L22,2 L22,5 L23,5 L23,23 L4,23 L4,22 L2,22 L2,21 L1,21 L1,19 L0,19 Z " fill="#FE0101" transform="translate(271,79)" data-index="45"></path>
<path d="M0,0 L12,0 L12,40 L0,40 Z " fill="#090909" transform="translate(156,70)" data-index="46"></path>
<path d="M0,0 L5,0 L5,1 L7,1 L7,2 L8,2 L8,3 L9,3 L9,4 L10,4 L10,5 L11,5 L11,16 L10,16 L10,19 L9,19 L9,21 L8,21 L8,22 L7,22 L7,23 L5,23 L5,24 L0,24 L0,23 L-2,23 L-2,22 L-3,22 L-3,21 L-4,21 L-4,19 L-5,19 L-5,17 L-6,17 L-6,8 L-5,8 L-5,4 L-4,4 L-4,3 L-3,3 L-3,2 L-2,2 L-2,1 L0,1 Z " fill="#949494" transform="translate(475,78)" data-index="47"></path>
<path d="M0,0 L7,0 L7,1 L19,1 L19,0 L20,0 L20,17 L0,17 Z " fill="#F3F3F3" transform="translate(952,109)" data-index="48"></path>
<path d="M0,0 L19,0 L19,17 L0,17 Z " fill="#FEFEFE" transform="translate(561,91)" data-index="49"></path>
<path d="M0,0 L16,0 L16,14 L4,14 L4,34 L0,34 Z " fill="#FCFCFC" transform="translate(706,56)" data-index="50"></path>
<path d="M0,0 L10,0 L10,5 L23,5 L23,16 L0,16 Z " fill="#FDFDFD" transform="translate(936,74)" data-index="51"></path>
<path d="M0,0 L1,0 L1,17 L18,17 L18,0 L19,0 L19,17 L35,17 L35,0 L36,0 L36,17 L53,17 L53,0 L54,0 L54,17 L71,17 L71,0 L72,0 L72,17 L82,17 L82,18 L72,18 L72,19 L71,19 L71,18 L54,18 L54,51 L53,51 L53,18 L36,18 L36,19 L35,19 L35,18 L19,18 L19,74 L18,74 L18,71 L17,71 L17,70 L18,70 L18,18 L1,18 L1,51 L0,51 Z " fill="#8E8F8F" transform="translate(108,19)" data-index="52" style="visibility: visible; opacity: 1;"></path>
<path d="M0,0 L17,0 L17,17 L0,17 Z " fill="#FCFCFC" transform="translate(900,127)" data-index="53"></path>
<path d="M0,0 L17,0 L17,17 L0,17 Z " fill="#FCFCFC" transform="translate(882,127)" data-index="54"></path>
<path d="M0,0 L17,0 L17,17 L0,17 Z " fill="#FDFDFD" transform="translate(847,127)" data-index="55"></path>
<path d="M0,0 L17,0 L17,17 L0,17 Z " fill="#FDFDFD" transform="translate(829,127)" data-index="56"></path>
<path d="M0,0 L17,0 L17,17 L0,17 Z " fill="#FEFEFE" transform="translate(794,127)" data-index="57"></path>
<path d="M0,0 L17,0 L17,17 L0,17 Z " fill="#FEFEFE" transform="translate(776,127)" data-index="58"></path>
<path d="M0,0 L17,0 L17,17 L0,17 Z " fill="#FEFEFE" transform="translate(741,127)" data-index="59"></path>
<path d="M0,0 L17,0 L17,17 L0,17 Z " fill="#FEFEFE" transform="translate(723,127)" data-index="60"></path>
<path d="M0,0 L17,0 L17,17 L0,17 Z " fill="#FEFEFE" transform="translate(688,127)" data-index="61"></path>
<path d="M0,0 L17,0 L17,17 L0,17 Z " fill="#FDFDFD" transform="translate(670,127)" data-index="62"></path>
<path d="M0,0 L17,0 L17,17 L0,17 Z " fill="#FDFDFD" transform="translate(652,127)" data-index="63"></path>
<path d="M0,0 L17,0 L17,17 L0,17 Z " fill="#FDFDFD" transform="translate(617,127)" data-index="64"></path>
<path d="M0,0 L17,0 L17,17 L0,17 Z " fill="#FDFDFD" transform="translate(599,127)" data-index="65"></path>
<path d="M0,0 L17,0 L17,17 L0,17 Z " fill="#FCFCFC" transform="translate(439,127)" data-index="66"></path>
<path d="M0,0 L17,0 L17,17 L0,17 Z " fill="#FDFDFD" transform="translate(404,127)" data-index="67"></path>
<path d="M0,0 L17,0 L17,17 L0,17 Z " fill="#FDFDFD" transform="translate(386,127)" data-index="68"></path>
<path d="M0,0 L17,0 L17,17 L0,17 Z " fill="#FEFEFE" transform="translate(162,127)" data-index="69" style="opacity: 1; visibility: visible;"></path>
<path d="M0,0 L17,0 L17,17 L0,17 Z " fill="#FEFEFE" transform="translate(144,127)" data-index="70" style="opacity: 1; visibility: visible;"></path>
<path d="M0,0 L17,0 L17,17 L0,17 Z " fill="#FEFEFE" transform="translate(109,127)" data-index="71" style="visibility: visible; opacity: 1;"></path>
<path d="M0,0 L17,0 L17,17 L0,17 Z " fill="#FEFEFE" transform="translate(91,127)" data-index="72" style="visibility: visible; opacity: 1;"></path>
<path d="M0,0 L17,0 L17,17 L0,17 Z " fill="#FEFEFE" transform="translate(56,127)" data-index="73" style="visibility: visible; opacity: 1;"></path>
<path d="M0,0 L17,0 L17,17 L0,17 Z " fill="#FEFEFE" transform="translate(38,127)" data-index="74" style="visibility: visible; opacity: 1;"></path>
<path d="M0,0 L17,0 L17,17 L0,17 Z " fill="#FEFEFE" transform="translate(794,109)" data-index="75"></path>
<path d="M0,0 L17,0 L17,17 L0,17 Z " fill="#FDFDFD" transform="translate(741,109)" data-index="76"></path>
<path d="M0,0 L17,0 L17,17 L0,17 Z " fill="#FDFDFD" transform="translate(688,109)" data-index="77"></path>
<path d="M0,0 L17,0 L17,17 L0,17 Z " fill="#FDFDFD" transform="translate(617,109)" data-index="78"></path>
<path d="M0,0 L17,0 L17,17 L0,17 Z " fill="#FDFDFD" transform="translate(386,109)" data-index="79"></path>
<path d="M0,0 L17,0 L17,17 L0,17 Z " fill="#FEFEFE" transform="translate(794,91)" data-index="80"></path>
<path d="M0,0 L17,0 L17,17 L0,17 Z " fill="#FDFDFD" transform="translate(688,91)" data-index="81"></path>
<path d="M0,0 L17,0 L17,17 L0,17 Z " fill="#FBFBFB" transform="translate(847,37)" data-index="82"></path>
<path d="M0,0 L17,0 L17,17 L0,17 Z " fill="#FBFBFB" transform="translate(829,37)" data-index="83"></path>
<path d="M0,0 L17,0 L17,17 L0,17 Z " fill="#FCFCFC" transform="translate(794,37)" data-index="84"></path>
<path d="M0,0 L17,0 L17,17 L0,17 Z " fill="#FCFCFC" transform="translate(776,37)" data-index="85"></path>
<path d="M0,0 L17,0 L17,17 L0,17 Z " fill="#FCFCFC" transform="translate(741,37)" data-index="86"></path>
<path d="M0,0 L17,0 L17,17 L0,17 Z " fill="#FCFCFC" transform="translate(723,37)" data-index="87"></path>
<path d="M0,0 L17,0 L17,17 L0,17 Z " fill="#FCFCFC" transform="translate(688,37)" data-index="88"></path>
<path d="M0,0 L17,0 L17,17 L0,17 Z " fill="#FCFCFC" transform="translate(670,37)" data-index="89"></path>
<path d="M0,0 L17,0 L17,17 L0,17 Z " fill="#FCFCFC" transform="translate(652,37)" data-index="90"></path>
<path d="M0,0 L17,0 L17,17 L0,17 Z " fill="#FBFBFB" transform="translate(617,37)" data-index="91"></path>
<path d="M0,0 L17,0 L17,17 L0,17 Z " fill="#FBFBFB" transform="translate(599,37)" data-index="92"></path>
<path d="M0,0 L17,0 L17,17 L0,17 Z " fill="#FBFBFB" transform="translate(404,37)" data-index="93"></path>
<path d="M0,0 L17,0 L17,17 L0,17 Z " fill="#FBFBFB" transform="translate(386,37)" data-index="94"></path>
<path d="M0,0 L17,0 L17,17 L0,17 Z " fill="#FDFDFD" transform="translate(162,37)" data-index="95" style="opacity: 1; visibility: visible;"></path>
<path d="M0,0 L17,0 L17,17 L0,17 Z " fill="#FDFDFD" transform="translate(144,37)" data-index="96" style="visibility: visible; opacity: 1;"></path>
<path d="M0,0 L17,0 L17,17 L0,17 Z " fill="#FCFCFC" transform="translate(56,37)" data-index="97" style="opacity: 1; visibility: visible;"></path>
<path d="M0,0 L17,0 L17,17 L0,17 Z " fill="#FCFCFC" transform="translate(38,37)" data-index="98" style="opacity: 1; visibility: visible;"></path>
<path d="M0,0 L7,0 L7,1 L9,1 L9,2 L10,2 L10,3 L11,3 L11,4 L12,4 L12,5 L13,5 L13,12 L12,12 L12,14 L11,14 L11,15 L10,15 L10,17 L8,17 L8,18 L6,18 L6,19 L1,19 L1,18 L-1,18 L-1,17 L-3,17 L-3,16 L-4,16 L-4,14 L-5,14 L-5,12 L-6,12 L-6,5 L-5,5 L-5,4 L-4,4 L-4,3 L-3,3 L-3,2 L-2,2 L-2,1 L0,1 Z " fill="#F5F5F5" transform="translate(336,207)" data-index="99"></path>
<path d="M0,0 L14,0 L14,17 L-3,17 L-3,1 L0,1 Z " fill="#FDFDFD" transform="translate(832,109)" data-index="100"></path>
<path d="M0,0 L13,0 L13,17 L-4,17 L-4,1 L0,1 Z " fill="#FCFCFC" transform="translate(674,109)" data-index="101"></path>
<path d="M0,0 L13,0 L13,17 L-4,17 L-4,1 L0,1 Z " fill="#FDFDFD" transform="translate(60,109)" data-index="102" style="visibility: visible; opacity: 1;"></path>
<path d="M0,0 L12,0 L12,1 L17,1 L17,17 L0,17 Z " fill="#FEFEFE" transform="translate(144,109)" data-index="103" style="opacity: 1; visibility: visible;"></path>
<path d="M0,0 L11,0 L11,17 L-6,17 L-6,1 L0,1 Z " fill="#FEFEFE" transform="translate(168,109)" data-index="104" style="opacity: 1;"></path>
<path d="M0,0 L17,0 L17,17 L1,17 L1,9 L0,9 Z " fill="#FEFEFE" transform="translate(741,91)" data-index="105"></path>
<path d="M0,0 L5,0 L5,17 L-12,17 L-12,1 L0,1 Z " fill="#FEFEFE" transform="translate(788,109)" data-index="106"></path>
<path d="M0,0 L5,0 L5,17 L-12,17 L-12,1 L0,1 Z " fill="#FEFEFE" transform="translate(103,109)" data-index="107" style="opacity: 1; visibility: visible;"></path>
<path d="M0,0 L2,0 L2,1 L15,1 L15,0 L17,0 L17,17 L0,17 Z " fill="#FDFDFD" transform="translate(847,109)" data-index="108"></path>
<path d="M0,0 L16,0 L16,17 L0,17 Z " fill="#FEFEFE" transform="translate(1025,127)" data-index="109"></path>
<path d="M0,0 L16,0 L16,17 L0,17 Z " fill="#FEFEFE" transform="translate(1007,127)" data-index="110"></path>
<path d="M0,0 L16,0 L16,17 L0,17 Z " fill="#FEFEFE" transform="translate(989,127)" data-index="111"></path>
<path d="M0,0 L16,0 L16,17 L0,17 Z " fill="#FEFEFE" transform="translate(954,127)" data-index="112"></path>
<path d="M0,0 L16,0 L16,17 L0,17 Z " fill="#FEFEFE" transform="translate(936,127)" data-index="113"></path>
<path d="M0,0 L16,0 L16,17 L0,17 Z " fill="#FCFCFC" transform="translate(918,127)" data-index="114"></path>
<path d="M0,0 L16,0 L16,17 L0,17 Z " fill="#FDFDFD" transform="translate(865,127)" data-index="115"></path>
<path d="M0,0 L16,0 L16,17 L0,17 Z " fill="#FDFDFD" transform="translate(812,127)" data-index="116"></path>
<path d="M0,0 L16,0 L16,17 L0,17 Z " fill="#FEFEFE" transform="translate(759,127)" data-index="117"></path>
<path d="M0,0 L16,0 L16,17 L0,17 Z " fill="#FEFEFE" transform="translate(706,127)" data-index="118"></path>
<path d="M0,0 L16,0 L16,17 L0,17 Z " fill="#FDFDFD" transform="translate(635,127)" data-index="119"></path>
<path d="M0,0 L16,0 L16,17 L0,17 Z " fill="#FDFDFD" transform="translate(582,127)" data-index="120"></path>
<path d="M0,0 L16,0 L16,17 L0,17 Z " fill="#FEFEFE" transform="translate(564,127)" data-index="121"></path>
<path d="M0,0 L16,0 L16,17 L0,17 Z " fill="#FEFEFE" transform="translate(546,127)" data-index="122"></path>
<path d="M0,0 L16,0 L16,17 L0,17 Z " fill="#FEFEFE" transform="translate(511,127)" data-index="123"></path>
<path d="M0,0 L16,0 L16,17 L0,17 Z " fill="#FEFEFE" transform="translate(493,127)" data-index="124"></path>
<path d="M0,0 L16,0 L16,17 L0,17 Z " fill="#FEFEFE" transform="translate(458,127)" data-index="125"></path>
<path d="M0,0 L16,0 L16,17 L0,17 Z " fill="#FDFDFD" transform="translate(422,127)" data-index="126"></path>
<path d="M0,0 L16,0 L16,17 L0,17 Z " fill="#FEFEFE" transform="translate(127,127)" data-index="127"></path>
<path d="M0,0 L16,0 L16,17 L0,17 Z " fill="#FEFEFE" transform="translate(74,127)" data-index="128" style="opacity: 1; visibility: visible;"></path>
<path d="M0,0 L17,0 L17,16 L0,16 Z " fill="#FEFEFE" transform="translate(723,110)" data-index="129"></path>
<path d="M0,0 L16,0 L16,17 L0,17 Z " fill="#FEFEFE" transform="translate(936,109)" data-index="130"></path>
<path d="M0,0 L16,0 L16,17 L0,17 Z " fill="#FDFDFD" transform="translate(865,109)" data-index="131"></path>
<path d="M0,0 L16,0 L16,17 L0,17 Z " fill="#FEFEFE" transform="translate(759,109)" data-index="132"></path>
<path d="M0,0 L16,0 L16,17 L0,17 Z " fill="#FDFDFD" transform="translate(635,109)" data-index="133"></path>
<path d="M0,0 L16,0 L16,17 L0,17 Z " fill="#FEFEFE" transform="translate(564,109)" data-index="134"></path>
<path d="M0,0 L16,0 L16,17 L0,17 Z " fill="#FEFEFE" transform="translate(493,109)" data-index="135"></path>
<path d="M0,0 L16,0 L16,17 L0,17 Z " fill="#FEFEFE" transform="translate(74,109)" data-index="136" style="visibility: visible; opacity: 1;"></path>
<path d="M0,0 L16,0 L16,17 L0,17 Z " fill="#FEFEFE" transform="translate(989,91)" data-index="137"></path>
<path d="M0,0 L16,0 L16,17 L0,17 Z " fill="#FEFEFE" transform="translate(936,91)" data-index="138"></path>
<path d="M0,0 L16,0 L16,17 L0,17 Z " fill="#FDFDFD" transform="translate(865,91)" data-index="139"></path>
<path d="M0,0 L16,0 L16,17 L0,17 Z " fill="#FDFDFD" transform="translate(759,91)" data-index="140"></path>
<path d="M0,0 L16,0 L16,17 L0,17 Z " fill="#FEFEFE" transform="translate(440,91)" data-index="141"></path>
<path d="M0,0 L16,0 L16,17 L0,17 Z " fill="#FEFEFE" transform="translate(74,91)" data-index="142" style="opacity: 1; visibility: visible;"></path>
<path d="M0,0 L17,0 L17,16 L0,16 Z " fill="#FDFDFD" transform="translate(741,74)" data-index="143"></path>
<path d="M0,0 L17,0 L17,16 L0,16 Z " fill="#FDFDFD" transform="translate(688,74)" data-index="144"></path>
<path d="M0,0 L17,0 L17,16 L0,16 Z " fill="#FEFEFE" transform="translate(741,56)" data-index="145"></path>
<path d="M0,0 L17,0 L17,16 L0,16 Z " fill="#FEFEFE" transform="translate(723,56)" data-index="146"></path>
<path d="M0,0 L17,0 L17,16 L0,16 Z " fill="#FEFEFE" transform="translate(688,56)" data-index="147"></path>
<path d="M0,0 L17,0 L17,16 L0,16 Z " fill="#FDFDFD" transform="translate(617,56)" data-index="148"></path>
<path d="M0,0 L17,0 L17,16 L0,16 Z " fill="#FDFDFD" transform="translate(386,56)" data-index="149"></path>
<path d="M0,0 L16,0 L16,17 L0,17 Z " fill="#FCFCFC" transform="translate(1025,37)" data-index="150"></path>
<path d="M0,0 L16,0 L16,17 L0,17 Z " fill="#FCFCFC" transform="translate(1007,37)" data-index="151"></path>
<path d="M0,0 L16,0 L16,17 L0,17 Z " fill="#FCFCFC" transform="translate(989,37)" data-index="152"></path>
<path d="M0,0 L16,0 L16,17 L0,17 Z " fill="#FDFDFD" transform="translate(954,37)" data-index="153"></path>
<path d="M0,0 L16,0 L16,17 L0,17 Z " fill="#FDFDFD" transform="translate(936,37)" data-index="154"></path>
<path d="M0,0 L16,0 L16,17 L0,17 Z " fill="#FBFBFB" transform="translate(865,37)" data-index="155"></path>
<path d="M0,0 L16,0 L16,17 L0,17 Z " fill="#FCFCFC" transform="translate(812,37)" data-index="156"></path>
<path d="M0,0 L16,0 L16,17 L0,17 Z " fill="#FCFCFC" transform="translate(759,37)" data-index="157"></path>
<path d="M0,0 L16,0 L16,17 L0,17 Z " fill="#FCFCFC" transform="translate(706,37)" data-index="158"></path>
<path d="M0,0 L16,0 L16,17 L0,17 Z " fill="#FCFCFC" transform="translate(635,37)" data-index="159"></path>
<path d="M0,0 L16,0 L16,17 L0,17 Z " fill="#FBFBFB" transform="translate(582,37)" data-index="160"></path>
<path d="M0,0 L16,0 L16,17 L0,17 Z " fill="#FDFDFD" transform="translate(511,37)" data-index="161"></path>
<path d="M0,0 L16,0 L16,17 L0,17 Z " fill="#FDFDFD" transform="translate(493,37)" data-index="162"></path>
<path d="M0,0 L16,0 L16,17 L0,17 Z " fill="#FDFDFD" transform="translate(458,37)" data-index="163"></path>
<path d="M0,0 L16,0 L16,17 L0,17 Z " fill="#FDFDFD" transform="translate(440,37)" data-index="164"></path>
<path d="M0,0 L16,0 L16,17 L0,17 Z " fill="#FDFDFD" transform="translate(127,37)" data-index="165" style="opacity: 1; visibility: visible;"></path>
<path d="M0,0 L16,0 L16,17 L0,17 Z " fill="#FDFDFD" transform="translate(74,37)" data-index="166" style="opacity: 1; visibility: visible;"></path>
<path d="M0,0 L17,0 L17,16 L1,16 L1,14 L0,14 Z " fill="#FDFDFD" transform="translate(847,56)" data-index="167"></path>
<path d="M0,0 L10,0 L10,1 L12,1 L12,2 L13,2 L13,3 L14,3 L14,4 L15,4 L15,5 L16,5 L16,13 L15,13 L15,15 L14,15 L14,16 L13,16 L13,17 L11,17 L11,18 L9,18 L9,19 L1,19 L1,18 L0,18 Z " fill="#F4F4F4" transform="translate(655,207)" data-index="168"></path>
<path d="M0,0 L9,0 L9,1 L12,1 L12,2 L13,2 L13,3 L14,3 L14,4 L15,4 L15,5 L16,5 L16,12 L15,12 L15,14 L14,14 L14,16 L13,16 L13,17 L11,17 L11,18 L9,18 L9,19 L0,19 Z " fill="#ECECEC" transform="translate(168,207)" data-index="169"></path>
<path d="M0,0 L4,0 L4,17 L-13,17 L-13,2 L-3,2 L-3,1 L0,1 Z " fill="#FCFCFC" transform="translate(612,109)" data-index="170"></path>
<path d="M0,0 L10,0 L10,17 L-6,17 L-6,1 L0,1 Z " fill="#FEFEFE" transform="translate(133,109)" data-index="171" style="opacity: 1;"></path>
<path d="M0,0 L4,0 L4,1 L7,1 L7,2 L17,2 L17,17 L0,17 Z " fill="#FEFEFE" transform="translate(38,109)" data-index="172" style="visibility: visible; opacity: 1;"></path>
<path d="M0,0 L4,0 L4,1 L6,1 L6,2 L17,2 L17,17 L0,17 Z " fill="#FDFDFD" transform="translate(652,109)" data-index="173"></path>
<path d="M0,0 L11,0 L11,1 L14,1 L14,2 L16,2 L16,17 L0,17 Z " fill="#FEFEFE" transform="translate(458,109)" data-index="174"></path>
<path d="M0,0 L7,0 L7,1 L16,1 L16,17 L0,17 Z " fill="#FDFDFD" transform="translate(812,109)" data-index="175"></path>
<path d="M0,0 L2,0 L2,1 L5,1 L5,2 L17,2 L17,17 L0,17 Z " fill="#FCFCFC" transform="translate(404,109)" data-index="176"></path>
<path d="M0,0 L17,0 L17,16 L6,16 L6,15 L4,15 L4,14 L0,14 Z " fill="#FCFCFC" transform="translate(56,56)" data-index="177" style="opacity: 1; visibility: visible;"></path>
<path d="M0,0 L2,0 L2,1 L13,1 L13,0 L16,0 L16,17 L0,17 Z " fill="#FEFEFE" transform="translate(883,109)" data-index="178"></path>
<path d="M0,0 L9,0 L9,17 L-7,17 L-7,2 L-3,2 L-3,1 L0,1 Z " fill="#FDFDFD" transform="translate(1032,109)" data-index="179"></path>
<path d="M0,0 L4,0 L4,1 L16,1 L16,17 L0,17 Z " fill="#FEFEFE" transform="translate(706,109)" data-index="180"></path>
<path d="M0,0 L17,0 L17,14 L11,14 L11,16 L0,16 Z " fill="#FEFEFE" transform="translate(144,56)" data-index="181" style="opacity: 1; visibility: visible;"></path>
<path d="M0,0 L17,0 L17,14 L10,14 L10,16 L0,16 Z " fill="#FCFCFC" transform="translate(900,56)" data-index="182"></path>
<path d="M0,0 L17,0 L17,16 L7,16 L7,14 L0,14 Z " fill="#FDFDFD" transform="translate(794,56)" data-index="183"></path>
<path d="M0,0 L17,0 L17,16 L7,16 L7,14 L0,14 Z " fill="#FDFDFD" transform="translate(652,56)" data-index="184"></path>
<path d="M0,0 L17,0 L17,16 L7,16 L7,14 L0,14 Z " fill="#FEFEFE" transform="translate(162,56)" data-index="185" style="opacity: 1; visibility: visible;"></path>
<path d="M0,0 L7,0 L7,1 L10,1 L10,2 L16,2 L16,17 L0,17 Z " fill="#FEFEFE" transform="translate(1007,109)" data-index="186"></path>
<path d="M0,0 L16,0 L16,16 L0,16 Z " fill="#FDFDFD" transform="translate(989,74)" data-index="187"></path>
<path d="M0,0 L16,0 L16,16 L0,16 Z " fill="#FCFCFC" transform="translate(865,74)" data-index="188"></path>
<path d="M0,0 L16,0 L16,16 L0,16 Z " fill="#FDFDFD" transform="translate(564,74)" data-index="189"></path>
<path d="M0,0 L16,0 L16,16 L0,16 Z " fill="#FDFDFD" transform="translate(440,74)" data-index="190"></path>
<path d="M0,0 L16,0 L16,16 L0,16 Z " fill="#FDFDFD" transform="translate(127,74)" data-index="191" style="opacity: 1; visibility: visible;"></path>
<path d="M0,0 L16,0 L16,16 L0,16 Z " fill="#FDFDFD" transform="translate(74,74)" data-index="192" style="visibility: visible; opacity: 1;"></path>
<path d="M0,0 L16,0 L16,16 L0,16 Z " fill="#FEFEFE" transform="translate(989,56)" data-index="193"></path>
<path d="M0,0 L16,0 L16,16 L0,16 Z " fill="#FDFDFD" transform="translate(865,56)" data-index="194"></path>
<path d="M0,0 L16,0 L16,16 L0,16 Z " fill="#FEFEFE" transform="translate(812,56)" data-index="195"></path>
<path d="M0,0 L16,0 L16,16 L0,16 Z " fill="#FEFEFE" transform="translate(564,56)" data-index="196"></path>
<path d="M0,0 L16,0 L16,16 L0,16 Z " fill="#FEFEFE" transform="translate(493,56)" data-index="197"></path>
<path d="M0,0 L16,0 L16,16 L0,16 Z " fill="#FEFEFE" transform="translate(440,56)" data-index="198"></path>
<path d="M0,0 L16,0 L16,16 L0,16 Z " fill="#FEFEFE" transform="translate(127,56)" data-index="199" style="opacity: 1; visibility: visible;"></path>
<path d="M0,0 L16,0 L16,16 L0,16 Z " fill="#FEFEFE" transform="translate(74,56)" data-index="200" style="visibility: visible; opacity: 1;"></path>
<path d="M0,0 L16,0 L16,16 L0,16 Z " fill="#FEFEFE" transform="translate(901,38)" data-index="201"></path>
<path d="M0,0 L16,0 L16,16 L0,16 Z " fill="#FEFEFE" transform="translate(883,38)" data-index="202"></path>
<path d="M0,0 L16,0 L16,16 L0,16 Z " fill="#FEFEFE" transform="translate(564,38)" data-index="203"></path>
<path d="M0,0 L16,0 L16,16 L0,16 Z " fill="#FEFEFE" transform="translate(546,38)" data-index="204"></path>
<path d="M0,0 L15,0 L15,17 L0,17 Z " fill="#FEFEFE" transform="translate(972,127)" data-index="205"></path>
<path d="M0,0 L15,0 L15,17 L0,17 Z " fill="#FEFEFE" transform="translate(529,127)" data-index="206"></path>
<path d="M0,0 L15,0 L15,17 L0,17 Z " fill="#FEFEFE" transform="translate(476,127)" data-index="207"></path>
<path d="M0,0 L15,0 L15,17 L0,17 Z " fill="#FEFEFE" transform="translate(972,91)" data-index="208"></path>
<path d="M0,0 L15,0 L15,17 L0,17 Z " fill="#FDFDFD" transform="translate(972,37)" data-index="209"></path>
<path d="M0,0 L15,0 L15,17 L0,17 Z " fill="#FDFDFD" transform="translate(476,37)" data-index="210"></path>
<path d="M0,0 L1,0 L1,17 L17,17 L17,0 L18,0 L18,17 L35,17 L35,18 L18,18 L18,35 L35,35 L35,37 L18,37 L18,51 L17,51 L17,37 L1,37 L1,53 L0,53 L0,37 L-17,37 L-17,35 L0,35 L0,18 L-17,18 L-17,17 L0,17 Z M1,18 L1,35 L17,35 L17,18 Z " fill="#ACACAC" transform="translate(705,19)" data-index="211"></path>
<path d="M0,0 L16,0 L16,12 L15,12 L15,16 L0,16 Z " fill="#FCFCFC" transform="translate(812,74)" data-index="212"></path>
<path d="M0,0 L16,0 L16,16 L3,16 L3,15 L1,15 L1,14 L0,14 Z " fill="#FBFBFB" transform="translate(422,56)" data-index="213"></path>
<path d="M0,0 L10,0 L10,17 L-5,17 L-5,1 L0,1 Z " fill="#FEFEFE" transform="translate(534,109)" data-index="214"></path>
<path d="M0,0 L17,0 L17,14 L4,14 L4,16 L0,16 Z " fill="#FCFCFC" transform="translate(829,56)" data-index="215"></path>
<path d="M0,0 L17,0 L17,16 L14,16 L14,14 L1,14 L1,16 L0,16 Z " fill="#FCFCFC" transform="translate(670,56)" data-index="216"></path>
<path d="M0,0 L16,0 L16,14 L11,14 L11,16 L0,16 Z " fill="#FEFEFE" transform="translate(511,56)" data-index="217"></path>
<path d="M0,0 L14,0 L14,17 L-3,17 L-3,14 L-2,14 L-2,13 L-1,13 L-1,11 L0,11 L0,9 L1,9 L1,3 L0,3 Z " fill="#F7F7F7" transform="translate(620,91)" data-index="218"></path>
<path d="M0,0 L16,0 L16,13 L15,13 L15,14 L12,14 L12,15 L10,15 L10,16 L0,16 Z " fill="#FCFCFC" transform="translate(582,56)" data-index="219"></path>
<path d="M0,0 L16,0 L16,14 L10,14 L10,16 L0,16 Z " fill="#FEFEFE" transform="translate(936,56)" data-index="220"></path>
<path d="M0,0 L16,0 L16,14 L10,14 L10,16 L0,16 Z " fill="#FDFDFD" transform="translate(635,56)" data-index="221"></path>
<path d="M0,0 L1,0 L1,16 L17,16 L17,0 L18,0 L18,34 L30,34 L30,35 L-2,35 L-2,52 L26,52 L26,50 L27,50 L27,51 L28,51 L28,52 L29,52 L29,53 L-2,53 L-2,54 L-3,54 L-3,14 L-2,14 L-2,16 L0,16 Z M1,18 L1,34 L17,34 L17,18 Z " fill="#B1B1B1" transform="translate(563,56)" data-index="222"></path>
<path d="M0,0 L16,0 L16,13 L14,13 L14,14 L11,14 L11,15 L9,15 L9,16 L0,16 Z " fill="#FDFDFD" transform="translate(458,56)" data-index="223"></path>
<path d="M0,0 L15,0 L15,16 L0,16 Z " fill="#FEFEFE" transform="translate(919,38)" data-index="224"></path>
<path d="M0,0 L15,0 L15,16 L0,16 Z " fill="#FEFEFE" transform="translate(529,38)" data-index="225"></path>
<path d="M0,0 L15,0 L15,16 L0,16 Z " fill="#FEFEFE" transform="translate(423,38)" data-index="226"></path>
<path d="M0,0 L17,0 L17,14 L0,14 Z " fill="#FCFCFC" transform="translate(776,56)" data-index="227"></path>
<path d="M0,0 L16,0 L16,17 L5,17 L5,16 L4,16 L4,13 L3,13 L3,10 L2,10 L2,7 L1,7 L1,4 L0,4 Z " fill="#FCFCFC" transform="translate(127,91)" data-index="228" style="opacity: 1; visibility: visible;"></path>
<path d="M0,0 L10,0 L10,16 L-7,16 L-7,5 L0,5 Z " fill="#FDFDFD" transform="translate(801,74)" data-index="229"></path>
<path d="M0,0 L16,0 L16,16 L9,16 L9,15 L7,15 L7,14 L4,14 L4,13 L0,13 Z " fill="#FBFBFB" transform="translate(1025,56)" data-index="230"></path>
<path d="M0,0 L17,0 L17,13 L7,13 L7,14 L4,14 L4,15 L2,15 L2,16 L0,16 Z " fill="#FDFDFD" transform="translate(38,56)" data-index="231" style="opacity: 1; visibility: visible;"></path>
<path d="M0,0 L17,0 L17,15 L13,15 L13,14 L9,14 L9,13 L0,13 Z " fill="#FBFBFB" transform="translate(599,56)" data-index="232"></path>
<path d="M0,0 L15,0 L15,16 L4,16 L4,14 L0,14 Z " fill="#FEFEFE" transform="translate(919,56)" data-index="233"></path>
<path d="M0,0 L16,0 L16,13 L10,13 L10,14 L7,14 L7,15 L6,15 L6,16 L0,16 Z " fill="#FDFDFD" transform="translate(1007,56)" data-index="234"></path>
<path d="M0,0 L16,0 L16,14 L3,14 L3,16 L0,16 Z " fill="#FDFDFD" transform="translate(759,56)" data-index="235"></path>
<path d="M0,0 L16,0 L16,16 L15,16 L15,14 L2,14 L2,16 L0,16 Z " fill="#FDFDFD" transform="translate(546,56)" data-index="236"></path>
<path d="M0,0 L16,0 L16,15 L14,15 L14,14 L1,14 L1,16 L0,16 Z " fill="#FDFDFD" transform="translate(883,56)" data-index="237"></path>
<path d="M0,0 L15,0 L15,16 L6,16 L6,14 L0,14 Z " fill="#FDFDFD" transform="translate(529,56)" data-index="238"></path>
<path d="M0,0 L17,0 L17,13 L5,13 L5,14 L0,14 Z " fill="#FCFCFC" transform="translate(404,56)" data-index="239"></path>
<path d="M0,0 L11,0 L11,17 L-5,17 L-5,13 L-4,13 L-4,12 L-3,12 L-3,10 L-2,10 L-2,8 L-1,8 L-1,5 L0,5 Z " fill="#FAFAFA" transform="translate(498,91)" data-index="240"></path>
<path d="M0,0 L16,0 L16,14 L0,14 Z " fill="#FDFDFD" transform="translate(954,56)" data-index="241"></path>
<path d="M0,0 L7,0 L7,16 L1,16 L1,15 L0,15 L0,14 L-2,14 L-2,13 L-4,13 L-4,12 L-5,12 L-5,11 L-8,11 L-8,10 L-15,10 L-15,9 L-18,9 L-18,8 L-19,8 L-19,7 L-20,7 L-20,4 L-19,4 L-19,3 L-18,3 L-18,2 L-13,2 L-13,3 L-12,3 L-12,4 L-11,4 L-11,5 L-10,5 L-10,6 L-9,6 L-9,7 L1,7 L1,2 L0,2 Z " fill="#F5F5F5" transform="translate(66,74)" data-index="242" style="opacity: 1;"></path>
<path d="M0,0 L1,0 L1,17 L18,17 L18,0 L19,0 L19,17 L36,17 L36,0 L37,0 L37,17 L54,17 L54,0 L55,0 L55,17 L71,17 L71,18 L55,18 L55,35 L54,35 L54,18 L37,18 L37,35 L36,35 L36,18 L19,18 L19,34 L18,34 L18,18 L1,18 L1,35 L0,35 L0,18 L-12,18 L-12,17 L0,17 Z " fill="#9E9E9E" transform="translate(651,127)" data-index="243"></path>
<path d="M0,0 L1,0 L1,17 L18,17 L18,18 L1,18 L1,35 L18,35 L18,37 L1,37 L1,53 L5,53 L5,54 L4,54 L4,57 L3,57 L3,60 L2,60 L2,63 L1,63 L1,65 L0,65 L0,55 L-16,55 L-16,53 L0,53 L0,37 L-16,37 L-16,35 L0,35 L0,18 L-16,18 L-16,17 L0,17 Z " fill="#B3B3B3" transform="translate(828,19)" data-index="244"></path>
<path d="M0,0 L15,0 L15,16 L12,16 L12,14 L0,14 Z " fill="#FDFDFD" transform="translate(972,56)" data-index="245"></path>
<path d="M0,0 L36,0 L36,19 L19,19 L19,33 L17,33 L17,19 L1,19 L1,17 L0,17 Z M1,1 L1,17 L17,17 L17,1 Z M19,1 L19,17 L34,17 L34,1 Z " fill="#CACACA" transform="translate(900,37)" data-index="246"></path>
<path d="M0,0 L11,0 L11,8 L12,8 L12,11 L13,11 L13,12 L14,12 L14,14 L15,14 L15,15 L16,15 L16,17 L0,17 Z " fill="#FAFAFA" transform="translate(635,91)" data-index="247"></path>
<path d="M0,0 L1,0 L1,16 L17,16 L17,18 L1,18 L1,34 L17,34 L17,35 L1,35 L1,52 L-9,52 L-9,51 L-8,51 L-8,50 L-7,50 L-7,49 L-6,49 L-6,46 L-4,46 L-4,36 L-6,36 L-6,34 L0,34 L0,18 L-7,18 L-7,19 L-8,19 L-8,17 L-9,17 L-9,16 L0,16 Z " fill="#A6A6A7" transform="translate(73,56)" data-index="248" style="visibility: visible; opacity: 1;"></path>
<path d="M0,0 L15,0 L15,16 L12,16 L12,15 L10,15 L10,14 L6,14 L6,13 L0,13 Z " fill="#FBFBFB" transform="translate(476,56)" data-index="249"></path>
<path d="M0,0 L12,0 L12,17 L0,17 Z " fill="#FAFAFA" transform="translate(144,91)" data-index="250" style="opacity: 1; visibility: visible;"></path>
<path d="M0,0 L1,0 L1,17 L18,17 L18,0 L19,0 L19,17 L36,17 L36,0 L37,0 L37,17 L53,17 L53,0 L54,0 L54,17 L57,17 L57,18 L54,18 L54,35 L53,35 L53,18 L37,18 L37,35 L36,35 L36,18 L19,18 L19,34 L18,34 L18,18 L1,18 L1,35 L0,35 L0,18 L-10,18 L-10,17 L0,17 Z " fill="#A5A5A5" transform="translate(385,127)" data-index="251"></path>
<path d="M0,0 L1,0 L1,17 L17,17 L17,19 L1,19 L1,35 L10,35 L10,36 L8,36 L8,38 L7,38 L7,40 L6,40 L6,48 L7,48 L7,49 L8,49 L8,51 L9,51 L9,52 L10,52 L10,53 L0,53 L0,19 L-1,19 L-1,17 L0,17 Z " fill="#BCBCBB" transform="translate(581,37)" data-index="252"></path>
<path d="M0,0 L15,0 L15,16 L4,16 L4,8 L3,8 L3,6 L2,6 L2,5 L1,5 L1,3 L0,3 Z " fill="#FAFAFA" transform="translate(494,74)" data-index="253"></path>
<path d="M0,0 L9,0 L9,5 L10,5 L10,8 L11,8 L11,10 L12,10 L12,12 L13,12 L13,13 L14,13 L14,14 L15,14 L15,15 L16,15 L16,17 L0,17 Z " fill="#F8F8F8" transform="translate(386,91)" data-index="254"></path>
<path d="M0,0 L3,0 L3,5 L16,5 L16,16 L0,16 Z " fill="#FBFBFB" transform="translate(759,74)" data-index="255"></path>
<path d="M0,0 L11,0 L11,17 L0,17 Z " fill="#FDFDFD" transform="translate(923,91)" data-index="256"></path>
<path d="M0,0 L11,0 L11,17 L0,17 Z " fill="#FEFEFE" transform="translate(511,91)" data-index="257"></path>
<path d="M0,0 L13,0 L13,5 L12,5 L12,8 L11,8 L11,9 L10,9 L10,12 L9,12 L9,15 L8,15 L8,17 L0,17 Z " fill="#FAFAFA" transform="translate(812,91)" data-index="258"></path>
<path d="M0,0 L15,0 L15,3 L16,3 L16,6 L14,6 L14,23 L15,23 L15,24 L-22,24 L-22,6 L-21,6 L-21,23 L-5,23 L-5,7 L-4,7 L-4,23 L13,23 L13,6 L-1,6 L-1,4 L0,4 Z " fill="#979797" transform="translate(833,103)" data-index="259"></path>
<path d="M0,0 L1,0 L1,1 L2,1 L2,2 L3,2 L3,3 L1,3 L1,20 L18,20 L18,5 L8,5 L8,4 L19,4 L19,20 L36,20 L36,3 L25,3 L25,2 L26,2 L26,1 L27,1 L27,2 L53,2 L53,3 L37,3 L37,20 L53,20 L53,21 L-17,21 L-17,20 L0,20 L0,3 L-16,3 L-16,2 L0,2 Z " fill="#898989" transform="translate(37,106)" data-index="260" style="visibility: visible; opacity: 1;"></path>
<path d="M0,0 L14,0 L14,15 L5,15 L5,13 L4,13 L4,11 L3,11 L3,10 L2,10 L2,7 L1,7 L1,5 L0,5 Z " fill="#FAFAFA" transform="translate(850,74)" data-index="261"></path>
<path d="M0,0 L3,0 L3,16 L-12,16 L-12,5 L0,5 Z " fill="#FCFCFC" transform="translate(984,74)" data-index="262"></path>
<path d="M0,0 L1,0 L1,16 L18,16 L18,0 L19,0 L19,16 L27,16 L27,17 L25,17 L25,19 L24,19 L24,20 L23,20 L23,21 L22,21 L22,23 L21,23 L21,25 L20,25 L20,27 L19,27 L19,34 L18,34 L18,18 L2,18 L2,34 L0,34 L0,18 L-8,18 L-8,19 L-9,19 L-9,17 L-11,17 L-11,16 L0,16 Z " fill="#C7C7C5" transform="translate(438,56)" data-index="263"></path>
<path d="M0,0 L9,0 L9,1 L11,1 L11,2 L12,2 L12,3 L13,3 L13,9 L12,9 L12,10 L10,10 L10,12 L11,12 L11,14 L12,14 L12,15 L13,15 L13,17 L14,17 L14,19 L12,19 L12,18 L11,18 L11,16 L10,16 L10,15 L9,15 L9,13 L8,13 L8,11 L3,11 L3,19 L0,19 Z " fill="#2F2F2F" transform="translate(901,207)" data-index="264"></path>
<path d="M0,0 L11,0 L11,16 L0,16 Z " fill="#FDFDFD" transform="translate(923,74)" data-index="265"></path>
<path d="M0,0 L11,0 L11,16 L0,16 Z " fill="#FDFDFD" transform="translate(511,74)" data-index="266"></path>
<path d="M0,0 L8,0 L8,16 L-8,16 L-8,10 L-6,10 L-6,9 L-3,9 L-3,8 L1,8 L1,7 L2,7 L2,4 L1,4 L1,2 L0,2 Z " fill="#F8F8F8" transform="translate(430,74)" data-index="267"></path>
<path d="M0,0 L11,0 L11,16 L0,16 Z " fill="#FDFDFD" transform="translate(144,74)" data-index="268" style="opacity: 1; visibility: visible;"></path>
<path d="M0,0 L9,0 L9,1 L11,1 L11,2 L12,2 L12,3 L13,3 L13,8 L12,8 L12,9 L11,9 L11,10 L10,10 L10,13 L11,13 L11,14 L12,14 L12,16 L13,16 L13,18 L11,18 L11,17 L10,17 L10,15 L9,15 L9,13 L8,13 L8,12 L3,12 L3,19 L0,19 Z " fill="#424242" transform="translate(758,207)" data-index="269"></path>
<path d="M0,0 L9,0 L9,1 L11,1 L11,2 L12,2 L12,3 L13,3 L13,8 L12,8 L12,9 L11,9 L11,10 L10,10 L10,13 L11,13 L11,14 L12,14 L12,16 L13,16 L13,18 L11,18 L11,17 L10,17 L10,15 L9,15 L9,13 L8,13 L8,12 L3,12 L3,19 L0,19 Z " fill="#424242" transform="translate(522,207)" data-index="270"></path>
<path d="M0,0 L1,0 L1,17 L18,17 L18,0 L19,0 L19,17 L36,17 L36,0 L37,0 L37,17 L53,17 L53,18 L37,18 L37,35 L36,35 L36,18 L19,18 L19,35 L18,35 L18,18 L1,18 L1,35 L0,35 L0,18 L-17,18 L-17,17 L0,17 Z " fill="#999999" transform="translate(37,127)" data-index="271" style="opacity: 1;"></path>
<path d="M0,0 L12,0 L12,4 L11,4 L11,7 L10,7 L10,9 L9,9 L9,13 L8,13 L8,14 L7,14 L7,17 L6,17 L6,18 L0,18 Z " fill="#F0F0F0" transform="translate(91,72)" data-index="272" style="opacity: 1; visibility: visible;"></path>
<path d="M0,0 L3,0 L3,1 L4,1 L4,3 L5,3 L5,5 L6,5 L6,6 L7,6 L7,8 L8,8 L8,9 L9,9 L9,11 L10,11 L10,12 L11,12 L11,13 L12,13 L12,15 L13,15 L13,16 L14,16 L14,18 L4,18 L4,35 L3,35 L3,18 L0,18 Z " fill="#C1C1C0" transform="translate(896,91)" data-index="273"></path>
<path d="M0,0 L10,0 L10,17 L0,17 Z " fill="#FEFEFE" transform="translate(169,91)" data-index="274"></path>
<path d="M0,0 L2,0 L2,1 L3,1 L3,2 L4,2 L4,3 L6,3 L6,4 L8,4 L8,5 L11,5 L11,6 L17,6 L17,7 L18,7 L18,8 L20,8 L20,9 L21,9 L21,12 L20,12 L20,14 L18,14 L18,15 L11,15 L11,13 L10,13 L10,12 L9,12 L9,11 L8,11 L8,9 L0,9 L0,3 L-17,3 L-17,2 L0,2 Z " fill="#E4E4E4" transform="translate(37,88)" data-index="275" style="visibility: visible; opacity: 1;"></path>
<path d="M0,0 L1,0 L1,16 L5,16 L5,17 L4,17 L4,18 L3,18 L3,19 L2,19 L2,30 L3,30 L3,31 L4,31 L4,32 L5,32 L5,34 L-1,34 L-1,18 L-17,18 L-17,34 L-19,34 L-19,18 L-22,18 L-22,23 L-23,23 L-23,14 L-22,14 L-22,16 L0,16 Z " fill="#C3C2C2" transform="translate(1006,56)" data-index="276"></path>
<path d="M0,0 L11,0 L11,2 L12,2 L12,3 L13,3 L13,4 L14,4 L14,5 L15,5 L15,6 L17,6 L17,13 L8,13 L8,12 L6,12 L6,11 L5,11 L5,10 L4,10 L4,9 L3,9 L3,8 L2,8 L2,6 L1,6 L1,5 L0,5 Z " fill="#0A0909" transform="translate(1006,97)" data-index="277"></path>
<path d="M0,0 L13,0 L13,2 L12,2 L12,4 L11,4 L11,6 L10,6 L10,8 L9,8 L9,16 L0,16 Z " fill="#F9F9F9" transform="translate(386,74)" data-index="278"></path>
<path d="M0,0 L10,0 L10,16 L0,16 Z " fill="#FCFCFC" transform="translate(659,74)" data-index="279"></path>
<path d="M0,0 L10,0 L10,16 L0,16 Z " fill="#FDFDFD" transform="translate(635,74)" data-index="280"></path>
<path d="M0,0 L10,0 L10,16 L0,16 Z " fill="#FDFDFD" transform="translate(169,74)" data-index="281" style="visibility: visible; opacity: 1;"></path>
<path d="M0,0 L5,0 L5,1 L7,1 L7,2 L8,2 L8,3 L9,3 L9,4 L10,4 L10,12 L-5,12 L-5,4 L-4,4 L-4,3 L-3,3 L-3,2 L-2,2 L-2,1 L0,1 Z " fill="#F9F9F9" transform="translate(475,78)" data-index="282"></path>
<path d="M0,0 L16,0 L16,17 L5,17 L5,16 L6,16 L6,15 L7,15 L7,13 L8,13 L8,12 L9,12 L9,10 L10,10 L10,8 L11,8 L11,6 L10,6 L10,5 L7,5 L7,4 L4,4 L4,3 L2,3 L2,2 L0,2 Z " fill="#F7F7F7" transform="translate(422,91)" data-index="283"></path>
<path d="M0,0 L6,0 L6,1 L9,1 L9,2 L11,2 L11,3 L13,3 L13,4 L15,4 L15,7 L16,7 L16,8 L17,8 L17,12 L13,12 L13,13 L6,13 L6,12 L5,12 L5,10 L4,10 L4,8 L1,8 L1,7 L0,7 Z " fill="#141414" transform="translate(1023,69)" data-index="284"></path>
<path d="M0,0 L1,0 L1,17 L18,17 L18,0 L19,0 L19,17 L36,17 L36,0 L37,0 L37,35 L36,35 L36,18 L19,18 L19,34 L18,34 L18,18 L1,18 L1,35 L0,35 L0,18 L-16,18 L-16,17 L0,17 Z " fill="#999999" transform="translate(775,127)" data-index="285"></path>
<path d="M0,0 L1,0 L1,17 L17,17 L17,0 L18,0 L18,17 L35,17 L35,18 L18,18 L18,35 L35,35 L35,37 L18,37 L18,51 L17,51 L17,18 L1,18 L1,19 L0,19 L0,18 L-17,18 L-17,17 L0,17 Z " fill="#ABABAB" transform="translate(634,19)" data-index="286"></path>
<path d="M0,0 L17,0 L17,9 L0,9 Z " fill="#F9FAFA" transform="translate(723,91)" data-index="287"></path>
<path d="M0,0 L1,0 L1,17 L18,17 L18,18 L1,18 L1,35 L18,35 L18,37 L1,37 L1,51 L0,51 L0,37 L-16,37 L-16,35 L0,35 L0,18 L-16,18 L-16,17 L0,17 Z " fill="#AEAEAE" transform="translate(775,19)" data-index="288"></path>
<path d="M0,0 L3,0 L3,7 L2,7 L2,16 L0,16 L0,15 L-1,15 L-1,14 L-3,14 L-3,13 L-4,13 L-4,12 L-6,12 L-6,11 L-9,11 L-9,10 L-15,10 L-15,9 L-18,9 L-18,8 L-20,8 L-20,7 L-21,7 L-21,4 L-20,4 L-20,3 L-19,3 L-19,2 L-15,2 L-15,3 L-12,3 L-12,5 L-11,5 L-11,7 L-10,7 L-10,8 L-3,8 L-3,7 L1,7 L1,3 L0,3 Z " fill="#F2F2F2" transform="translate(1039,74)" data-index="289"></path>
<path d="M0,0 L6,0 L6,1 L7,1 L7,2 L8,2 L8,3 L9,3 L9,12 L-4,12 L-4,4 L-3,4 L-3,3 L-2,3 L-2,2 L-1,2 L-1,1 L0,1 Z " fill="#F8F8F8" transform="translate(412,78)" data-index="290"></path>
<path d="M0,0 L1,0 L1,17 L18,17 L18,0 L19,0 L19,17 L36,17 L36,0 L37,0 L37,17 L40,17 L40,18 L37,18 L37,51 L33,51 L33,50 L36,50 L36,18 L19,18 L19,20 L18,20 L18,18 L1,18 L1,20 L0,20 L0,18 L-9,18 L-9,17 L0,17 Z " fill="#A7A7A7" transform="translate(385,19)" data-index="291"></path>
<path d="M0,0 L1,0 L1,16 L18,16 L18,18 L1,18 L1,34 L2,34 L2,35 L1,35 L1,36 L0,36 L0,37 L-1,37 L-1,36 L-17,36 L-17,34 L0,34 L0,18 L-16,18 L-16,16 L0,16 Z " fill="#B8B7B7" transform="translate(37,38)" data-index="292"></path>
<path d="M0,0 L3,0 L3,3 L4,3 L4,6 L5,6 L5,8 L6,8 L6,11 L7,11 L7,13 L8,13 L8,16 L9,16 L9,19 L6,19 L6,14 L-3,14 L-3,15 L-4,15 L-4,18 L-5,18 L-5,19 L-7,19 L-7,16 L-6,16 L-6,14 L-5,14 L-5,11 L-4,11 L-4,9 L-3,9 L-3,6 L-2,6 L-2,4 L-1,4 L-1,1 L0,1 Z " fill="#2E2E2E" transform="translate(555,207)" data-index="293"></path>
<path d="M0,0 L1,0 L1,20 L-1,20 L-1,18 L-2,18 L-2,17 L-3,17 L-3,15 L-4,15 L-4,14 L-5,14 L-5,12 L-6,12 L-6,11 L-7,11 L-7,10 L-8,10 L-8,8 L-9,8 L-9,6 L-10,6 L-10,5 L-11,5 L-11,3 L-12,3 L-12,2 L0,2 Z " fill="#CFCFCF" transform="translate(548,70)" data-index="294"></path>
<path d="M0,0 L10,0 L10,1 L12,1 L12,2 L13,2 L13,3 L14,3 L14,4 L15,4 L15,5 L16,5 L16,13 L15,13 L15,15 L14,15 L14,16 L13,16 L13,17 L11,17 L11,18 L9,18 L9,19 L1,19 L1,18 L0,18 Z M3,2 L3,16 L11,16 L11,15 L12,15 L12,14 L13,14 L13,12 L14,12 L14,6 L13,6 L13,5 L12,5 L12,4 L11,4 L11,3 L9,3 L9,2 Z " fill="#212121" transform="translate(655,207)" data-index="295"></path>
<path d="M0,0 L3,0 L3,2 L4,2 L4,3 L5,3 L5,5 L6,5 L6,6 L7,6 L7,8 L8,8 L8,9 L9,9 L9,10 L10,10 L10,12 L11,12 L11,13 L12,13 L12,0 L14,0 L14,18 L12,18 L12,17 L11,17 L11,16 L10,16 L10,14 L9,14 L9,13 L8,13 L8,11 L7,11 L7,10 L6,10 L6,9 L5,9 L5,7 L4,7 L4,6 L3,6 L3,19 L0,19 Z " fill="#3D3D3D" transform="translate(275,207)" data-index="296"></path>
<path d="M0,0 L3,0 L3,2 L4,2 L4,3 L5,3 L5,5 L6,5 L6,6 L7,6 L7,8 L8,8 L8,9 L9,9 L9,10 L10,10 L10,12 L11,12 L11,13 L12,13 L12,0 L14,0 L14,18 L12,18 L12,17 L11,17 L11,16 L10,16 L10,14 L9,14 L9,13 L8,13 L8,11 L7,11 L7,10 L6,10 L6,9 L5,9 L5,7 L4,7 L4,6 L3,6 L3,19 L0,19 Z " fill="#3D3D3D" transform="translate(138,207)" data-index="297"></path>
<path d="M0,0 L13,0 L13,7 L12,7 L12,9 L11,9 L11,10 L9,10 L9,11 L4,11 L4,10 L2,10 L2,9 L1,9 L1,6 L0,6 Z " fill="#F4F5F4" transform="translate(408,91)" data-index="298"></path>
<path d="M0,0 L7,0 L7,1 L9,1 L9,2 L10,2 L10,3 L11,3 L11,5 L9,5 L9,4 L8,4 L8,3 L6,3 L6,2 L1,2 L1,3 L-1,3 L-1,4 L-2,4 L-2,5 L-3,5 L-3,13 L-2,13 L-2,15 L-1,15 L-1,16 L8,16 L8,15 L9,15 L9,13 L10,13 L10,12 L3,12 L3,10 L12,10 L12,14 L11,14 L11,16 L10,16 L10,17 L8,17 L8,18 L6,18 L6,19 L1,19 L1,18 L-1,18 L-1,17 L-3,17 L-3,16 L-4,16 L-4,14 L-5,14 L-5,12 L-6,12 L-6,5 L-5,5 L-5,4 L-4,4 L-4,3 L-3,3 L-3,2 L-2,2 L-2,1 L0,1 Z " fill="#1F1F1F" transform="translate(222,207)" data-index="299"></path>
<path d="M0,0 L7,0 L7,1 L9,1 L9,2 L10,2 L10,3 L11,3 L11,4 L12,4 L12,5 L13,5 L13,12 L12,12 L12,14 L11,14 L11,15 L10,15 L10,17 L8,17 L8,18 L6,18 L6,19 L1,19 L1,18 L-1,18 L-1,17 L-3,17 L-3,16 L-4,16 L-4,14 L-5,14 L-5,12 L-6,12 L-6,5 L-5,5 L-5,4 L-4,4 L-4,3 L-3,3 L-3,2 L-2,2 L-2,1 L0,1 Z M1,2 L1,3 L-1,3 L-1,4 L-2,4 L-2,5 L-3,5 L-3,6 L-4,6 L-4,12 L-3,12 L-3,13 L-2,13 L-2,15 L0,15 L0,16 L7,16 L7,15 L9,15 L9,13 L10,13 L10,5 L9,5 L9,4 L8,4 L8,3 L5,3 L5,2 Z " fill="#242424" transform="translate(336,207)" data-index="300"></path>
<path d="M0,0 L9,0 L9,1 L12,1 L12,2 L13,2 L13,3 L14,3 L14,4 L15,4 L15,5 L16,5 L16,12 L15,12 L15,14 L14,14 L14,16 L13,16 L13,17 L11,17 L11,18 L9,18 L9,19 L0,19 Z M2,2 L2,16 L10,16 L10,15 L12,15 L12,14 L13,14 L13,5 L12,5 L12,4 L11,4 L11,3 L9,3 L9,2 Z " fill="#272727" transform="translate(168,207)" data-index="301" style="opacity: 1;"></path>
<path d="M0,0 L1,0 L1,16 L18,16 L18,18 L1,18 L1,34 L-3,34 L-3,16 L0,16 Z " fill="#B2B2B2" transform="translate(687,56)" data-index="302"></path>
<path d="M0,0 L2,0 L2,1 L3,1 L3,3 L4,3 L4,5 L5,5 L5,6 L6,6 L6,8 L7,8 L7,9 L8,9 L8,11 L9,11 L9,12 L10,12 L10,14 L11,14 L11,15 L12,15 L12,17 L0,17 Z " fill="#F1F1F1" transform="translate(535,91)" data-index="303"></path>
<path d="M0,0 L1,0 L1,16 L11,16 L11,14 L12,14 L12,35 L1,35 L1,52 L0,52 L0,35 L-14,35 L-14,36 L-15,36 L-15,34 L0,34 Z M1,18 L1,34 L11,34 L11,18 Z " fill="#AEAEAE" transform="translate(634,56)" data-index="304"></path>
<path d="M0,0 L25,0 L25,19 L-10,19 L-10,18 L-8,18 L-8,17 L-7,17 L-7,16 L-6,16 L-6,15 L-5,15 L-5,18 L11,18 L11,1 L0,1 Z M13,1 L13,18 L24,18 L24,1 Z " fill="#B6B6B6" transform="translate(498,90)" data-index="305"></path>
<path d="M0,0 L3,0 L3,1 L4,1 L4,2 L5,2 L5,3 L6,3 L6,8 L5,8 L5,9 L1,9 L1,16 L5,16 L5,17 L1,17 L1,32 L-1,32 L-1,17 L-7,17 L-7,16 L-1,16 L-1,9 L-3,9 L-3,8 L0,8 Z " fill="#8E8E8E" transform="translate(1024,94)" data-index="306"></path>
<path d="M0,0 L7,0 L7,1 L9,1 L9,2 L10,2 L10,3 L11,3 L11,4 L12,4 L12,5 L9,5 L9,4 L8,4 L8,3 L7,3 L7,2 L1,2 L1,3 L-1,3 L-1,4 L-2,4 L-2,5 L-3,5 L-3,13 L-2,13 L-2,14 L-1,14 L-1,15 L0,15 L0,16 L7,16 L7,15 L9,15 L9,13 L12,13 L12,15 L11,15 L11,16 L10,16 L10,17 L8,17 L8,18 L6,18 L6,19 L1,19 L1,18 L-1,18 L-1,17 L-2,17 L-2,16 L-3,16 L-3,15 L-4,15 L-4,14 L-5,14 L-5,12 L-6,12 L-6,6 L-5,6 L-5,4 L-4,4 L-4,3 L-3,3 L-3,2 L-2,2 L-2,1 L0,1 Z " fill="#3B3B3B" transform="translate(820,207)" data-index="307"></path>
<path d="M0,0 L4,0 L4,1 L6,1 L6,2 L7,2 L7,3 L8,3 L8,5 L17,5 L17,12 L16,12 L16,11 L14,11 L14,10 L13,10 L13,9 L10,9 L10,8 L3,8 L3,7 L0,7 L0,6 L-1,6 L-1,5 L-2,5 L-2,2 L-1,2 L-1,1 L0,1 Z " fill="#C7C8C9" transform="translate(600,76)" data-index="308"></path>
<path d="M0,0 L2,0 L2,17 L19,17 L19,18 L2,18 L2,35 L0,35 L0,18 L-16,18 L-16,17 L0,17 Z " fill="#B8B8B8" transform="translate(1041,127)" data-index="309"></path>
<path d="M0,0 L1,0 L1,17 L18,17 L18,0 L19,0 L19,17 L36,17 L36,18 L19,18 L19,34 L18,34 L18,18 L1,18 L1,35 L0,35 Z " fill="#ACACAC" transform="translate(881,127)" data-index="310"></path>
<path d="M0,0 L10,0 L10,10 L9,10 L9,11 L3,11 L3,10 L2,10 L2,9 L1,9 L1,8 L0,8 Z " fill="#F4F4F4" transform="translate(659,91)" data-index="311"></path>
<path d="M0,0 L11,0 L11,2 L3,2 L3,8 L11,8 L11,10 L3,10 L3,16 L11,16 L11,18 L0,18 Z " fill="#262626" transform="translate(929,207)" data-index="312"></path>
<path d="M0,0 L11,0 L11,2 L3,2 L3,8 L11,8 L11,10 L3,10 L3,16 L11,16 L11,18 L0,18 Z " fill="#262626" transform="translate(249,207)" data-index="313"></path>
<path d="M0,0 L1,0 L1,17 L18,17 L18,0 L19,0 L19,50 L18,50 L18,18 L1,18 L1,19 L0,19 L0,18 L-16,18 L-16,17 L0,17 Z " fill="#9A9A9A" transform="translate(37,19)" data-index="314" style="opacity: 1;"></path>
<path d="M0,0 L4,0 L4,1 L6,1 L6,2 L9,2 L9,3 L12,3 L12,4 L13,4 L13,5 L14,5 L14,6 L15,6 L15,10 L14,10 L14,11 L13,11 L13,12 L6,12 L6,11 L5,11 L5,10 L4,10 L4,8 L3,8 L3,6 L4,6 L4,2 L3,2 L3,1 L0,1 Z " fill="#D3D3D3" transform="translate(594,91)" data-index="315"></path>
<path d="M0,0 L7,0 L7,1 L9,1 L9,2 L10,2 L10,3 L11,3 L11,5 L9,5 L9,4 L8,4 L8,3 L6,3 L6,2 L1,2 L1,3 L-1,3 L-1,4 L-2,4 L-2,5 L-3,5 L-3,6 L-4,6 L-4,12 L-3,12 L-3,13 L-2,13 L-2,15 L-1,15 L-1,16 L7,16 L7,15 L8,15 L8,14 L9,14 L9,13 L11,13 L11,16 L10,16 L10,17 L8,17 L8,18 L6,18 L6,19 L1,19 L1,18 L-1,18 L-1,17 L-3,17 L-3,16 L-4,16 L-4,15 L-5,15 L-5,12 L-6,12 L-6,5 L-5,5 L-5,4 L-4,4 L-4,3 L-3,3 L-3,2 L-2,2 L-2,1 L0,1 Z " fill="#141414" transform="translate(496,207)" data-index="316"></path>
<path d="M0,0 L11,0 L11,2 L2,2 L2,8 L10,8 L10,10 L2,10 L2,16 L11,16 L11,19 L0,19 Z " fill="#1C1C1C" transform="translate(305,207)" data-index="317"></path>
<path d="M0,0 L6,0 L6,1 L8,1 L8,2 L9,2 L9,5 L7,5 L7,3 L5,3 L5,2 L1,2 L1,3 L0,3 L0,7 L2,7 L2,8 L5,8 L5,9 L7,9 L7,10 L9,10 L9,11 L10,11 L10,16 L9,16 L9,17 L8,17 L8,18 L5,18 L5,19 L1,19 L1,18 L-1,18 L-1,17 L-2,17 L-2,16 L-3,16 L-3,13 L-1,13 L-1,14 L0,14 L0,16 L7,16 L7,15 L8,15 L8,12 L6,12 L6,11 L4,11 L4,10 L2,10 L2,9 L0,9 L0,8 L-2,8 L-2,2 L-1,2 L-1,1 L0,1 Z " fill="#1A1A1A" transform="translate(395,207)" data-index="318"></path>
<path d="M0,0 L8,0 L8,1 L10,1 L10,2 L13,2 L13,3 L17,3 L17,11 L13,11 L13,10 L12,10 L12,9 L11,9 L11,5 L0,5 Z " fill="#F6F6F6" transform="translate(1007,91)" data-index="319"></path>
<path d="M0,0 L5,0 L5,1 L7,1 L7,2 L8,2 L8,3 L9,3 L9,5 L6,5 L6,3 L5,3 L5,2 L1,2 L1,3 L-1,3 L-1,6 L0,6 L0,7 L1,7 L1,8 L4,8 L4,9 L7,9 L7,10 L8,10 L8,11 L9,11 L9,16 L8,16 L8,17 L7,17 L7,18 L5,18 L5,19 L0,19 L0,18 L-1,18 L-1,17 L-2,17 L-2,16 L-3,16 L-3,15 L-4,15 L-4,14 L-3,14 L-3,13 L-2,13 L-2,14 L-1,14 L-1,15 L0,15 L0,16 L6,16 L6,15 L7,15 L7,12 L6,12 L6,11 L3,11 L3,10 L1,10 L1,9 L-1,9 L-1,8 L-2,8 L-2,7 L-3,7 L-3,2 L-2,2 L-2,1 L0,1 Z " fill="#161616" transform="translate(958,207)" data-index="320"></path>
<path d="M0,0 L5,0 L5,1 L7,1 L7,2 L8,2 L8,3 L9,3 L9,5 L6,5 L6,3 L5,3 L5,2 L1,2 L1,3 L-1,3 L-1,6 L0,6 L0,7 L1,7 L1,8 L4,8 L4,9 L7,9 L7,10 L8,10 L8,11 L9,11 L9,16 L8,16 L8,17 L7,17 L7,18 L5,18 L5,19 L0,19 L0,18 L-1,18 L-1,17 L-2,17 L-2,16 L-3,16 L-3,15 L-4,15 L-4,14 L-3,14 L-3,13 L-2,13 L-2,14 L-1,14 L-1,15 L0,15 L0,16 L6,16 L6,15 L7,15 L7,12 L6,12 L6,11 L3,11 L3,10 L1,10 L1,9 L-1,9 L-1,8 L-2,8 L-2,7 L-3,7 L-3,2 L-2,2 L-2,1 L0,1 Z " fill="#1F1F1F" transform="translate(708,207)" data-index="321" style="opacity: 1;"></path>
<path d="M0,0 L10,0 L10,2 L2,2 L2,8 L10,8 L10,10 L2,10 L2,16 L11,16 L11,19 L0,19 Z " fill="#0A0A0A" transform="translate(630,207)" data-index="322"></path>
<path d="M0,0 L1,0 L1,17 L18,17 L18,0 L19,0 L19,17 L29,17 L29,18 L19,18 L19,19 L18,19 L18,18 L1,18 L1,51 L0,51 Z " fill="#909090" transform="translate(161,19)" data-index="323" style="opacity: 1;"></path>
<path d="M0,0 L8,0 L8,17 L5,17 L5,14 L4,14 L4,11 L3,11 L3,9 L2,9 L2,6 L1,6 L1,4 L0,4 Z " fill="#F9F9F9" transform="translate(856,91)" data-index="324"></path>
<path d="M0,0 L6,0 L6,3 L5,3 L5,11 L6,11 L6,12 L7,12 L7,14 L8,14 L8,15 L9,15 L9,16 L0,16 Z " fill="#F5F5F5" transform="translate(582,74)" data-index="325"></path>
<path d="M0,0 L14,0 L14,1 L15,1 L15,6 L5,6 L5,7 L4,7 L4,6 L-1,6 L-1,3 L0,3 Z " fill="#AAAAAA" transform="translate(104,103)" data-index="326" style="opacity: 1;"></path>
<path d="M0,0 L1,0 L1,17 L17,17 L17,0 L18,0 L18,17 L21,17 L21,18 L18,18 L18,35 L17,35 L17,18 L1,18 L1,35 L0,35 L0,18 L-3,18 L-3,17 L0,17 Z " fill="#ACACAC" transform="translate(421,127)" data-index="327"></path>
<path d="M0,0 L2,0 L2,15 L3,15 L3,16 L9,16 L9,15 L11,15 L11,0 L13,0 L13,15 L12,15 L12,17 L11,17 L11,18 L9,18 L9,19 L4,19 L4,18 L2,18 L2,17 L1,17 L1,16 L0,16 Z " fill="#1D1D1D" transform="translate(364,207)" data-index="328"></path>
<path d="M0,0 L2,0 L2,15 L3,15 L3,16 L10,16 L10,15 L11,15 L11,0 L13,0 L13,16 L12,16 L12,17 L11,17 L11,18 L9,18 L9,19 L4,19 L4,18 L2,18 L2,17 L1,17 L1,15 L0,15 Z " fill="#1A1A1A" transform="translate(786,207)" data-index="329" style="opacity: 1;"></path>
<path d="M0,0 L2,0 L2,14 L3,14 L3,15 L4,15 L4,16 L10,16 L10,15 L11,15 L11,14 L12,14 L12,0 L14,0 L14,15 L13,15 L13,16 L12,16 L12,17 L11,17 L11,18 L9,18 L9,19 L5,19 L5,18 L3,18 L3,17 L2,17 L2,16 L1,16 L1,15 L0,15 Z " fill="#252525" transform="translate(872,207)" data-index="330"></path>
<path d="M0,0 L1,0 L1,16 L2,16 L2,17 L18,17 L18,18 L2,18 L2,34 L0,34 L0,18 L-8,18 L-8,19 L-9,19 L-9,17 L-11,17 L-11,16 L0,16 Z " fill="#BFBFBF" transform="translate(438,56)" data-index="331"></path>
<path d="M0,0 L9,0 L9,15 L7,15 L7,13 L6,13 L6,11 L5,11 L5,10 L4,10 L4,8 L3,8 L3,7 L2,7 L2,6 L1,6 L1,4 L0,4 Z " fill="#F4F4F4" transform="translate(901,74)" data-index="332"></path>
<path d="M0,0 L5,0 L5,17 L-4,17 L-4,16 L-3,16 L-3,15 L-2,15 L-2,14 L-1,14 L-1,11 L1,11 L1,1 L0,1 Z " fill="#F4F4F4" transform="translate(68,91)" data-index="333" style="visibility: visible; opacity: 1;"></path>
<path d="M0,0 L1,0 L1,17 L2,17 L2,19 L1,19 L1,35 L11,35 L11,33 L12,33 L12,53 L10,53 L10,52 L11,52 L11,37 L2,37 L2,40 L1,40 L1,38 L0,38 L0,36 L-1,36 L-1,35 L-2,35 L-2,34 L0,34 Z " fill="#B8B8B8" transform="translate(899,37)" data-index="334"></path>
<path d="M0,0 L1,0 L1,16 L18,16 L18,17 L1,17 L1,33 L0,33 L0,17 L-17,17 L-17,34 L-18,34 L-18,16 L0,16 Z " fill="#909090" transform="translate(108,128)" data-index="335" style="opacity: 1;"></path>
<path d="M0,0 L5,0 L5,17 L0,17 Z " fill="#F5F5F5" transform="translate(954,91)" data-index="336"></path>
<path d="M0,0 L5,0 L5,17 L0,17 Z " fill="#FCFCFC" transform="translate(788,91)" data-index="337"></path>
<path d="M0,0 L1,0 L1,20 L13,20 L13,0 L14,0 L14,28 L13,28 L13,29 L12,29 L12,30 L11,30 L11,21 L1,21 L1,27 L0,27 Z " fill="#A5A5A5" transform="translate(658,70)" data-index="338"></path>
<path d="M0,0 L1,0 L1,16 L17,16 L17,18 L-17,18 L-17,16 L0,16 Z " fill="#BEBEBE" transform="translate(634,38)" data-index="339"></path>
<path d="M0,0 L9,0 L9,6 L8,6 L8,8 L7,8 L7,9 L6,9 L6,10 L0,10 Z " fill="#FBFBFB" transform="translate(476,91)" data-index="340"></path>
<path d="M0,0 L11,0 L11,2 L2,2 L2,8 L10,8 L10,10 L3,10 L3,19 L0,19 Z " fill="#2A2A2A" transform="translate(578,207)" data-index="341"></path>
<path d="M0,0 L3,0 L3,17 L-6,17 L-6,16 L-5,16 L-5,15 L-4,15 L-4,13 L-3,13 L-3,12 L-2,12 L-2,10 L-1,10 L-1,8 L0,8 Z " fill="#F2F2F2" transform="translate(684,91)" data-index="342"></path>
<path d="M0,0 L13,0 L13,2 L8,2 L8,19 L5,19 L5,2 L0,2 Z " fill="#323232" transform="translate(845,207)" data-index="343"></path>
<path d="M0,0 L7,0 L7,11 L0,11 Z " fill="#E7E7E7" transform="translate(952,79)" data-index="344"></path>
<path d="M0,0 L1,0 L1,39 L10,39 L10,18 L12,18 L12,19 L13,19 L13,21 L11,21 L11,40 L0,40 Z " fill="#141413" transform="translate(885,70)" data-index="345"></path>
<path d="M0,0 L5,0 L5,1 L6,1 L6,2 L7,2 L7,3 L8,3 L8,4 L9,4 L9,5 L16,5 L16,6 L8,6 L8,8 L3,8 L3,7 L0,7 L0,6 L-1,6 L-1,5 L-2,5 L-2,2 L-1,2 L-1,1 L0,1 Z " fill="#C6C6C5" transform="translate(48,76)" data-index="346" style="visibility: visible; opacity: 1;"></path>
<path d="M0,0 L4,0 L4,18 L0,18 Z " fill="#EBEAEA" transform="translate(706,72)" data-index="347"></path>
<path d="M0,0 L1,0 L1,1 L2,1 L2,2 L3,2 L3,4 L4,4 L4,5 L5,5 L5,7 L6,7 L6,8 L7,8 L7,9 L8,9 L8,11 L9,11 L9,13 L0,13 Z " fill="#EAEAEA" transform="translate(900,95)" data-index="348"></path>
<path d="M0,0 L1,0 L1,17 L18,17 L18,18 L1,18 L1,35 L0,35 L0,18 L-17,18 L-17,17 L0,17 Z " fill="#999999" transform="translate(740,127)" data-index="349"></path>
<path d="M0,0 L2,0 L2,1 L3,1 L3,2 L4,2 L4,4 L5,4 L5,6 L6,6 L6,8 L8,8 L8,7 L9,7 L9,5 L10,5 L10,3 L11,3 L11,2 L12,2 L12,0 L15,0 L15,1 L14,1 L14,3 L13,3 L13,4 L12,4 L12,6 L11,6 L11,8 L10,8 L10,9 L9,9 L9,10 L8,10 L8,19 L6,19 L6,10 L5,10 L5,8 L4,8 L4,7 L3,7 L3,5 L2,5 L2,3 L1,3 L1,2 L0,2 Z " fill="#232323" transform="translate(443,207)" data-index="350"></path>
<path d="M0,0 L1,0 L1,17 L18,17 L18,18 L1,18 L1,35 L0,35 L0,18 L-16,18 L-16,17 L0,17 Z " fill="#979797" transform="translate(143,127)" data-index="351"></path>
<path d="M0,0 L4,0 L4,17 L0,17 Z " fill="#F1F1F1" transform="translate(706,91)" data-index="352"></path>
<path d="M0,0 L1,0 L1,2 L6,2 L6,3 L22,3 L22,4 L6,4 L6,20 L4,20 L4,4 L1,4 L1,9 L0,9 Z " fill="#B6B7B7" transform="translate(983,70)" data-index="353"></path>
<path d="M0,0 L1,0 L1,3 L2,3 L2,5 L3,5 L3,7 L4,7 L4,10 L5,10 L5,13 L-4,13 L-4,11 L-3,11 L-3,8 L-2,8 L-2,5 L-1,5 L-1,2 L0,2 Z " fill="#9D9F9F" transform="translate(111,81)" data-index="354" style="opacity: 1;"></path>
<path d="M0,0 L21,0 L21,1 L20,1 L20,4 L19,4 L19,7 L18,7 L18,10 L17,10 L17,12 L16,12 L16,2 L0,2 Z " fill="#C3C3C2" transform="translate(812,72)" data-index="355"></path>
<path d="M0,0 L7,0 L7,17 L6,17 L6,16 L5,16 L5,12 L4,12 L4,10 L3,10 L3,6 L2,6 L2,4 L1,4 L1,1 L0,1 Z " fill="#E7E7E7" transform="translate(119,72)" data-index="356" style="opacity: 1; visibility: visible;"></path>
<path d="M0,0 L2,0 L2,16 L10,16 L10,19 L0,19 Z " fill="#161616" transform="translate(420,207)" data-index="357"></path>
<path d="M0,0 L1,0 L1,17 L11,17 L11,18 L1,18 L1,35 L0,35 L0,18 L-17,18 L-17,17 L0,17 Z " fill="#979797" transform="translate(179,127)" data-index="358"></path>
<path d="M0,0 L1,0 L1,6 L2,6 L2,24 L0,24 L0,8 L-10,8 L-10,6 L0,6 Z " fill="#BFC0BF" transform="translate(669,66)" data-index="359"></path>
<path d="M0,0 L1,0 L1,12 L-5,12 L-5,4 L-4,4 L-4,3 L-3,3 L-3,2 L-2,2 L-2,1 L0,1 Z " fill="#C8C8C9" transform="translate(475,78)" data-index="360"></path>
<path d="M0,0 L13,0 L13,2 L7,2 L7,19 L5,19 L5,2 L0,2 Z " fill="#151515" transform="translate(731,207)" data-index="361" style="opacity: 1;"></path>
<path d="M0,0 L13,0 L13,2 L8,2 L8,19 L6,19 L6,2 L0,2 Z " fill="#151515" transform="translate(602,207)" data-index="362"></path>
<path d="M0,0 L7,0 L7,1 L8,1 L8,2 L9,2 L9,6 L8,6 L8,7 L0,7 Z " fill="#E1E1E1" transform="translate(760,209)" data-index="363" style="opacity: 1;"></path>
<path d="M0,0 L7,0 L7,1 L8,1 L8,2 L9,2 L9,6 L8,6 L8,7 L0,7 Z " fill="#E1E1E1" transform="translate(524,209)" data-index="364"></path>
<path d="M0,0 L1,0 L1,1 L2,1 L2,4 L3,4 L3,6 L4,6 L4,12 L-3,12 L-3,8 L-2,8 L-2,5 L-1,5 L-1,1 L0,1 Z " fill="#D7D7D7" transform="translate(840,81)" data-index="365"></path>
<path d="M0,0 L3,0 L3,19 L0,19 Z " fill="#4D4D4D" transform="translate(120,207)" data-index="366"></path>
<path d="M0,0 L5,0 L5,11 L0,11 Z " fill="#FAFAFA" transform="translate(788,79)" data-index="367"></path>
<path d="M0,0 L6,0 L6,1 L8,1 L8,6 L7,6 L7,7 L0,7 Z " fill="#EEEEEE" transform="translate(904,209)" data-index="368"></path>
<path d="M0,0 L2,0 L2,5 L13,5 L13,8 L12,8 L12,6 L1,6 L1,11 L2,11 L2,12 L3,12 L3,14 L4,14 L4,15 L5,15 L5,16 L6,16 L6,17 L0,17 Z " fill="#BBBBBB" transform="translate(1005,91)" data-index="369"></path>
<path d="M0,0 L10,0 L10,1 L12,1 L12,2 L3,2 L3,16 L2,16 L2,2 L1,2 L1,18 L0,18 Z " fill="#454545" transform="translate(655,207)" data-index="370"></path>
<path d="M0,0 L3,0 L3,17 L0,17 Z " fill="#D7D7D8" transform="translate(561,91)" data-index="371"></path>
<path d="M0,0 L12,0 L12,4 L-1,4 L-1,2 L0,2 Z " fill="#FDFDFD" transform="translate(834,104)" data-index="372"></path>
<path d="M0,0 L3,0 L3,1 L4,1 L4,2 L5,2 L5,3 L6,3 L6,4 L7,4 L7,11 L6,11 L6,13 L5,13 L5,15 L4,15 L4,16 L2,16 L2,17 L1,17 L1,14 L3,14 L3,13 L4,13 L4,4 L3,4 L3,3 L2,3 L2,2 L0,2 Z " fill="#232323" transform="translate(177,208)" data-index="373"></path>
<path d="M0,0 L3,0 L3,16 L0,16 Z " fill="#F0F0F0" transform="translate(684,74)" data-index="374"></path>
<path d="M0,0 L4,0 L4,1 L7,1 L7,2 L6,2 L6,3 L5,3 L5,7 L7,7 L7,8 L4,8 L4,7 L1,7 L1,6 L-1,6 L-1,5 L-2,5 L-2,2 L-1,2 L-1,1 L0,1 Z " fill="#C3C3C3" transform="translate(1020,76)" data-index="375"></path>
<path d="M0,0 L8,0 L8,1 L10,1 L10,2 L11,2 L11,5 L10,5 L10,4 L9,4 L9,3 L8,3 L8,2 L1,2 L1,9 L2,9 L2,10 L6,10 L6,11 L1,11 L1,18 L0,18 Z " fill="#040404" transform="translate(759,207)" data-index="376" style="opacity: 1;"></path>
<path d="M0,0 L8,0 L8,1 L10,1 L10,2 L11,2 L11,5 L10,5 L10,4 L9,4 L9,3 L8,3 L8,2 L1,2 L1,9 L2,9 L2,10 L6,10 L6,11 L1,11 L1,18 L0,18 Z " fill="#040404" transform="translate(523,207)" data-index="377"></path>
<path d="M0,0 L7,0 L7,1 L9,1 L9,2 L10,2 L10,3 L11,3 L11,5 L9,5 L9,4 L8,4 L8,3 L6,3 L6,2 L1,2 L1,3 L-1,3 L-1,4 L-2,4 L-2,5 L-3,5 L-3,6 L-5,6 L-5,12 L-6,12 L-6,5 L-5,5 L-5,4 L-4,4 L-4,3 L-3,3 L-3,2 L-2,2 L-2,1 L0,1 Z " fill="#1E1E1E" transform="translate(496,207)" data-index="378"></path>
<path d="M0,0 L3,0 L3,17 L-4,17 L-4,16 L-3,16 L-3,15 L-2,15 L-2,14 L-1,14 L-1,12 L0,12 L0,11 L1,11 L1,9 L2,9 L2,3 L1,3 L1,1 L0,1 Z " fill="#CBCBCB" transform="translate(1040,91)" data-index="379"></path>
<path d="M0,0 L5,0 L5,3 L4,3 L4,7 L3,7 L3,10 L2,10 L2,12 L1,12 L1,14 L0,14 Z " fill="#EEEEEE" transform="translate(91,91)" data-index="380"></path>
<path d="M0,0 L1,0 L1,17 L11,17 L11,18 L1,18 L1,19 L0,19 L0,18 L-17,18 L-17,17 L0,17 Z " fill="#9D9D9D" transform="translate(179,19)" data-index="381"></path>
<path d="M0,0 L15,0 L15,3 L16,3 L16,6 L-1,6 L-1,4 L0,4 L0,5 L13,5 L13,1 L1,1 L1,3 L0,3 Z " fill="#8B8B8A" transform="translate(833,103)" data-index="382"></path>
<path d="M0,0 L7,0 L7,9 L5,9 L5,8 L4,8 L4,7 L3,7 L3,6 L2,6 L2,4 L1,4 L1,2 L0,2 Z " fill="#ECECEC" transform="translate(538,74)" data-index="383"></path>
<path d="M0,0 L1,0 L1,3 L31,3 L31,4 L-4,4 L-4,3 L-2,3 L-2,2 L-1,2 L-1,1 L0,1 Z " fill="#888889" transform="translate(492,105)" data-index="384"></path>
<path d="M0,0 L1,0 L1,6 L11,6 L11,9 L0,9 Z " fill="#373737" transform="translate(630,217)" data-index="385"></path>
<path d="M0,0 L7,0 L7,1 L9,1 L9,2 L10,2 L10,3 L11,3 L11,4 L12,4 L12,5 L9,5 L9,4 L8,4 L8,3 L7,3 L7,2 L1,2 L1,3 L-1,3 L-1,4 L-2,4 L-2,5 L-3,5 L-3,6 L-5,6 L-5,4 L-4,4 L-4,3 L-3,3 L-3,2 L-2,2 L-2,1 L0,1 Z " fill="#181818" transform="translate(820,207)" data-index="386"></path>
<path d="M0,0 L2,0 L2,1 L3,1 L3,2 L4,2 L4,3 L1,3 L1,8 L8,8 L8,9 L0,9 L0,3 L-17,3 L-17,2 L0,2 Z " fill="#8C8B8A" transform="translate(37,88)" data-index="387"></path>
<path d="M0,0 L9,0 L9,4 L8,4 L8,6 L7,6 L7,7 L5,7 L5,8 L4,8 L4,7 L-2,7 L-2,6 L5,6 L5,5 L6,5 L6,3 L7,3 L7,2 L0,2 Z " fill="#333333" transform="translate(225,217)" data-index="388"></path>
<path d="M0,0 L2,0 L2,15 L1,15 L1,16 L0,16 L0,17 L-1,17 L-1,18 L-2,18 L-2,15 L-1,15 L-1,14 L0,14 Z " fill="#191919" transform="translate(884,207)" data-index="389"></path>
<path d="M0,0 L2,0 L2,1 L3,1 L3,3 L1,3 L1,22 L-10,22 L-10,21 L0,21 Z " fill="#2C2C2D" transform="translate(895,88)" data-index="390"></path>
<path d="M0,0 L9,0 L9,4 L0,4 Z " fill="#FEFEFE" transform="translate(109,104)" data-index="391" style="opacity: 1; visibility: visible;"></path>
<path d="M0,0 L6,0 L6,1 L8,1 L8,2 L9,2 L9,5 L7,5 L7,3 L5,3 L5,2 L1,2 L1,3 L0,3 L0,6 L-1,6 L-1,8 L-2,8 L-2,2 L-1,2 L-1,1 L0,1 Z " fill="#1E1E1E" transform="translate(395,207)" data-index="392"></path>
<path d="M0,0 L1,0 L1,1 L2,1 L2,2 L3,2 L3,3 L9,3 L9,2 L12,2 L12,3 L11,3 L11,4 L10,4 L10,5 L8,5 L8,6 L3,6 L3,5 L2,5 L2,4 L1,4 L1,3 L0,3 L0,2 L-1,2 L-1,1 L0,1 Z " fill="#323232" transform="translate(955,220)" data-index="393"></path>
<path d="M0,0 L17,0 L17,1 L15,1 L15,2 L14,2 L14,3 L13,3 L13,2 L0,2 Z " fill="#C0C0BF" transform="translate(386,72)" data-index="394"></path>
<path d="M0,0 L1,0 L1,8 L2,8 L2,9 L3,9 L3,10 L4,10 L4,12 L-1,12 L-1,1 L0,1 Z " fill="#BABABA" transform="translate(1007,78)" data-index="395"></path>
<path d="M0,0 L2,0 L2,2 L3,2 L3,3 L4,3 L4,5 L5,5 L5,6 L4,6 L4,7 L3,7 L3,5 L1,5 L1,18 L0,18 Z " fill="#0A0A0A" transform="translate(276,207)" data-index="396"></path>
<path d="M0,0 L2,0 L2,2 L3,2 L3,3 L4,3 L4,5 L5,5 L5,6 L4,6 L4,7 L3,7 L3,5 L1,5 L1,18 L0,18 Z " fill="#0A0A0A" transform="translate(139,207)" data-index="397"></path>
<path d="M0,0 L5,0 L5,1 L7,1 L7,2 L8,2 L8,3 L9,3 L9,5 L6,5 L6,3 L5,3 L5,2 L1,2 L1,3 L-2,3 L-2,7 L-3,7 L-3,2 L-2,2 L-2,1 L0,1 Z " fill="#272727" transform="translate(958,207)" data-index="398"></path>
<path d="M0,0 L7,0 L7,1 L9,1 L9,2 L10,2 L10,3 L11,3 L11,5 L9,5 L9,4 L8,4 L8,3 L6,3 L6,2 L1,2 L1,3 L-3,3 L-3,2 L-2,2 L-2,1 L0,1 Z " fill="#111111" transform="translate(222,207)" data-index="399"></path>
<path d="M0,0 L1,0 L1,1 L2,1 L2,2 L3,2 L3,4 L4,4 L4,5 L5,5 L5,6 L6,6 L6,7 L7,7 L7,8 L0,8 Z " fill="#EEEEEE" transform="translate(458,100)" data-index="400"></path>
<path d="M0,0 L1,0 L1,1 L2,1 L2,2 L3,2 L3,3 L11,3 L11,4 L10,4 L10,5 L8,5 L8,6 L3,6 L3,5 L2,5 L2,4 L1,4 L1,3 L0,3 L0,2 L-1,2 L-1,1 L0,1 Z " fill="#333333" transform="translate(705,220)" data-index="401"></path>
<path d="M0,0 L10,0 L10,3 L0,3 Z " fill="#3B3B3B" transform="translate(420,223)" data-index="402"></path>
<path d="M0,0 L1,0 L1,5 L2,5 L2,8 L3,8 L3,9 L2,9 L2,17 L0,17 Z " fill="#C0BFBD" transform="translate(456,91)" data-index="403"></path>
<path d="M0,0 L4,0 L4,8 L1,8 L1,6 L0,6 Z " fill="#F6F6F6" transform="translate(470,91)" data-index="404"></path>
<path d="M0,0 L1,0 L1,9 L-3,9 L-3,3 L-2,3 L-2,2 L-1,2 L-1,1 L0,1 Z " fill="#FAFAFA" transform="translate(473,81)" data-index="405"></path>
<path d="M0,0 L1,0 L1,4 L5,4 L5,1 L6,1 L6,7 L-1,7 L-1,3 L0,3 Z " fill="#BEBFBF" transform="translate(838,86)" data-index="406"></path>
<path d="M0,0 L2,0 L2,1 L3,1 L3,2 L4,2 L4,3 L5,3 L5,4 L6,4 L6,11 L5,11 L5,5 L4,5 L4,11 L3,11 L3,4 L2,4 L2,3 L1,3 L1,2 L-2,2 L-2,1 L0,1 Z " fill="#474747" transform="translate(343,208)" data-index="407"></path>
<path d="M0,0 L2,0 L2,10 L6,10 L6,11 L1,11 L1,10 L-1,10 L-1,9 L-2,9 L-2,8 L0,8 Z " fill="#BCBCBC" transform="translate(474,91)" data-index="408"></path>
<path d="M0,0 L2,0 L2,3 L1,3 L1,4 L-1,4 L-1,5 L-3,5 L-3,6 L-8,6 L-8,5 L-4,5 L-4,4 L-8,4 L-8,3 L-2,3 L-2,2 L-1,2 L-1,1 L0,1 Z " fill="#3B3B3B" transform="translate(505,220)" data-index="409"></path>
<path d="M0,0 L2,0 L2,2 L3,2 L3,3 L4,3 L4,6 L-2,6 L-2,4 L-1,4 L-1,1 L0,1 Z " fill="#D7D7D7" transform="translate(555,213)" data-index="410" style="opacity: 1;"></path>
<path d="M0,0 L3,0 L3,1 L4,1 L4,6 L3,6 L3,7 L0,7 Z " fill="#F2F2F2" transform="translate(1025,95)" data-index="411"></path>
<path d="M0,0 L1,0 L1,3 L2,3 L2,9 L-2,9 L-2,5 L-1,5 L-1,2 L0,2 Z " fill="#E5E6E6" transform="translate(111,81)" data-index="412"></path>
<path d="M0,0 L4,0 L4,1 L3,1 L3,4 L2,4 L2,5 L1,5 L1,16 L0,16 Z " fill="#CFCFCF" transform="translate(1005,74)" data-index="413"></path>
<path d="M0,0 L8,0 L8,4 L5,4 L5,3 L2,3 L2,2 L1,2 L1,1 L0,1 Z " fill="#F5F5F5" transform="translate(608,82)" data-index="414"></path>
<path d="M0,0 L2,0 L2,1 L3,1 L3,3 L9,3 L9,4 L5,4 L5,5 L8,5 L8,6 L4,6 L4,5 L2,5 L2,4 L1,4 L1,3 L0,3 Z " fill="#494949" transform="translate(392,220)" data-index="415"></path>
<path d="M0,0 L3,0 L3,5 L2,5 L2,4 L0,4 L0,7 L-1,7 L-1,8 L-2,8 L-2,4 L-1,4 L-1,1 L0,1 Z " fill="#1E1E1E" transform="translate(555,207)" data-index="416"></path>
<path d="M0,0 L1,0 L1,3 L2,3 L2,5 L3,5 L3,8 L2,8 L2,9 L1,9 L1,6 L0,6 L0,5 L-1,5 L-1,3 L-3,3 L-3,1 L-1,1 L-1,2 L0,2 Z " fill="#464646" transform="translate(558,210)" data-index="417"></path>
<path d="M0,0 L3,0 L3,2 L2,2 L2,3 L1,3 L1,4 L-1,4 L-1,5 L-7,5 L-7,4 L-4,4 L-4,3 L-2,3 L-2,2 L0,2 Z " fill="#222222" transform="translate(829,220)" data-index="418" style="opacity: 1;"></path>
<path d="M0,0 L2,0 L2,1 L1,1 L1,2 L0,2 L0,3 L-1,3 L-1,4 L-2,4 L-2,5 L-3,5 L-3,6 L-4,6 L-4,7 L-5,7 L-5,8 L-6,8 L-6,9 L-7,9 L-7,7 L-6,7 L-6,5 L-5,5 L-5,4 L-4,4 L-4,3 L-3,3 L-3,2 L-1,2 L-1,1 L0,1 Z " fill="#222120" transform="translate(404,71)" data-index="419"></path>
<path d="M0,0 L1,0 L1,4 L0,4 L0,5 L-2,5 L-2,6 L-7,6 L-7,5 L-3,5 L-3,4 L-6,4 L-6,3 L-2,3 L-2,2 L0,2 Z " fill="#363636" transform="translate(375,220)" data-index="420"></path>
<path d="M0,0 L1,0 L1,8 L0,8 L0,9 L-1,9 L-1,11 L-3,11 L-3,12 L-4,12 L-4,9 L-2,9 L-2,7 L-1,7 L-1,6 L0,6 Z " fill="#161616" transform="translate(347,213)" data-index="421"></path>
<path d="M0,0 L7,0 L7,2 L1,2 L1,3 L-3,3 L-3,2 L-2,2 L-2,1 L0,1 Z " fill="#0F0F0F" transform="translate(336,207)" data-index="422"></path>
<path d="M0,0 L7,0 L7,2 L6,2 L6,3 L1,3 L1,2 L0,2 Z " fill="#383838" transform="translate(336,223)" data-index="423"></path>
<path d="M0,0 L1,0 L1,7 L2,7 L2,8 L1,8 L1,10 L0,10 L0,11 L-2,11 L-2,12 L-3,12 L-3,9 L-1,9 L-1,8 L0,8 Z " fill="#444444" transform="translate(181,213)" data-index="424"></path>
<path d="M0,0 L2,0 L2,2 L3,2 L3,3 L4,3 L4,4 L5,4 L5,6 L6,6 L6,7 L5,7 L5,8 L4,8 L4,7 L3,7 L3,5 L2,5 L2,4 L1,4 L1,3 L0,3 Z " fill="#242424" transform="translate(280,213)" data-index="425"></path>
<path d="M0,0 L2,0 L2,2 L3,2 L3,3 L4,3 L4,4 L5,4 L5,6 L6,6 L6,7 L5,7 L5,8 L4,8 L4,7 L3,7 L3,5 L2,5 L2,4 L1,4 L1,3 L0,3 Z " fill="#242424" transform="translate(143,213)" data-index="426"></path>
<path d="M0,0 L1,0 L1,1 L2,1 L2,2 L7,2 L7,3 L4,3 L4,4 L8,4 L8,5 L3,5 L3,4 L1,4 L1,3 L0,3 Z " fill="#333333" transform="translate(787,221)" data-index="427"></path>
<path d="M0,0 L3,0 L3,1 L2,1 L2,2 L1,2 L1,9 L0,9 L0,3 L-1,3 L-1,6 L-2,6 L-2,2 L-1,2 L-1,1 L0,1 Z " fill="#545454" transform="translate(218,210)" data-index="428"></path>
<path d="M0,0 L3,0 L3,1 L2,1 L2,3 L1,3 L1,4 L0,4 L0,6 L-1,6 L-1,8 L-2,8 L-2,3 L-1,3 L-1,2 L0,2 Z " fill="#292929" transform="translate(455,207)" data-index="429"></path>
<path d="M0,0 L3,0 L3,7 L1,7 L1,3 L0,3 Z " fill="#DDDDDD" transform="translate(1039,74)" data-index="430"></path>
</svg>