<?xml version="1.0" encoding="UTF-8"?>
<svg version="1.1" xmlns="http://www.w3.org/2000/svg" width="1080" height="251">
<path d="M0,0 L1080,0 L1080,251 L0,251 Z M254,18 L254,19 L246,19 L246,20 L243,20 L243,21 L240,21 L240,22 L238,22 L238,23 L236,23 L236,24 L234,24 L234,25 L232,25 L232,26 L231,26 L231,27 L229,27 L229,28 L228,28 L228,29 L227,29 L227,30 L226,30 L226,31 L225,31 L225,32 L224,32 L224,33 L223,33 L223,34 L222,34 L222,35 L221,35 L221,36 L220,36 L220,38 L219,38 L219,39 L218,39 L218,41 L217,41 L217,43 L216,43 L216,44 L215,44 L215,46 L214,46 L214,48 L213,48 L213,52 L212,52 L212,150 L213,150 L213,149 L214,149 L214,148 L215,148 L215,147 L216,147 L216,146 L217,146 L217,145 L218,145 L218,144 L219,144 L219,143 L220,143 L220,142 L221,142 L221,141 L222,141 L222,140 L223,140 L223,139 L224,139 L224,138 L225,138 L225,137 L226,137 L226,136 L227,136 L227,135 L228,135 L228,134 L229,134 L229,133 L230,133 L230,56 L231,56 L231,54 L232,54 L232,52 L233,52 L233,50 L234,50 L234,48 L235,48 L235,47 L236,47 L236,46 L237,46 L237,45 L238,45 L238,44 L239,44 L239,43 L240,43 L240,42 L242,42 L242,41 L243,41 L243,40 L245,40 L245,39 L248,39 L248,38 L252,38 L252,37 L325,37 L325,36 L326,36 L326,35 L327,35 L327,34 L328,34 L328,33 L329,33 L329,32 L330,32 L330,31 L331,31 L331,30 L332,30 L332,29 L333,29 L333,27 L334,27 L334,26 L335,26 L335,25 L336,25 L336,24 L337,24 L337,23 L338,23 L338,22 L339,22 L339,21 L340,21 L340,20 L341,20 L341,19 L342,19 L342,18 Z M37,19 L37,36 L21,36 L21,37 L37,37 L37,54 L21,54 L21,56 L37,56 L37,72 L20,72 L20,74 L36,74 L36,77 L35,77 L35,84 L36,84 L36,86 L37,86 L37,90 L20,90 L20,91 L37,91 L37,97 L34,97 L34,102 L35,102 L35,104 L36,104 L36,105 L37,105 L37,108 L21,108 L21,109 L37,109 L37,126 L20,126 L20,127 L37,127 L37,144 L20,144 L20,145 L37,145 L37,162 L38,162 L38,145 L55,145 L55,162 L56,162 L56,145 L73,145 L73,162 L74,162 L74,145 L90,145 L90,162 L91,162 L91,145 L108,145 L108,161 L109,161 L109,145 L126,145 L126,162 L127,162 L127,145 L143,145 L143,162 L144,162 L144,145 L161,145 L161,161 L162,161 L162,145 L179,145 L179,162 L180,162 L180,145 L190,145 L190,144 L180,144 L180,127 L190,127 L190,126 L180,126 L180,109 L190,109 L190,108 L180,108 L180,91 L190,91 L190,90 L180,90 L180,74 L190,74 L190,72 L180,72 L180,56 L190,56 L190,54 L180,54 L180,37 L190,37 L190,36 L180,36 L180,19 L179,19 L179,36 L162,36 L162,19 L161,19 L161,36 L144,36 L144,19 L143,19 L143,36 L127,36 L127,19 L126,19 L126,36 L109,36 L109,19 L108,19 L108,36 L91,36 L91,19 L90,19 L90,36 L74,36 L74,19 L73,19 L73,36 L56,36 L56,19 L55,19 L55,36 L38,36 L38,19 Z M385,19 L385,36 L376,36 L376,37 L385,37 L385,54 L375,54 L375,56 L385,56 L385,72 L375,72 L375,74 L385,74 L385,90 L375,90 L375,91 L385,91 L385,108 L375,108 L375,109 L385,109 L385,126 L375,126 L375,127 L385,127 L385,144 L375,144 L375,145 L385,145 L385,162 L386,162 L386,145 L403,145 L403,161 L404,161 L404,145 L421,145 L421,162 L422,162 L422,145 L438,145 L438,162 L439,162 L439,145 L456,145 L456,162 L458,162 L458,145 L474,145 L474,162 L476,162 L476,145 L491,145 L491,162 L493,162 L493,145 L509,145 L509,161 L511,161 L511,145 L527,145 L527,162 L529,162 L529,146 L544,146 L544,163 L546,163 L546,145 L563,145 L563,161 L564,161 L564,145 L581,145 L581,162 L582,162 L582,145 L598,145 L598,162 L599,162 L599,145 L616,145 L616,161 L617,161 L617,145 L634,145 L634,162 L635,162 L635,145 L651,145 L651,162 L652,162 L652,145 L669,145 L669,161 L670,161 L670,145 L687,145 L687,162 L688,162 L688,145 L705,145 L705,162 L706,162 L706,145 L722,145 L722,162 L723,162 L723,145 L740,145 L740,162 L741,162 L741,145 L758,145 L758,162 L759,162 L759,145 L775,145 L775,162 L776,162 L776,145 L793,145 L793,161 L794,161 L794,145 L811,145 L811,162 L812,162 L812,145 L828,145 L828,162 L829,162 L829,145 L846,145 L846,161 L847,161 L847,145 L864,145 L864,162 L865,162 L865,145 L881,145 L881,162 L882,162 L882,145 L899,145 L899,161 L900,161 L900,145 L917,145 L917,162 L918,162 L918,145 L934,145 L934,162 L936,162 L936,145 L952,145 L952,162 L954,162 L954,145 L970,145 L970,162 L972,162 L972,145 L987,145 L987,162 L989,162 L989,145 L1005,145 L1005,162 L1007,162 L1007,145 L1023,145 L1023,162 L1025,162 L1025,145 L1041,145 L1041,162 L1043,162 L1043,145 L1060,145 L1060,144 L1043,144 L1043,127 L1059,127 L1059,126 L1043,126 L1043,109 L1059,109 L1059,108 L1043,108 L1043,91 L1060,91 L1060,90 L1043,90 L1043,74 L1060,74 L1060,72 L1043,72 L1043,56 L1059,56 L1059,54 L1043,54 L1043,37 L1059,37 L1059,36 L1043,36 L1043,19 L1041,19 L1041,36 L1025,36 L1025,19 L1023,19 L1023,36 L1007,36 L1007,19 L1005,19 L1005,36 L989,36 L989,19 L987,19 L987,36 L972,36 L972,19 L970,19 L970,36 L954,36 L954,19 L952,19 L952,36 L936,36 L936,19 L934,19 L934,36 L918,36 L918,19 L917,19 L917,36 L901,36 L901,19 L899,19 L899,36 L882,36 L882,19 L881,19 L881,36 L865,36 L865,19 L864,19 L864,36 L847,36 L847,19 L846,19 L846,36 L829,36 L829,19 L828,19 L828,36 L812,36 L812,19 L811,19 L811,36 L794,36 L794,19 L793,19 L793,36 L776,36 L776,19 L775,19 L775,36 L759,36 L759,19 L758,19 L758,36 L741,36 L741,19 L740,19 L740,36 L723,36 L723,19 L722,19 L722,36 L706,36 L706,19 L705,19 L705,36 L688,36 L688,19 L687,19 L687,36 L670,36 L670,19 L669,19 L669,36 L652,36 L652,19 L651,19 L651,36 L635,36 L635,19 L634,19 L634,36 L617,36 L617,19 L616,19 L616,36 L599,36 L599,19 L598,19 L598,36 L582,36 L582,19 L580,19 L580,36 L564,36 L564,19 L562,19 L562,36 L546,36 L546,19 L544,19 L544,36 L529,36 L529,19 L527,19 L527,36 L511,36 L511,19 L509,19 L509,36 L493,36 L493,19 L491,19 L491,36 L476,36 L476,19 L474,19 L474,36 L458,36 L458,19 L456,19 L456,36 L440,36 L440,19 L438,19 L438,36 L422,36 L422,19 L421,19 L421,36 L404,36 L404,19 L403,19 L403,36 L386,36 L386,19 Z M353,40 L353,41 L352,41 L352,42 L351,42 L351,43 L350,43 L350,44 L349,44 L349,45 L348,45 L348,46 L347,46 L347,47 L346,47 L346,48 L345,48 L345,49 L344,49 L344,50 L343,50 L343,51 L342,51 L342,52 L341,52 L341,53 L340,53 L340,54 L339,54 L339,55 L338,55 L338,56 L337,56 L337,57 L336,57 L336,120 L335,120 L335,125 L334,125 L334,128 L333,128 L333,130 L332,130 L332,132 L331,132 L331,134 L330,134 L330,135 L329,135 L329,136 L328,136 L328,137 L327,137 L327,138 L326,138 L326,139 L325,139 L325,140 L323,140 L323,141 L320,141 L320,142 L317,142 L317,143 L311,143 L311,144 L249,144 L249,146 L248,146 L248,147 L247,147 L247,148 L246,148 L246,149 L245,149 L245,150 L244,150 L244,151 L243,151 L243,152 L242,152 L242,153 L241,153 L241,154 L240,154 L240,155 L239,155 L239,156 L238,156 L238,157 L237,157 L237,158 L236,158 L236,159 L235,159 L235,160 L234,160 L234,161 L233,161 L233,162 L321,162 L321,161 L325,161 L325,160 L327,160 L327,159 L329,159 L329,158 L330,158 L330,157 L332,157 L332,156 L334,156 L334,155 L335,155 L335,154 L337,154 L337,153 L338,153 L338,152 L339,152 L339,151 L340,151 L340,150 L341,150 L341,149 L342,149 L342,148 L343,148 L343,147 L344,147 L344,146 L345,146 L345,145 L346,145 L346,143 L347,143 L347,141 L348,141 L348,139 L349,139 L349,137 L350,137 L350,135 L351,135 L351,132 L352,132 L352,130 L353,130 L353,126 L354,126 L354,40 Z M271,79 L271,98 L272,98 L272,100 L273,100 L273,101 L275,101 L275,102 L294,102 L294,84 L293,84 L293,81 L292,81 L292,80 L290,80 L290,79 Z M138,207 L138,226 L141,226 L141,213 L142,213 L142,214 L143,214 L143,216 L144,216 L144,217 L145,217 L145,218 L146,218 L146,220 L147,220 L147,221 L148,221 L148,223 L149,223 L149,224 L150,224 L150,225 L152,225 L152,207 L150,207 L150,220 L149,220 L149,219 L148,219 L148,217 L147,217 L147,216 L146,216 L146,215 L145,215 L145,213 L144,213 L144,212 L143,212 L143,210 L142,210 L142,209 L141,209 L141,207 Z M168,207 L168,226 L177,226 L177,225 L179,225 L179,224 L181,224 L181,223 L182,223 L182,221 L183,221 L183,219 L184,219 L184,212 L183,212 L183,211 L182,211 L182,210 L181,210 L181,209 L180,209 L180,208 L177,208 L177,207 Z M222,207 L222,208 L220,208 L220,209 L219,209 L219,210 L218,210 L218,211 L217,211 L217,212 L216,212 L216,219 L217,219 L217,221 L218,221 L218,223 L219,223 L219,224 L221,224 L221,225 L223,225 L223,226 L228,226 L228,225 L230,225 L230,224 L232,224 L232,223 L233,223 L233,221 L234,221 L234,217 L225,217 L225,219 L232,219 L232,220 L231,220 L231,222 L230,222 L230,223 L221,223 L221,222 L220,222 L220,220 L219,220 L219,212 L220,212 L220,211 L221,211 L221,210 L223,210 L223,209 L228,209 L228,210 L230,210 L230,211 L231,211 L231,212 L233,212 L233,210 L232,210 L232,209 L231,209 L231,208 L229,208 L229,207 Z M249,207 L249,225 L260,225 L260,223 L252,223 L252,217 L260,217 L260,215 L252,215 L252,209 L260,209 L260,207 Z M275,207 L275,226 L278,226 L278,213 L279,213 L279,214 L280,214 L280,216 L281,216 L281,217 L282,217 L282,218 L283,218 L283,220 L284,220 L284,221 L285,221 L285,223 L286,223 L286,224 L287,224 L287,225 L289,225 L289,207 L287,207 L287,220 L286,220 L286,219 L285,219 L285,217 L284,217 L284,216 L283,216 L283,215 L282,215 L282,213 L281,213 L281,212 L280,212 L280,210 L279,210 L279,209 L278,209 L278,207 Z M305,207 L305,226 L316,226 L316,223 L307,223 L307,217 L315,217 L315,215 L307,215 L307,209 L316,209 L316,207 Z M336,207 L336,208 L334,208 L334,209 L333,209 L333,210 L332,210 L332,211 L331,211 L331,212 L330,212 L330,219 L331,219 L331,221 L332,221 L332,223 L333,223 L333,224 L335,224 L335,225 L337,225 L337,226 L342,226 L342,225 L344,225 L344,224 L346,224 L346,222 L347,222 L347,221 L348,221 L348,219 L349,219 L349,212 L348,212 L348,211 L347,211 L347,210 L346,210 L346,209 L345,209 L345,208 L343,208 L343,207 Z M364,207 L364,223 L365,223 L365,224 L366,224 L366,225 L368,225 L368,226 L373,226 L373,225 L375,225 L375,224 L376,224 L376,222 L377,222 L377,207 L375,207 L375,222 L373,222 L373,223 L367,223 L367,222 L366,222 L366,207 Z M395,207 L395,208 L394,208 L394,209 L393,209 L393,215 L395,215 L395,216 L397,216 L397,217 L399,217 L399,218 L401,218 L401,219 L403,219 L403,222 L402,222 L402,223 L395,223 L395,221 L394,221 L394,220 L392,220 L392,223 L393,223 L393,224 L394,224 L394,225 L396,225 L396,226 L400,226 L400,225 L403,225 L403,224 L404,224 L404,223 L405,223 L405,218 L404,218 L404,217 L402,217 L402,216 L400,216 L400,215 L397,215 L397,214 L395,214 L395,210 L396,210 L396,209 L400,209 L400,210 L402,210 L402,212 L404,212 L404,209 L403,209 L403,208 L401,208 L401,207 Z M443,207 L443,209 L444,209 L444,210 L445,210 L445,212 L446,212 L446,214 L447,214 L447,215 L448,215 L448,217 L449,217 L449,226 L451,226 L451,217 L452,217 L452,216 L453,216 L453,215 L454,215 L454,213 L455,213 L455,211 L456,211 L456,210 L457,210 L457,208 L458,208 L458,207 L455,207 L455,209 L454,209 L454,210 L453,210 L453,212 L452,212 L452,214 L451,214 L451,215 L449,215 L449,213 L448,213 L448,211 L447,211 L447,209 L446,209 L446,208 L445,208 L445,207 Z M496,207 L496,208 L494,208 L494,209 L493,209 L493,210 L492,210 L492,211 L491,211 L491,212 L490,212 L490,219 L491,219 L491,222 L492,222 L492,223 L493,223 L493,224 L495,224 L495,225 L497,225 L497,226 L502,226 L502,225 L504,225 L504,224 L506,224 L506,223 L507,223 L507,220 L505,220 L505,221 L504,221 L504,222 L503,222 L503,223 L495,223 L495,222 L494,222 L494,220 L493,220 L493,219 L492,219 L492,213 L493,213 L493,212 L494,212 L494,211 L495,211 L495,210 L497,210 L497,209 L502,209 L502,210 L504,210 L504,211 L505,211 L505,212 L507,212 L507,210 L506,210 L506,209 L505,209 L505,208 L503,208 L503,207 Z M522,207 L522,226 L525,226 L525,219 L530,219 L530,220 L531,220 L531,222 L532,222 L532,224 L533,224 L533,225 L535,225 L535,223 L534,223 L534,221 L533,221 L533,220 L532,220 L532,217 L533,217 L533,216 L534,216 L534,215 L535,215 L535,210 L534,210 L534,209 L533,209 L533,208 L531,208 L531,207 Z M555,207 L555,208 L554,208 L554,211 L553,211 L553,213 L552,213 L552,216 L551,216 L551,218 L550,218 L550,221 L549,221 L549,223 L548,223 L548,226 L550,226 L550,225 L551,225 L551,222 L552,222 L552,221 L561,221 L561,226 L564,226 L564,223 L563,223 L563,220 L562,220 L562,218 L561,218 L561,215 L560,215 L560,213 L559,213 L559,210 L558,210 L558,207 Z M578,207 L578,226 L581,226 L581,217 L588,217 L588,215 L580,215 L580,209 L589,209 L589,207 Z M630,207 L630,226 L641,226 L641,223 L632,223 L632,217 L640,217 L640,215 L632,215 L632,209 L640,209 L640,207 Z M655,207 L655,225 L656,225 L656,226 L664,226 L664,225 L666,225 L666,224 L668,224 L668,223 L669,223 L669,222 L670,222 L670,220 L671,220 L671,212 L670,212 L670,211 L669,211 L669,210 L668,210 L668,209 L667,209 L667,208 L665,208 L665,207 Z M708,207 L708,208 L706,208 L706,209 L705,209 L705,214 L706,214 L706,215 L707,215 L707,216 L709,216 L709,217 L711,217 L711,218 L714,218 L714,219 L715,219 L715,222 L714,222 L714,223 L708,223 L708,222 L707,222 L707,221 L706,221 L706,220 L705,220 L705,221 L704,221 L704,222 L705,222 L705,223 L706,223 L706,224 L707,224 L707,225 L708,225 L708,226 L713,226 L713,225 L715,225 L715,224 L716,224 L716,223 L717,223 L717,218 L716,218 L716,217 L715,217 L715,216 L712,216 L712,215 L709,215 L709,214 L708,214 L708,213 L707,213 L707,210 L709,210 L709,209 L713,209 L713,210 L714,210 L714,212 L717,212 L717,210 L716,210 L716,209 L715,209 L715,208 L713,208 L713,207 Z M758,207 L758,226 L761,226 L761,219 L766,219 L766,220 L767,220 L767,222 L768,222 L768,224 L769,224 L769,225 L771,225 L771,223 L770,223 L770,221 L769,221 L769,220 L768,220 L768,217 L769,217 L769,216 L770,216 L770,215 L771,215 L771,210 L770,210 L770,209 L769,209 L769,208 L767,208 L767,207 Z M786,207 L786,222 L787,222 L787,224 L788,224 L788,225 L790,225 L790,226 L795,226 L795,225 L797,225 L797,224 L798,224 L798,223 L799,223 L799,207 L797,207 L797,222 L796,222 L796,223 L789,223 L789,222 L788,222 L788,207 Z M820,207 L820,208 L818,208 L818,209 L817,209 L817,210 L816,210 L816,211 L815,211 L815,213 L814,213 L814,219 L815,219 L815,221 L816,221 L816,222 L817,222 L817,223 L818,223 L818,224 L819,224 L819,225 L821,225 L821,226 L826,226 L826,225 L828,225 L828,224 L830,224 L830,223 L831,223 L831,222 L832,222 L832,220 L829,220 L829,222 L827,222 L827,223 L820,223 L820,222 L819,222 L819,221 L818,221 L818,220 L817,220 L817,212 L818,212 L818,211 L819,211 L819,210 L821,210 L821,209 L827,209 L827,210 L828,210 L828,211 L829,211 L829,212 L832,212 L832,211 L831,211 L831,210 L830,210 L830,209 L829,209 L829,208 L827,208 L827,207 Z M845,207 L845,209 L850,209 L850,226 L853,226 L853,209 L858,209 L858,207 Z M872,207 L872,222 L873,222 L873,223 L874,223 L874,224 L875,224 L875,225 L877,225 L877,226 L881,226 L881,225 L883,225 L883,224 L884,224 L884,223 L885,223 L885,222 L886,222 L886,207 L884,207 L884,221 L883,221 L883,222 L882,222 L882,223 L876,223 L876,222 L875,222 L875,221 L874,221 L874,207 Z M901,207 L901,226 L904,226 L904,218 L909,218 L909,220 L910,220 L910,222 L911,222 L911,223 L912,223 L912,225 L913,225 L913,226 L915,226 L915,224 L914,224 L914,222 L913,222 L913,221 L912,221 L912,219 L911,219 L911,217 L913,217 L913,216 L914,216 L914,210 L913,210 L913,209 L912,209 L912,208 L910,208 L910,207 Z M929,207 L929,225 L940,225 L940,223 L932,223 L932,217 L940,217 L940,215 L932,215 L932,209 L940,209 L940,207 Z M958,207 L958,208 L956,208 L956,209 L955,209 L955,214 L956,214 L956,215 L957,215 L957,216 L959,216 L959,217 L961,217 L961,218 L964,218 L964,219 L965,219 L965,222 L964,222 L964,223 L958,223 L958,222 L957,222 L957,221 L956,221 L956,220 L955,220 L955,221 L954,221 L954,222 L955,222 L955,223 L956,223 L956,224 L957,224 L957,225 L958,225 L958,226 L963,226 L963,225 L965,225 L965,224 L966,224 L966,223 L967,223 L967,218 L966,218 L966,217 L965,217 L965,216 L962,216 L962,215 L959,215 L959,214 L958,214 L958,213 L957,213 L957,210 L959,210 L959,209 L963,209 L963,210 L964,210 L964,212 L967,212 L967,210 L966,210 L966,209 L965,209 L965,208 L963,208 L963,207 Z " fill="#FDFDFC" transform="translate(0,0)"/>
<path d="M0,0 L88,0 L88,1 L87,1 L87,2 L86,2 L86,3 L85,3 L85,4 L84,4 L84,5 L83,5 L83,6 L82,6 L82,7 L81,7 L81,8 L80,8 L80,9 L79,9 L79,11 L78,11 L78,12 L77,12 L77,13 L76,13 L76,14 L75,14 L75,15 L74,15 L74,16 L73,16 L73,17 L72,17 L72,18 L71,18 L71,19 L-2,19 L-2,20 L-6,20 L-6,21 L-9,21 L-9,22 L-11,22 L-11,23 L-12,23 L-12,24 L-14,24 L-14,25 L-15,25 L-15,26 L-16,26 L-16,27 L-17,27 L-17,28 L-18,28 L-18,29 L-19,29 L-19,30 L-20,30 L-20,32 L-21,32 L-21,34 L-22,34 L-22,36 L-23,36 L-23,38 L-24,38 L-24,115 L-25,115 L-25,116 L-26,116 L-26,117 L-27,117 L-27,118 L-28,118 L-28,119 L-29,119 L-29,120 L-30,120 L-30,121 L-31,121 L-31,122 L-32,122 L-32,123 L-33,123 L-33,124 L-34,124 L-34,125 L-35,125 L-35,126 L-36,126 L-36,127 L-37,127 L-37,128 L-38,128 L-38,129 L-39,129 L-39,130 L-40,130 L-40,131 L-41,131 L-41,132 L-42,132 L-42,34 L-41,34 L-41,30 L-40,30 L-40,28 L-39,28 L-39,26 L-38,26 L-38,25 L-37,25 L-37,23 L-36,23 L-36,21 L-35,21 L-35,20 L-34,20 L-34,18 L-33,18 L-33,17 L-32,17 L-32,16 L-31,16 L-31,15 L-30,15 L-30,14 L-29,14 L-29,13 L-28,13 L-28,12 L-27,12 L-27,11 L-26,11 L-26,10 L-25,10 L-25,9 L-23,9 L-23,8 L-22,8 L-22,7 L-20,7 L-20,6 L-18,6 L-18,5 L-16,5 L-16,4 L-14,4 L-14,3 L-11,3 L-11,2 L-8,2 L-8,1 L0,1 Z " fill="#FEBE03" transform="translate(254,18)"/>
<path d="M0,0 L1,0 L1,86 L0,86 L0,90 L-1,90 L-1,92 L-2,92 L-2,95 L-3,95 L-3,97 L-4,97 L-4,99 L-5,99 L-5,101 L-6,101 L-6,103 L-7,103 L-7,105 L-8,105 L-8,106 L-9,106 L-9,107 L-10,107 L-10,108 L-11,108 L-11,109 L-12,109 L-12,110 L-13,110 L-13,111 L-14,111 L-14,112 L-15,112 L-15,113 L-16,113 L-16,114 L-18,114 L-18,115 L-19,115 L-19,116 L-21,116 L-21,117 L-23,117 L-23,118 L-24,118 L-24,119 L-26,119 L-26,120 L-28,120 L-28,121 L-32,121 L-32,122 L-120,122 L-120,121 L-119,121 L-119,120 L-118,120 L-118,119 L-117,119 L-117,118 L-116,118 L-116,117 L-115,117 L-115,116 L-114,116 L-114,115 L-113,115 L-113,114 L-112,114 L-112,113 L-111,113 L-111,112 L-110,112 L-110,111 L-109,111 L-109,110 L-108,110 L-108,109 L-107,109 L-107,108 L-106,108 L-106,107 L-105,107 L-105,106 L-104,106 L-104,104 L-42,104 L-42,103 L-36,103 L-36,102 L-33,102 L-33,101 L-30,101 L-30,100 L-28,100 L-28,99 L-27,99 L-27,98 L-26,98 L-26,97 L-25,97 L-25,96 L-24,96 L-24,95 L-23,95 L-23,94 L-22,94 L-22,92 L-21,92 L-21,90 L-20,90 L-20,88 L-19,88 L-19,85 L-18,85 L-18,80 L-17,80 L-17,17 L-16,17 L-16,16 L-15,16 L-15,15 L-14,15 L-14,14 L-13,14 L-13,13 L-12,13 L-12,12 L-11,12 L-11,11 L-10,11 L-10,10 L-9,10 L-9,9 L-8,9 L-8,8 L-7,8 L-7,7 L-6,7 L-6,6 L-5,6 L-5,5 L-4,5 L-4,4 L-3,4 L-3,3 L-2,3 L-2,2 L-1,2 L-1,1 L0,1 Z " fill="#FEBE03" transform="translate(353,40)"/>
<path d="M0,0 L12,0 L12,2 L13,2 L13,3 L14,3 L14,5 L15,5 L15,6 L16,6 L16,8 L17,8 L17,10 L18,10 L18,11 L19,11 L19,12 L20,12 L20,14 L21,14 L21,15 L22,15 L22,17 L23,17 L23,18 L24,18 L24,20 L26,20 L26,0 L37,0 L37,40 L26,40 L26,39 L25,39 L25,37 L24,37 L24,36 L23,36 L23,35 L22,35 L22,33 L21,33 L21,32 L20,32 L20,30 L19,30 L19,29 L18,29 L18,27 L17,27 L17,26 L16,26 L16,24 L15,24 L15,22 L14,22 L14,21 L13,21 L13,19 L11,19 L11,40 L0,40 Z " fill="#040404" transform="translate(523,70)"/>
<path d="M0,0 L11,0 L11,2 L12,2 L12,3 L13,3 L13,5 L14,5 L14,7 L15,7 L15,8 L16,8 L16,10 L17,10 L17,11 L18,11 L18,12 L19,12 L19,14 L20,14 L20,15 L21,15 L21,17 L22,17 L22,19 L23,19 L23,20 L25,20 L25,0 L36,0 L36,40 L25,40 L25,39 L24,39 L24,37 L23,37 L23,36 L22,36 L22,34 L21,34 L21,33 L20,33 L20,32 L19,32 L19,30 L18,30 L18,29 L17,29 L17,27 L16,27 L16,26 L15,26 L15,24 L14,24 L14,22 L13,22 L13,21 L12,21 L12,19 L11,19 L11,18 L9,18 L9,39 L0,39 Z " fill="#030303" transform="translate(886,70)"/>
<path d="M0,0 L10,0 L10,1 L14,1 L14,2 L16,2 L16,3 L18,3 L18,4 L20,4 L20,5 L21,5 L21,7 L22,7 L22,8 L23,8 L23,10 L24,10 L24,11 L25,11 L25,13 L26,13 L26,27 L25,27 L25,30 L24,30 L24,32 L23,32 L23,34 L22,34 L22,35 L21,35 L21,36 L20,36 L20,37 L19,37 L19,38 L18,38 L18,39 L16,39 L16,40 L14,40 L14,41 L11,41 L11,42 L0,42 L0,41 L-3,41 L-3,40 L-5,40 L-5,39 L-6,39 L-6,38 L-8,38 L-8,37 L-9,37 L-9,36 L-10,36 L-10,35 L-11,35 L-11,33 L-12,33 L-12,32 L-13,32 L-13,30 L-14,30 L-14,27 L-15,27 L-15,14 L-14,14 L-14,12 L-13,12 L-13,10 L-12,10 L-12,8 L-11,8 L-11,7 L-10,7 L-10,6 L-9,6 L-9,4 L-7,4 L-7,3 L-5,3 L-5,2 L-3,2 L-3,1 L0,1 Z M3,9 L3,10 L1,10 L1,11 L0,11 L0,12 L-1,12 L-1,13 L-2,13 L-2,17 L-3,17 L-3,26 L-2,26 L-2,28 L-1,28 L-1,30 L0,30 L0,31 L1,31 L1,32 L3,32 L3,33 L8,33 L8,32 L10,32 L10,31 L11,31 L11,30 L12,30 L12,28 L13,28 L13,25 L14,25 L14,14 L13,14 L13,13 L12,13 L12,12 L11,12 L11,11 L10,11 L10,10 L8,10 L8,9 Z " fill="#080808" transform="translate(472,69)"/>
<path d="M0,0 L15,0 L15,3 L16,3 L16,6 L17,6 L17,9 L18,9 L18,11 L19,11 L19,14 L20,14 L20,19 L21,19 L21,20 L22,20 L22,23 L23,23 L23,25 L24,25 L24,27 L25,27 L25,30 L26,30 L26,32 L27,32 L27,35 L28,35 L28,38 L29,38 L29,40 L16,40 L16,36 L15,36 L15,33 L0,33 L0,37 L-1,37 L-1,40 L-13,40 L-13,36 L-12,36 L-12,33 L-11,33 L-11,30 L-10,30 L-10,29 L-9,29 L-9,26 L-8,26 L-8,23 L-7,23 L-7,20 L-6,20 L-6,16 L-5,16 L-5,14 L-4,14 L-4,12 L-3,12 L-3,9 L-2,9 L-2,6 L-1,6 L-1,3 L0,3 Z " fill="#141414" transform="translate(833,70)"/>
<path d="M0,0 L12,0 L12,27 L13,27 L13,29 L14,29 L14,30 L15,30 L15,31 L16,31 L16,32 L22,32 L22,31 L23,31 L23,30 L24,30 L24,29 L25,29 L25,28 L26,28 L26,0 L37,0 L37,31 L36,31 L36,33 L35,33 L35,34 L34,34 L34,36 L33,36 L33,37 L31,37 L31,38 L30,38 L30,39 L28,39 L28,40 L10,40 L10,39 L8,39 L8,38 L7,38 L7,37 L5,37 L5,36 L4,36 L4,35 L3,35 L3,33 L2,33 L2,32 L1,32 L1,29 L0,29 Z " fill="#050505" transform="translate(646,70)"/>
<path d="M0,0 L15,0 L15,3 L16,3 L16,6 L17,6 L17,8 L18,8 L18,12 L19,12 L19,14 L20,14 L20,18 L21,18 L21,20 L22,20 L22,23 L23,23 L23,25 L24,25 L24,28 L25,28 L25,31 L26,31 L26,34 L27,34 L27,37 L28,37 L28,40 L16,40 L16,39 L15,39 L15,34 L14,34 L14,33 L0,33 L0,36 L-1,36 L-1,40 L-14,40 L-14,38 L-13,38 L-13,37 L-12,37 L-12,33 L-11,33 L-11,31 L-10,31 L-10,28 L-9,28 L-9,24 L-8,24 L-8,23 L-7,23 L-7,19 L-6,19 L-6,16 L-5,16 L-5,15 L-4,15 L-4,11 L-3,11 L-3,9 L-2,9 L-2,6 L-1,6 L-1,2 L0,2 Z M7,11 L7,13 L6,13 L6,16 L5,16 L5,19 L4,19 L4,22 L3,22 L3,24 L12,24 L12,21 L11,21 L11,18 L10,18 L10,16 L9,16 L9,14 L8,14 L8,11 Z " fill="#080808" transform="translate(104,70)"/>
<path d="M0,0 L11,0 L11,1 L15,1 L15,2 L17,2 L17,3 L19,3 L19,4 L20,4 L20,6 L21,6 L21,7 L22,7 L22,12 L12,12 L12,11 L11,11 L11,10 L10,10 L10,9 L9,9 L9,8 L8,8 L8,7 L3,7 L3,8 L2,8 L2,9 L1,9 L1,12 L2,12 L2,13 L3,13 L3,14 L6,14 L6,15 L13,15 L13,16 L16,16 L16,17 L17,17 L17,18 L19,18 L19,19 L21,19 L21,20 L22,20 L22,23 L24,23 L24,33 L22,33 L22,36 L21,36 L21,37 L20,37 L20,38 L18,38 L18,39 L17,39 L17,40 L15,40 L15,41 L-3,41 L-3,40 L-5,40 L-5,39 L-6,39 L-6,38 L-7,38 L-7,37 L-8,37 L-8,36 L-9,36 L-9,35 L-10,35 L-10,33 L-11,33 L-11,28 L0,28 L0,30 L1,30 L1,31 L2,31 L2,32 L3,32 L3,34 L10,34 L10,33 L12,33 L12,31 L13,31 L13,28 L12,28 L12,27 L10,27 L10,26 L9,26 L9,25 L3,25 L3,24 L0,24 L0,23 L-2,23 L-2,22 L-4,22 L-4,21 L-5,21 L-5,20 L-6,20 L-6,19 L-8,19 L-8,17 L-9,17 L-9,15 L-10,15 L-10,8 L-9,8 L-9,6 L-8,6 L-8,5 L-7,5 L-7,4 L-6,4 L-6,3 L-5,3 L-5,2 L-3,2 L-3,1 L0,1 Z " fill="#080807" transform="translate(45,69)"/>
<path d="M0,0 L11,0 L11,1 L15,1 L15,2 L17,2 L17,3 L18,3 L18,4 L20,4 L20,6 L21,6 L21,7 L22,7 L22,12 L11,12 L11,10 L10,10 L10,9 L9,9 L9,8 L7,8 L7,7 L3,7 L3,8 L2,8 L2,9 L1,9 L1,12 L2,12 L2,13 L3,13 L3,14 L6,14 L6,15 L13,15 L13,16 L16,16 L16,17 L17,17 L17,18 L19,18 L19,19 L20,19 L20,20 L21,20 L21,21 L22,21 L22,23 L23,23 L23,25 L24,25 L24,31 L23,31 L23,33 L22,33 L22,35 L21,35 L21,36 L20,36 L20,38 L18,38 L18,39 L17,39 L17,40 L15,40 L15,41 L-3,41 L-3,40 L-5,40 L-5,39 L-6,39 L-6,38 L-7,38 L-7,37 L-8,37 L-8,36 L-9,36 L-9,35 L-10,35 L-10,33 L-11,33 L-11,28 L-7,28 L-7,27 L0,27 L0,30 L1,30 L1,32 L2,32 L2,33 L3,33 L3,34 L10,34 L10,33 L11,33 L11,32 L12,32 L12,28 L11,28 L11,27 L10,27 L10,26 L9,26 L9,25 L6,25 L6,24 L3,24 L3,23 L1,23 L1,22 L-4,22 L-4,21 L-6,21 L-6,20 L-7,20 L-7,19 L-8,19 L-8,17 L-9,17 L-9,16 L-10,16 L-10,8 L-9,8 L-9,6 L-8,6 L-8,4 L-6,4 L-6,3 L-5,3 L-5,2 L-3,2 L-3,1 L0,1 Z " fill="#070708" transform="translate(597,69)"/>
<path d="M0,0 L9,0 L9,1 L14,1 L14,2 L16,2 L16,3 L18,3 L18,4 L20,4 L20,6 L21,6 L21,7 L22,7 L22,9 L23,9 L23,12 L22,12 L22,13 L18,13 L18,14 L13,14 L13,12 L11,12 L11,11 L10,11 L10,10 L9,10 L9,9 L3,9 L3,10 L2,10 L2,11 L1,11 L1,12 L0,12 L0,13 L-1,13 L-1,15 L-2,15 L-2,26 L-1,26 L-1,28 L0,28 L0,31 L1,31 L1,32 L3,32 L3,33 L8,33 L8,32 L10,32 L10,31 L11,31 L11,29 L13,29 L13,25 L17,25 L17,26 L20,26 L20,27 L23,27 L23,28 L24,28 L24,30 L23,30 L23,32 L22,32 L22,34 L21,34 L21,35 L20,35 L20,37 L19,37 L19,38 L17,38 L17,39 L16,39 L16,40 L14,40 L14,41 L-3,41 L-3,40 L-5,40 L-5,39 L-6,39 L-6,38 L-7,38 L-7,37 L-8,37 L-8,36 L-9,36 L-9,35 L-10,35 L-10,34 L-11,34 L-11,32 L-12,32 L-12,30 L-13,30 L-13,11 L-12,11 L-12,9 L-11,9 L-11,7 L-10,7 L-10,6 L-9,6 L-9,5 L-8,5 L-8,4 L-6,4 L-6,3 L-5,3 L-5,2 L-2,2 L-2,1 L0,1 Z " fill="#070707" transform="translate(409,69)"/>
<path d="M0,0 L37,0 L37,9 L24,9 L24,38 L25,38 L25,40 L12,40 L12,9 L0,9 Z " fill="#070605" transform="translate(763,70)"/>
<path d="M0,0 L36,0 L36,9 L24,9 L24,40 L12,40 L12,9 L0,9 Z " fill="#040405" transform="translate(947,70)"/>
<path d="M0,0 L2,0 L2,17 L18,17 L18,0 L20,0 L20,17 L36,17 L36,0 L90,0 L90,17 L89,17 L89,19 L72,19 L72,35 L71,35 L71,19 L55,19 L55,35 L53,35 L53,19 L38,19 L38,33 L36,33 L36,19 L20,19 L20,35 L31,35 L31,33 L32,33 L32,53 L31,53 L31,37 L20,37 L20,53 L18,53 L18,37 L3,37 L3,39 L2,39 L2,37 L1,37 L1,36 L-1,36 L-1,35 L0,35 L0,18 L-15,18 L-15,17 L0,17 Z M38,1 L38,17 L53,17 L53,1 Z M55,1 L55,17 L71,17 L71,1 Z M73,1 L73,17 L89,17 L89,1 Z M2,19 L2,35 L18,35 L18,19 Z " fill="#D4D4D4" transform="translate(491,37)"/>
<path d="M0,0 L12,0 L12,30 L31,30 L31,40 L0,40 Z " fill="#060606" transform="translate(710,70)"/>
<path d="M0,0 L6,0 L6,7 L3,7 L3,8 L2,8 L2,9 L1,9 L1,12 L2,12 L2,13 L4,13 L4,14 L7,14 L7,15 L13,15 L13,16 L16,16 L16,17 L18,17 L18,18 L19,18 L19,19 L21,19 L21,20 L22,20 L22,21 L23,21 L23,23 L24,23 L24,25 L25,25 L25,31 L24,31 L24,33 L23,33 L23,34 L22,34 L22,36 L21,36 L21,37 L20,37 L20,38 L18,38 L18,39 L17,39 L17,40 L15,40 L15,41 L8,41 L8,34 L12,34 L12,33 L13,33 L13,28 L12,28 L12,27 L11,27 L11,26 L10,26 L10,25 L3,25 L3,24 L0,24 L0,23 L-2,23 L-2,22 L-4,22 L-4,21 L-5,21 L-5,20 L-6,20 L-6,19 L-7,19 L-7,18 L-8,18 L-8,17 L-9,17 L-9,6 L-8,6 L-8,5 L-7,5 L-7,4 L-6,4 L-6,3 L-4,3 L-4,2 L-3,2 L-3,1 L0,1 Z " fill="#0B0B0B" transform="translate(1017,69)"/>
<path d="M0,0 L35,0 L35,17 L-1,17 L-1,1 L0,1 Z " fill="#F7F7F7" transform="translate(423,109)"/>
<path d="M0,0 L35,0 L35,17 L0,17 Z " fill="#F8F8F8" transform="translate(972,109)"/>
<path d="M0,0 L17,0 L17,33 L13,33 L13,35 L0,35 Z " fill="#FAFAFA" transform="translate(91,37)"/>
<path d="M0,0 L17,0 L17,35 L10,35 L10,33 L0,33 Z " fill="#FAFAFA" transform="translate(109,37)"/>
<path d="M0,0 L18,0 L18,1 L2,1 L2,17 L18,17 L18,19 L2,19 L2,35 L3,35 L3,33 L4,33 L4,72 L2,72 L2,89 L0,89 L0,72 L-16,72 L-16,89 L-17,89 L-17,72 L-19,72 L-19,71 L-17,71 L-17,54 L-25,54 L-25,56 L-26,56 L-26,53 L-27,53 L-27,52 L-28,52 L-28,48 L-27,48 L-27,50 L-26,50 L-26,52 L-17,52 L-17,37 L-31,37 L-31,39 L-32,39 L-32,36 L-33,36 L-33,35 L0,35 L0,19 L-16,19 L-16,17 L0,17 Z M-16,37 L-16,53 L0,53 L0,37 Z M-16,54 L-16,71 L0,71 L0,54 Z M-33,89 L-17,89 L-17,90 L-33,90 Z " fill="#BABABA" transform="translate(881,37)"/>
<path d="M0,0 L2,0 L2,17 L18,17 L18,0 L20,0 L20,17 L36,17 L36,18 L20,18 L20,35 L36,35 L36,37 L20,37 L20,53 L37,53 L37,55 L20,55 L20,71 L37,71 L37,72 L20,72 L20,89 L36,89 L36,90 L20,90 L20,107 L18,107 L18,90 L11,90 L11,89 L12,89 L12,88 L14,88 L14,87 L15,87 L15,86 L16,86 L16,84 L17,84 L17,83 L18,83 L18,81 L19,81 L19,75 L18,75 L18,73 L17,73 L17,71 L18,71 L18,62 L19,62 L19,55 L16,55 L16,57 L15,57 L15,54 L13,54 L13,53 L18,53 L18,37 L2,37 L2,50 L0,50 L0,36 L-16,36 L-16,35 L0,35 L0,18 L-1,18 L-1,17 L0,17 Z M2,18 L2,35 L18,35 L18,18 Z " fill="#BDBDBD" transform="translate(1023,19)"/>
<path d="M0,0 L19,0 L19,1 L21,1 L21,2 L22,2 L22,5 L23,5 L23,23 L4,23 L4,22 L2,22 L2,21 L1,21 L1,19 L0,19 Z " fill="#FE0101" transform="translate(271,79)"/>
<path d="M0,0 L12,0 L12,40 L0,40 Z " fill="#090909" transform="translate(156,70)"/>
<path d="M0,0 L2,0 L2,17 L18,17 L18,0 L20,0 L20,17 L35,17 L35,0 L37,0 L37,17 L53,17 L53,0 L55,0 L55,18 L71,18 L71,19 L54,19 L54,35 L53,35 L53,19 L37,19 L37,35 L35,35 L35,19 L20,19 L20,33 L18,33 L18,19 L2,19 L2,33 L0,33 L0,19 L-16,19 L-16,17 L0,17 Z " fill="#C6C6C6" transform="translate(952,37)"/>
<path d="M0,0 L14,0 L14,1 L20,1 L20,17 L0,17 Z " fill="#F3F3F3" transform="translate(509,109)"/>
<path d="M0,0 L7,0 L7,1 L19,1 L19,0 L20,0 L20,17 L0,17 Z " fill="#F3F3F3" transform="translate(952,109)"/>
<path d="M0,0 L11,0 L11,1 L19,1 L19,17 L0,17 Z " fill="#F6F6F6" transform="translate(900,109)"/>
<path d="M0,0 L18,0 L18,17 L34,17 L34,0 L36,0 L36,17 L52,17 L52,0 L54,0 L54,18 L69,18 L69,19 L54,19 L54,32 L52,32 L52,19 L36,19 L36,35 L35,35 L35,19 L18,19 L18,35 L17,35 L17,19 L0,19 Z M1,1 L1,17 L16,17 L16,1 Z " fill="#C9C9C9" transform="translate(422,37)"/>
<path d="M0,0 L17,0 L17,18 L0,18 Z " fill="#F6F6F7" transform="translate(723,72)"/>
<path d="M0,0 L7,0 L7,17 L-12,17 L-12,2 L-3,2 L-3,1 L0,1 Z " fill="#D4D4D4" transform="translate(486,109)"/>
<path d="M0,0 L14,0 L14,1 L17,1 L17,2 L18,2 L18,17 L0,17 Z " fill="#F7F7F7" transform="translate(580,109)"/>
<path d="M0,0 L1,0 L1,2 L18,2 L18,20 L2,20 L2,19 L1,19 L1,11 L3,11 L3,6 L2,6 L2,5 L1,5 L1,3 L-1,3 L-1,2 L-2,2 L-2,1 L0,1 Z " fill="#B5B6B6" transform="translate(616,70)"/>
<path d="M0,0 L1,0 L1,2 L11,2 L11,1 L12,1 L12,2 L22,2 L22,4 L12,4 L12,20 L22,20 L22,21 L12,21 L12,38 L22,38 L22,39 L12,39 L12,56 L22,56 L22,57 L12,57 L12,74 L22,74 L22,75 L12,75 L12,92 L11,92 L11,75 L-6,75 L-6,91 L-7,91 L-7,56 L11,56 L11,39 L0,39 Z M1,4 L1,20 L11,20 L11,4 Z M1,21 L1,38 L11,38 L11,21 Z M-6,57 L-6,74 L11,74 L11,57 Z " fill="#989898" transform="translate(168,70)"/>
<path d="M0,0 L2,0 L2,16 L12,16 L12,14 L13,14 L13,23 L12,23 L12,18 L2,18 L2,34 L25,34 L25,35 L20,35 L20,52 L25,52 L25,53 L-11,53 L-11,54 L-12,54 L-12,14 L-11,14 L-11,16 L0,16 Z M-11,18 L-11,34 L0,34 L0,18 Z M-11,35 L-11,52 L0,52 L0,35 Z M2,35 L2,52 L18,52 L18,35 Z " fill="#AFAFAF" transform="translate(934,56)"/>
<path d="M0,0 L3,0 L3,1 L15,1 L15,0 L18,0 L18,17 L0,17 Z " fill="#F7F7F7" transform="translate(546,109)"/>
<path d="M0,0 L1,0 L1,16 L17,16 L17,0 L18,0 L18,34 L30,34 L30,35 L1,35 L1,52 L26,52 L26,50 L27,50 L27,51 L28,51 L28,52 L29,52 L29,53 L-2,53 L-2,54 L-3,54 L-3,14 L-2,14 L-2,16 L0,16 Z M1,18 L1,34 L17,34 L17,18 Z " fill="#B7B7B7" transform="translate(563,56)"/>
<path d="M0,0 L17,0 L17,17 L0,17 Z " fill="#FCFCFC" transform="translate(900,127)"/>
<path d="M0,0 L17,0 L17,17 L0,17 Z " fill="#FCFCFC" transform="translate(882,127)"/>
<path d="M0,0 L17,0 L17,17 L0,17 Z " fill="#FDFDFD" transform="translate(847,127)"/>
<path d="M0,0 L17,0 L17,17 L0,17 Z " fill="#FDFDFD" transform="translate(829,127)"/>
<path d="M0,0 L17,0 L17,17 L0,17 Z " fill="#FEFEFE" transform="translate(794,127)"/>
<path d="M0,0 L17,0 L17,17 L0,17 Z " fill="#FEFEFE" transform="translate(776,127)"/>
<path d="M0,0 L17,0 L17,17 L0,17 Z " fill="#FEFEFE" transform="translate(741,127)"/>
<path d="M0,0 L17,0 L17,17 L0,17 Z " fill="#FEFEFE" transform="translate(723,127)"/>
<path d="M0,0 L17,0 L17,17 L0,17 Z " fill="#FEFEFE" transform="translate(688,127)"/>
<path d="M0,0 L17,0 L17,17 L0,17 Z " fill="#FDFDFD" transform="translate(670,127)"/>
<path d="M0,0 L17,0 L17,17 L0,17 Z " fill="#FDFDFD" transform="translate(652,127)"/>
<path d="M0,0 L17,0 L17,17 L0,17 Z " fill="#FDFDFD" transform="translate(617,127)"/>
<path d="M0,0 L17,0 L17,17 L0,17 Z " fill="#FDFDFD" transform="translate(599,127)"/>
<path d="M0,0 L17,0 L17,17 L0,17 Z " fill="#FCFCFC" transform="translate(439,127)"/>
<path d="M0,0 L17,0 L17,17 L0,17 Z " fill="#FDFDFD" transform="translate(404,127)"/>
<path d="M0,0 L17,0 L17,17 L0,17 Z " fill="#FDFDFD" transform="translate(386,127)"/>
<path d="M0,0 L17,0 L17,17 L0,17 Z " fill="#FEFEFE" transform="translate(162,127)"/>
<path d="M0,0 L17,0 L17,17 L0,17 Z " fill="#FEFEFE" transform="translate(144,127)"/>
<path d="M0,0 L17,0 L17,17 L0,17 Z " fill="#FEFEFE" transform="translate(109,127)"/>
<path d="M0,0 L17,0 L17,17 L0,17 Z " fill="#FEFEFE" transform="translate(91,127)"/>
<path d="M0,0 L17,0 L17,17 L0,17 Z " fill="#FEFEFE" transform="translate(56,127)"/>
<path d="M0,0 L17,0 L17,17 L0,17 Z " fill="#FEFEFE" transform="translate(38,127)"/>
<path d="M0,0 L17,0 L17,17 L0,17 Z " fill="#FEFEFE" transform="translate(794,109)"/>
<path d="M0,0 L17,0 L17,17 L0,17 Z " fill="#FDFDFD" transform="translate(741,109)"/>
<path d="M0,0 L17,0 L17,17 L0,17 Z " fill="#FDFDFD" transform="translate(688,109)"/>
<path d="M0,0 L17,0 L17,17 L0,17 Z " fill="#FDFDFD" transform="translate(617,109)"/>
<path d="M0,0 L17,0 L17,17 L0,17 Z " fill="#FDFDFD" transform="translate(386,109)"/>
<path d="M0,0 L17,0 L17,17 L0,17 Z " fill="#FEFEFE" transform="translate(794,91)"/>
<path d="M0,0 L17,0 L17,17 L0,17 Z " fill="#FDFDFD" transform="translate(688,91)"/>
<path d="M0,0 L17,0 L17,17 L0,17 Z " fill="#FBFBFB" transform="translate(847,37)"/>
<path d="M0,0 L17,0 L17,17 L0,17 Z " fill="#FBFBFB" transform="translate(829,37)"/>
<path d="M0,0 L17,0 L17,17 L0,17 Z " fill="#FCFCFC" transform="translate(794,37)"/>
<path d="M0,0 L17,0 L17,17 L0,17 Z " fill="#FCFCFC" transform="translate(776,37)"/>
<path d="M0,0 L17,0 L17,17 L0,17 Z " fill="#FCFCFC" transform="translate(741,37)"/>
<path d="M0,0 L17,0 L17,17 L0,17 Z " fill="#FCFCFC" transform="translate(723,37)"/>
<path d="M0,0 L17,0 L17,17 L0,17 Z " fill="#FCFCFC" transform="translate(688,37)"/>
<path d="M0,0 L17,0 L17,17 L0,17 Z " fill="#FCFCFC" transform="translate(670,37)"/>
<path d="M0,0 L17,0 L17,17 L0,17 Z " fill="#FCFCFC" transform="translate(652,37)"/>
<path d="M0,0 L17,0 L17,17 L0,17 Z " fill="#FBFBFB" transform="translate(617,37)"/>
<path d="M0,0 L17,0 L17,17 L0,17 Z " fill="#FBFBFB" transform="translate(599,37)"/>
<path d="M0,0 L17,0 L17,17 L0,17 Z " fill="#FBFBFB" transform="translate(404,37)"/>
<path d="M0,0 L17,0 L17,17 L0,17 Z " fill="#FBFBFB" transform="translate(386,37)"/>
<path d="M0,0 L17,0 L17,17 L0,17 Z " fill="#FDFDFD" transform="translate(162,37)"/>
<path d="M0,0 L17,0 L17,17 L0,17 Z " fill="#FDFDFD" transform="translate(144,37)"/>
<path d="M0,0 L17,0 L17,17 L0,17 Z " fill="#FCFCFC" transform="translate(56,37)"/>
<path d="M0,0 L17,0 L17,17 L0,17 Z " fill="#FCFCFC" transform="translate(38,37)"/>
<path d="M0,0 L14,0 L14,17 L-3,17 L-3,1 L0,1 Z " fill="#FDFDFD" transform="translate(832,109)"/>
<path d="M0,0 L13,0 L13,17 L-4,17 L-4,1 L0,1 Z " fill="#F8F8F8" transform="translate(923,109)"/>
<path d="M0,0 L13,0 L13,17 L-4,17 L-4,1 L0,1 Z " fill="#FCFCFC" transform="translate(674,109)"/>
<path d="M0,0 L13,0 L13,17 L-4,17 L-4,1 L0,1 Z " fill="#FDFDFD" transform="translate(60,109)"/>
<path d="M0,0 L12,0 L12,1 L17,1 L17,17 L0,17 Z " fill="#FEFEFE" transform="translate(144,109)"/>
<path d="M0,0 L11,0 L11,17 L-6,17 L-6,1 L0,1 Z " fill="#FEFEFE" transform="translate(168,109)"/>
<path d="M0,0 L11,0 L11,1 L17,1 L17,17 L0,17 Z " fill="#FEFEFE" transform="translate(109,109)"/>
<path d="M0,0 L17,0 L17,17 L1,17 L1,9 L0,9 Z " fill="#FEFEFE" transform="translate(741,91)"/>
<path d="M0,0 L5,0 L5,17 L-12,17 L-12,1 L0,1 Z " fill="#FEFEFE" transform="translate(788,109)"/>
<path d="M0,0 L5,0 L5,17 L-12,17 L-12,1 L0,1 Z " fill="#FEFEFE" transform="translate(103,109)"/>
<path d="M0,0 L2,0 L2,1 L15,1 L15,0 L17,0 L17,17 L0,17 Z " fill="#FDFDFD" transform="translate(847,109)"/>
<path d="M0,0 L16,0 L16,17 L0,17 Z " fill="#FEFEFE" transform="translate(1025,127)"/>
<path d="M0,0 L16,0 L16,17 L0,17 Z " fill="#FEFEFE" transform="translate(1007,127)"/>
<path d="M0,0 L16,0 L16,17 L0,17 Z " fill="#FEFEFE" transform="translate(989,127)"/>
<path d="M0,0 L16,0 L16,17 L0,17 Z " fill="#FEFEFE" transform="translate(954,127)"/>
<path d="M0,0 L16,0 L16,17 L0,17 Z " fill="#FEFEFE" transform="translate(936,127)"/>
<path d="M0,0 L16,0 L16,17 L0,17 Z " fill="#FCFCFC" transform="translate(918,127)"/>
<path d="M0,0 L16,0 L16,17 L0,17 Z " fill="#FDFDFD" transform="translate(865,127)"/>
<path d="M0,0 L16,0 L16,17 L0,17 Z " fill="#FDFDFD" transform="translate(812,127)"/>
<path d="M0,0 L16,0 L16,17 L0,17 Z " fill="#FEFEFE" transform="translate(759,127)"/>
<path d="M0,0 L16,0 L16,17 L0,17 Z " fill="#FEFEFE" transform="translate(706,127)"/>
<path d="M0,0 L16,0 L16,17 L0,17 Z " fill="#FDFDFD" transform="translate(635,127)"/>
<path d="M0,0 L16,0 L16,17 L0,17 Z " fill="#FDFDFD" transform="translate(582,127)"/>
<path d="M0,0 L16,0 L16,17 L0,17 Z " fill="#FEFEFE" transform="translate(564,127)"/>
<path d="M0,0 L16,0 L16,17 L0,17 Z " fill="#FEFEFE" transform="translate(546,127)"/>
<path d="M0,0 L16,0 L16,17 L0,17 Z " fill="#FEFEFE" transform="translate(511,127)"/>
<path d="M0,0 L16,0 L16,17 L0,17 Z " fill="#FEFEFE" transform="translate(493,127)"/>
<path d="M0,0 L16,0 L16,17 L0,17 Z " fill="#FEFEFE" transform="translate(458,127)"/>
<path d="M0,0 L16,0 L16,17 L0,17 Z " fill="#FDFDFD" transform="translate(422,127)"/>
<path d="M0,0 L16,0 L16,17 L0,17 Z " fill="#FEFEFE" transform="translate(127,127)"/>
<path d="M0,0 L16,0 L16,17 L0,17 Z " fill="#FEFEFE" transform="translate(74,127)"/>
<path d="M0,0 L17,0 L17,16 L0,16 Z " fill="#FEFEFE" transform="translate(723,110)"/>
<path d="M0,0 L16,0 L16,17 L0,17 Z " fill="#FEFEFE" transform="translate(936,109)"/>
<path d="M0,0 L16,0 L16,17 L0,17 Z " fill="#FDFDFD" transform="translate(865,109)"/>
<path d="M0,0 L16,0 L16,17 L0,17 Z " fill="#FEFEFE" transform="translate(759,109)"/>
<path d="M0,0 L16,0 L16,17 L0,17 Z " fill="#FDFDFD" transform="translate(635,109)"/>
<path d="M0,0 L16,0 L16,17 L0,17 Z " fill="#FEFEFE" transform="translate(564,109)"/>
<path d="M0,0 L16,0 L16,17 L0,17 Z " fill="#FEFEFE" transform="translate(493,109)"/>
<path d="M0,0 L16,0 L16,17 L0,17 Z " fill="#FEFEFE" transform="translate(74,109)"/>
<path d="M0,0 L16,0 L16,17 L0,17 Z " fill="#FEFEFE" transform="translate(989,91)"/>
<path d="M0,0 L16,0 L16,17 L0,17 Z " fill="#FEFEFE" transform="translate(936,91)"/>
<path d="M0,0 L16,0 L16,17 L0,17 Z " fill="#FDFDFD" transform="translate(865,91)"/>
<path d="M0,0 L16,0 L16,17 L0,17 Z " fill="#FDFDFD" transform="translate(759,91)"/>
<path d="M0,0 L16,0 L16,17 L0,17 Z " fill="#FEFEFE" transform="translate(564,91)"/>
<path d="M0,0 L16,0 L16,17 L0,17 Z " fill="#FEFEFE" transform="translate(440,91)"/>
<path d="M0,0 L16,0 L16,17 L0,17 Z " fill="#FEFEFE" transform="translate(74,91)"/>
<path d="M0,0 L17,0 L17,16 L0,16 Z " fill="#FDFDFD" transform="translate(741,74)"/>
<path d="M0,0 L17,0 L17,16 L0,16 Z " fill="#FDFDFD" transform="translate(688,74)"/>
<path d="M0,0 L17,0 L17,16 L0,16 Z " fill="#FEFEFE" transform="translate(741,56)"/>
<path d="M0,0 L17,0 L17,16 L0,16 Z " fill="#FEFEFE" transform="translate(723,56)"/>
<path d="M0,0 L17,0 L17,16 L0,16 Z " fill="#FEFEFE" transform="translate(688,56)"/>
<path d="M0,0 L17,0 L17,16 L0,16 Z " fill="#FDFDFD" transform="translate(617,56)"/>
<path d="M0,0 L17,0 L17,16 L0,16 Z " fill="#FDFDFD" transform="translate(386,56)"/>
<path d="M0,0 L16,0 L16,17 L0,17 Z " fill="#FCFCFC" transform="translate(1025,37)"/>
<path d="M0,0 L16,0 L16,17 L0,17 Z " fill="#FCFCFC" transform="translate(1007,37)"/>
<path d="M0,0 L16,0 L16,17 L0,17 Z " fill="#FCFCFC" transform="translate(989,37)"/>
<path d="M0,0 L16,0 L16,17 L0,17 Z " fill="#FDFDFD" transform="translate(954,37)"/>
<path d="M0,0 L16,0 L16,17 L0,17 Z " fill="#FDFDFD" transform="translate(936,37)"/>
<path d="M0,0 L16,0 L16,17 L0,17 Z " fill="#FBFBFB" transform="translate(865,37)"/>
<path d="M0,0 L16,0 L16,17 L0,17 Z " fill="#FCFCFC" transform="translate(812,37)"/>
<path d="M0,0 L16,0 L16,17 L0,17 Z " fill="#FCFCFC" transform="translate(759,37)"/>
<path d="M0,0 L16,0 L16,17 L0,17 Z " fill="#FCFCFC" transform="translate(706,37)"/>
<path d="M0,0 L16,0 L16,17 L0,17 Z " fill="#FCFCFC" transform="translate(635,37)"/>
<path d="M0,0 L16,0 L16,17 L0,17 Z " fill="#FBFBFB" transform="translate(582,37)"/>
<path d="M0,0 L16,0 L16,17 L0,17 Z " fill="#FDFDFD" transform="translate(511,37)"/>
<path d="M0,0 L16,0 L16,17 L0,17 Z " fill="#FDFDFD" transform="translate(493,37)"/>
<path d="M0,0 L16,0 L16,17 L0,17 Z " fill="#FDFDFD" transform="translate(458,37)"/>
<path d="M0,0 L16,0 L16,17 L0,17 Z " fill="#FDFDFD" transform="translate(440,37)"/>
<path d="M0,0 L16,0 L16,17 L0,17 Z " fill="#FDFDFD" transform="translate(127,37)"/>
<path d="M0,0 L16,0 L16,17 L0,17 Z " fill="#FDFDFD" transform="translate(74,37)"/>
<path d="M0,0 L2,0 L2,17 L18,17 L18,0 L20,0 L20,17 L36,17 L36,0 L38,0 L38,17 L53,17 L53,0 L55,0 L55,17 L71,17 L71,0 L73,0 L73,17 L88,17 L88,18 L-13,18 L-13,17 L0,17 Z " fill="#BCBCBC" transform="translate(934,19)"/>
<path d="M0,0 L17,0 L17,16 L1,16 L1,14 L0,14 Z " fill="#FDFDFD" transform="translate(847,56)"/>
<path d="M0,0 L4,0 L4,17 L-13,17 L-13,2 L-3,2 L-3,1 L0,1 Z " fill="#FCFCFC" transform="translate(612,109)"/>
<path d="M0,0 L10,0 L10,17 L-6,17 L-6,1 L0,1 Z " fill="#FEFEFE" transform="translate(133,109)"/>
<path d="M0,0 L4,0 L4,1 L7,1 L7,2 L17,2 L17,17 L0,17 Z " fill="#FEFEFE" transform="translate(38,109)"/>
<path d="M0,0 L4,0 L4,1 L6,1 L6,2 L17,2 L17,17 L0,17 Z " fill="#FDFDFD" transform="translate(652,109)"/>
<path d="M0,0 L11,0 L11,1 L14,1 L14,2 L16,2 L16,17 L0,17 Z " fill="#FEFEFE" transform="translate(458,109)"/>
<path d="M0,0 L1,0 L1,17 L17,17 L17,18 L1,18 L1,35 L15,35 L15,36 L1,36 L1,71 L0,71 L0,36 L-35,36 L-35,71 L-36,71 L-36,36 L-55,36 L-55,35 L-53,35 L-53,18 L-52,18 L-52,35 L-36,35 L-36,19 L-35,19 L-35,35 L-18,35 L-18,19 L-17,19 L-17,35 L0,35 L0,18 L-17,18 L-17,9 L-16,9 L-16,17 L0,17 Z " fill="#909090" transform="translate(758,91)"/>
<path d="M0,0 L7,0 L7,1 L16,1 L16,17 L0,17 Z " fill="#FDFDFD" transform="translate(812,109)"/>
<path d="M0,0 L2,0 L2,1 L5,1 L5,2 L17,2 L17,17 L0,17 Z " fill="#FCFCFC" transform="translate(404,109)"/>
<path d="M0,0 L17,0 L17,16 L6,16 L6,15 L4,15 L4,14 L0,14 Z " fill="#FCFCFC" transform="translate(56,56)"/>
<path d="M0,0 L9,0 L9,17 L-7,17 L-7,2 L-3,2 L-3,1 L0,1 Z " fill="#FDFDFD" transform="translate(1032,109)"/>
<path d="M0,0 L2,0 L2,1 L13,1 L13,0 L16,0 L16,17 L0,17 Z " fill="#FEFEFE" transform="translate(883,109)"/>
<path d="M0,0 L4,0 L4,1 L16,1 L16,17 L0,17 Z " fill="#FEFEFE" transform="translate(706,109)"/>
<path d="M0,0 L17,0 L17,14 L11,14 L11,16 L0,16 Z " fill="#FEFEFE" transform="translate(144,56)"/>
<path d="M0,0 L17,0 L17,14 L10,14 L10,16 L0,16 Z " fill="#FCFCFC" transform="translate(900,56)"/>
<path d="M0,0 L17,0 L17,16 L7,16 L7,14 L0,14 Z " fill="#FDFDFD" transform="translate(794,56)"/>
<path d="M0,0 L17,0 L17,16 L7,16 L7,14 L0,14 Z " fill="#FDFDFD" transform="translate(652,56)"/>
<path d="M0,0 L17,0 L17,16 L7,16 L7,14 L0,14 Z " fill="#FEFEFE" transform="translate(162,56)"/>
<path d="M0,0 L7,0 L7,1 L10,1 L10,2 L16,2 L16,17 L0,17 Z " fill="#FEFEFE" transform="translate(1007,109)"/>
<path d="M0,0 L16,0 L16,16 L0,16 Z " fill="#FDFDFD" transform="translate(989,74)"/>
<path d="M0,0 L16,0 L16,16 L0,16 Z " fill="#FCFCFC" transform="translate(865,74)"/>
<path d="M0,0 L16,0 L16,16 L0,16 Z " fill="#FDFDFD" transform="translate(564,74)"/>
<path d="M0,0 L16,0 L16,16 L0,16 Z " fill="#FDFDFD" transform="translate(440,74)"/>
<path d="M0,0 L16,0 L16,16 L0,16 Z " fill="#FDFDFD" transform="translate(127,74)"/>
<path d="M0,0 L16,0 L16,16 L0,16 Z " fill="#FDFDFD" transform="translate(74,74)"/>
<path d="M0,0 L16,0 L16,16 L0,16 Z " fill="#FEFEFE" transform="translate(989,56)"/>
<path d="M0,0 L16,0 L16,16 L0,16 Z " fill="#FDFDFD" transform="translate(865,56)"/>
<path d="M0,0 L16,0 L16,16 L0,16 Z " fill="#FEFEFE" transform="translate(812,56)"/>
<path d="M0,0 L16,0 L16,16 L0,16 Z " fill="#FEFEFE" transform="translate(564,56)"/>
<path d="M0,0 L16,0 L16,16 L0,16 Z " fill="#FEFEFE" transform="translate(493,56)"/>
<path d="M0,0 L16,0 L16,16 L0,16 Z " fill="#FEFEFE" transform="translate(440,56)"/>
<path d="M0,0 L16,0 L16,16 L0,16 Z " fill="#FEFEFE" transform="translate(127,56)"/>
<path d="M0,0 L16,0 L16,16 L0,16 Z " fill="#FEFEFE" transform="translate(74,56)"/>
<path d="M0,0 L16,0 L16,16 L0,16 Z " fill="#FEFEFE" transform="translate(901,38)"/>
<path d="M0,0 L16,0 L16,16 L0,16 Z " fill="#FEFEFE" transform="translate(883,38)"/>
<path d="M0,0 L16,0 L16,16 L0,16 Z " fill="#FEFEFE" transform="translate(564,38)"/>
<path d="M0,0 L16,0 L16,16 L0,16 Z " fill="#FEFEFE" transform="translate(546,38)"/>
<path d="M0,0 L15,0 L15,17 L0,17 Z " fill="#FEFEFE" transform="translate(972,127)"/>
<path d="M0,0 L15,0 L15,17 L0,17 Z " fill="#FEFEFE" transform="translate(529,127)"/>
<path d="M0,0 L15,0 L15,17 L0,17 Z " fill="#FEFEFE" transform="translate(476,127)"/>
<path d="M0,0 L15,0 L15,17 L0,17 Z " fill="#FEFEFE" transform="translate(972,91)"/>
<path d="M0,0 L15,0 L15,17 L0,17 Z " fill="#FDFDFD" transform="translate(972,37)"/>
<path d="M0,0 L15,0 L15,17 L0,17 Z " fill="#FDFDFD" transform="translate(476,37)"/>
<path d="M0,0 L16,0 L16,12 L15,12 L15,16 L0,16 Z " fill="#FCFCFC" transform="translate(812,74)"/>
<path d="M0,0 L16,0 L16,16 L3,16 L3,15 L1,15 L1,14 L0,14 Z " fill="#FBFBFB" transform="translate(422,56)"/>
<path d="M0,0 L10,0 L10,17 L-5,17 L-5,1 L0,1 Z " fill="#FEFEFE" transform="translate(534,109)"/>
<path d="M0,0 L17,0 L17,14 L4,14 L4,16 L0,16 Z " fill="#FCFCFC" transform="translate(829,56)"/>
<path d="M0,0 L17,0 L17,16 L14,16 L14,14 L1,14 L1,16 L0,16 Z " fill="#FCFCFC" transform="translate(670,56)"/>
<path d="M0,0 L16,0 L16,14 L11,14 L11,16 L0,16 Z " fill="#FEFEFE" transform="translate(511,56)"/>
<path d="M0,0 L14,0 L14,17 L-3,17 L-3,14 L-2,14 L-2,13 L-1,13 L-1,11 L0,11 L0,9 L1,9 L1,3 L0,3 Z " fill="#F7F7F7" transform="translate(620,91)"/>
<path d="M0,0 L16,0 L16,13 L15,13 L15,14 L12,14 L12,15 L10,15 L10,16 L0,16 Z " fill="#FCFCFC" transform="translate(582,56)"/>
<path d="M0,0 L16,0 L16,14 L10,14 L10,16 L0,16 Z " fill="#FEFEFE" transform="translate(936,56)"/>
<path d="M0,0 L16,0 L16,14 L10,14 L10,16 L0,16 Z " fill="#FDFDFD" transform="translate(635,56)"/>
<path d="M0,0 L16,0 L16,13 L14,13 L14,14 L11,14 L11,15 L9,15 L9,16 L0,16 Z " fill="#FDFDFD" transform="translate(458,56)"/>
<path d="M0,0 L15,0 L15,16 L0,16 Z " fill="#FEFEFE" transform="translate(919,38)"/>
<path d="M0,0 L15,0 L15,16 L0,16 Z " fill="#FEFEFE" transform="translate(529,38)"/>
<path d="M0,0 L15,0 L15,16 L0,16 Z " fill="#FEFEFE" transform="translate(423,38)"/>
<path d="M0,0 L2,0 L2,2 L1,2 L1,19 L13,19 L13,18 L14,18 L14,20 L12,20 L12,37 L64,37 L64,22 L63,22 L63,21 L75,21 L75,22 L65,22 L65,37 L66,37 L66,38 L65,38 L65,55 L82,55 L82,56 L65,56 L65,73 L64,73 L64,56 L49,56 L49,55 L64,55 L64,38 L8,38 L8,37 L10,37 L10,20 L0,20 Z M82,38 L83,38 L83,55 L82,55 Z " fill="#989898" transform="translate(534,89)"/>
<path d="M0,0 L17,0 L17,14 L0,14 Z " fill="#FCFCFC" transform="translate(776,56)"/>
<path d="M0,0 L16,0 L16,17 L5,17 L5,16 L4,16 L4,13 L3,13 L3,10 L2,10 L2,7 L1,7 L1,4 L0,4 Z " fill="#FCFCFC" transform="translate(127,91)"/>
<path d="M0,0 L10,0 L10,16 L-7,16 L-7,5 L0,5 Z " fill="#FDFDFD" transform="translate(801,74)"/>
<path d="M0,0 L16,0 L16,16 L9,16 L9,15 L7,15 L7,14 L4,14 L4,13 L0,13 Z " fill="#FBFBFB" transform="translate(1025,56)"/>
<path d="M0,0 L17,0 L17,13 L7,13 L7,14 L4,14 L4,15 L2,15 L2,16 L0,16 Z " fill="#FDFDFD" transform="translate(38,56)"/>
<path d="M0,0 L17,0 L17,15 L13,15 L13,14 L9,14 L9,13 L0,13 Z " fill="#FBFBFB" transform="translate(599,56)"/>
<path d="M0,0 L15,0 L15,16 L4,16 L4,14 L0,14 Z " fill="#FEFEFE" transform="translate(919,56)"/>
<path d="M0,0 L16,0 L16,14 L4,14 L4,16 L0,16 Z " fill="#FCFCFC" transform="translate(706,56)"/>
<path d="M0,0 L16,0 L16,13 L10,13 L10,14 L7,14 L7,15 L6,15 L6,16 L0,16 Z " fill="#FDFDFD" transform="translate(1007,56)"/>
<path d="M0,0 L16,0 L16,14 L3,14 L3,16 L0,16 Z " fill="#FDFDFD" transform="translate(759,56)"/>
<path d="M0,0 L16,0 L16,16 L15,16 L15,14 L2,14 L2,16 L0,16 Z " fill="#FDFDFD" transform="translate(546,56)"/>
<path d="M0,0 L16,0 L16,15 L14,15 L14,14 L1,14 L1,16 L0,16 Z " fill="#FDFDFD" transform="translate(883,56)"/>
<path d="M0,0 L15,0 L15,16 L6,16 L6,14 L0,14 Z " fill="#FDFDFD" transform="translate(529,56)"/>
<path d="M0,0 L10,0 L10,5 L16,5 L16,16 L0,16 Z " fill="#FDFDFD" transform="translate(936,74)"/>
<path d="M0,0 L17,0 L17,13 L5,13 L5,14 L0,14 Z " fill="#FCFCFC" transform="translate(404,56)"/>
<path d="M0,0 L11,0 L11,17 L-5,17 L-5,13 L-4,13 L-4,12 L-3,12 L-3,10 L-2,10 L-2,8 L-1,8 L-1,5 L0,5 Z " fill="#FAFAFA" transform="translate(498,91)"/>
<path d="M0,0 L16,0 L16,14 L0,14 Z " fill="#FDFDFD" transform="translate(954,56)"/>
<path d="M0,0 L1,0 L1,2 L3,2 L3,3 L1,3 L1,9 L36,9 L36,15 L37,15 L37,18 L38,18 L38,20 L39,20 L39,21 L40,21 L40,23 L41,23 L41,24 L42,24 L42,25 L43,25 L43,26 L45,26 L45,27 L46,27 L46,28 L4,28 L4,27 L5,27 L5,26 L6,26 L6,27 L17,27 L17,10 L1,10 L1,12 L3,12 L3,13 L1,13 L1,17 L0,17 L0,10 L-13,10 L-13,14 L-14,14 L-14,3 L-13,3 L-13,9 L0,9 Z M19,10 L19,27 L35,27 L35,10 Z " fill="#ADACAB" transform="translate(421,81)"/>
<path d="M0,0 L2,0 L2,17 L18,17 L18,0 L20,0 L20,17 L36,17 L36,0 L38,0 L38,17 L53,17 L53,0 L55,0 L55,17 L70,17 L70,18 L-13,18 L-13,17 L0,17 Z " fill="#BABABA" transform="translate(438,19)"/>
<path d="M0,0 L15,0 L15,16 L12,16 L12,14 L0,14 Z " fill="#FDFDFD" transform="translate(972,56)"/>
<path d="M0,0 L36,0 L36,19 L19,19 L19,33 L17,33 L17,19 L1,19 L1,17 L0,17 Z M1,1 L1,17 L17,17 L17,1 Z M19,1 L19,17 L34,17 L34,1 Z " fill="#CACACA" transform="translate(900,37)"/>
<path d="M0,0 L11,0 L11,8 L12,8 L12,11 L13,11 L13,12 L14,12 L14,14 L15,14 L15,15 L16,15 L16,17 L0,17 Z " fill="#FAFAFA" transform="translate(635,91)"/>
<path d="M0,0 L15,0 L15,16 L12,16 L12,15 L10,15 L10,14 L6,14 L6,13 L0,13 Z " fill="#FBFBFB" transform="translate(476,56)"/>
<path d="M0,0 L2,0 L2,17 L18,17 L18,0 L20,0 L20,17 L35,17 L35,0 L37,0 L37,17 L53,17 L53,0 L55,0 L55,17 L70,17 L70,18 L-1,18 L-1,17 L0,17 Z " fill="#BABABA" transform="translate(509,19)"/>
<path d="M0,0 L12,0 L12,17 L0,17 Z " fill="#FAFAFA" transform="translate(144,91)"/>
<path d="M0,0 L1,0 L1,11 L40,11 L40,10 L41,10 L41,11 L42,11 L42,12 L36,12 L36,17 L47,17 L47,20 L46,20 L46,18 L35,18 L35,23 L36,23 L36,24 L37,24 L37,26 L38,26 L38,27 L39,27 L39,28 L40,28 L40,29 L41,29 L41,30 L0,30 Z M1,12 L1,29 L16,29 L16,12 Z M18,12 L18,29 L34,29 L34,12 Z " fill="#9C9E9F" transform="translate(971,79)"/>
<path d="M0,0 L15,0 L15,16 L4,16 L4,8 L3,8 L3,6 L2,6 L2,5 L1,5 L1,3 L0,3 Z " fill="#FAFAFA" transform="translate(494,74)"/>
<path d="M0,0 L1,0 L1,17 L18,17 L18,0 L19,0 L19,37 L1,37 L1,53 L2,53 L2,71 L0,71 L0,55 L-10,55 L-10,53 L0,53 Z M1,18 L1,35 L18,35 L18,18 Z " fill="#B8B9B8" transform="translate(669,19)"/>
<path d="M0,0 L9,0 L9,5 L10,5 L10,8 L11,8 L11,10 L12,10 L12,12 L13,12 L13,13 L14,13 L14,14 L15,14 L15,15 L16,15 L16,17 L0,17 Z " fill="#F8F8F8" transform="translate(386,91)"/>
<path d="M0,0 L3,0 L3,5 L16,5 L16,16 L0,16 Z " fill="#FBFBFB" transform="translate(759,74)"/>
<path d="M0,0 L1,0 L1,4 L4,4 L4,20 L22,20 L22,2 L23,2 L23,20 L27,20 L27,21 L23,21 L23,38 L27,38 L27,39 L-7,39 L-7,38 L-6,38 L-6,37 L-5,37 L-5,38 L4,38 L4,21 L1,21 L1,29 L0,29 Z M5,21 L5,38 L22,38 L22,21 Z " fill="#C3C4C4" transform="translate(683,70)"/>
<path d="M0,0 L2,0 L2,17 L17,17 L17,0 L19,0 L19,17 L34,17 L34,18 L19,18 L19,36 L17,36 L17,19 L2,19 L2,35 L0,35 L0,18 L-1,18 L-1,17 L0,17 Z " fill="#BEBEBE" transform="translate(527,127)"/>
<path d="M0,0 L11,0 L11,17 L0,17 Z " fill="#FDFDFD" transform="translate(923,91)"/>
<path d="M0,0 L11,0 L11,17 L0,17 Z " fill="#FEFEFE" transform="translate(511,91)"/>
<path d="M0,0 L13,0 L13,5 L12,5 L12,8 L11,8 L11,9 L10,9 L10,12 L9,12 L9,15 L8,15 L8,17 L0,17 Z " fill="#FAFAFA" transform="translate(812,91)"/>
<path d="M0,0 L15,0 L15,3 L16,3 L16,6 L14,6 L14,23 L15,23 L15,24 L-22,24 L-22,6 L-21,6 L-21,23 L-5,23 L-5,7 L-4,7 L-4,23 L13,23 L13,6 L-1,6 L-1,4 L0,4 Z " fill="#B0B0AF" transform="translate(833,103)"/>
<path d="M0,0 L14,0 L14,15 L5,15 L5,13 L4,13 L4,11 L3,11 L3,10 L2,10 L2,7 L1,7 L1,5 L0,5 Z " fill="#FAFAFA" transform="translate(850,74)"/>
<path d="M0,0 L3,0 L3,16 L-12,16 L-12,5 L0,5 Z " fill="#FCFCFC" transform="translate(984,74)"/>
<path d="M0,0 L1,0 L1,1 L17,1 L17,0 L18,0 L18,37 L24,37 L24,40 L23,40 L23,41 L22,41 L22,45 L21,45 L21,48 L20,48 L20,50 L19,50 L19,54 L18,54 L18,55 L17,55 L17,3 L-17,3 L-17,1 L0,1 Z " fill="#B3B3B3" transform="translate(73,53)"/>
<path d="M0,0 L178,0 L178,1 L0,1 Z " fill="#929495" transform="translate(881,126)"/>
<path d="M0,0 L1,0 L1,20 L18,20 L18,2 L36,2 L36,1 L37,1 L37,2 L40,2 L40,0 L41,0 L41,9 L40,9 L40,4 L37,4 L37,20 L53,20 L53,21 L19,21 L19,30 L18,30 L18,21 L1,21 L1,30 L0,30 Z M19,4 L19,20 L36,20 L36,4 Z " fill="#B5B6B6" transform="translate(722,70)"/>
<path d="M0,0 L9,0 L9,1 L11,1 L11,2 L12,2 L12,3 L13,3 L13,9 L12,9 L12,10 L10,10 L10,12 L11,12 L11,14 L12,14 L12,15 L13,15 L13,17 L14,17 L14,19 L12,19 L12,18 L11,18 L11,16 L10,16 L10,15 L9,15 L9,13 L8,13 L8,11 L3,11 L3,19 L0,19 Z " fill="#686868" transform="translate(901,207)"/>
<path d="M0,0 L11,0 L11,16 L0,16 Z " fill="#FDFDFD" transform="translate(923,74)"/>
<path d="M0,0 L11,0 L11,16 L0,16 Z " fill="#FDFDFD" transform="translate(511,74)"/>
<path d="M0,0 L8,0 L8,16 L-8,16 L-8,10 L-6,10 L-6,9 L-3,9 L-3,8 L1,8 L1,7 L2,7 L2,4 L1,4 L1,2 L0,2 Z " fill="#F8F8F8" transform="translate(430,74)"/>
<path d="M0,0 L11,0 L11,16 L0,16 Z " fill="#FDFDFD" transform="translate(144,74)"/>
<path d="M0,0 L9,0 L9,1 L11,1 L11,2 L12,2 L12,3 L13,3 L13,8 L12,8 L12,9 L11,9 L11,10 L10,10 L10,13 L11,13 L11,14 L12,14 L12,16 L13,16 L13,18 L11,18 L11,17 L10,17 L10,15 L9,15 L9,13 L8,13 L8,12 L3,12 L3,19 L0,19 Z " fill="#676767" transform="translate(758,207)"/>
<path d="M0,0 L9,0 L9,1 L11,1 L11,2 L12,2 L12,3 L13,3 L13,8 L12,8 L12,9 L11,9 L11,10 L10,10 L10,13 L11,13 L11,14 L12,14 L12,16 L13,16 L13,18 L11,18 L11,17 L10,17 L10,15 L9,15 L9,13 L8,13 L8,12 L3,12 L3,19 L0,19 Z " fill="#676767" transform="translate(522,207)"/>
<path d="M0,0 L14,0 L14,1 L17,1 L17,2 L18,2 L18,6 L17,6 L17,5 L10,5 L10,6 L6,6 L6,11 L7,11 L7,13 L8,13 L8,14 L9,14 L9,17 L0,17 Z " fill="#EDEDED" transform="translate(580,91)"/>
<path d="M0,0 L12,0 L12,4 L11,4 L11,7 L10,7 L10,9 L9,9 L9,13 L8,13 L8,14 L7,14 L7,17 L6,17 L6,18 L0,18 Z " fill="#F0F0F0" transform="translate(91,72)"/>
<path d="M0,0 L10,0 L10,17 L0,17 Z " fill="#FEFEFE" transform="translate(169,91)"/>
<path d="M0,0 L2,0 L2,1 L3,1 L3,2 L4,2 L4,3 L6,3 L6,4 L8,4 L8,5 L11,5 L11,6 L17,6 L17,7 L18,7 L18,8 L20,8 L20,9 L21,9 L21,12 L20,12 L20,14 L18,14 L18,15 L11,15 L11,13 L10,13 L10,12 L9,12 L9,11 L8,11 L8,9 L0,9 L0,3 L-17,3 L-17,2 L0,2 Z " fill="#CFCFCF" transform="translate(37,88)"/>
<path d="M0,0 L11,0 L11,2 L12,2 L12,3 L13,3 L13,4 L14,4 L14,5 L15,5 L15,6 L17,6 L17,13 L8,13 L8,12 L6,12 L6,11 L5,11 L5,10 L4,10 L4,9 L3,9 L3,8 L2,8 L2,6 L1,6 L1,5 L0,5 Z " fill="#0A0909" transform="translate(1006,97)"/>
<path d="M0,0 L13,0 L13,2 L12,2 L12,4 L11,4 L11,6 L10,6 L10,8 L9,8 L9,16 L0,16 Z " fill="#F9F9F9" transform="translate(386,74)"/>
<path d="M0,0 L4,0 L4,1 L7,1 L7,2 L8,2 L8,3 L9,3 L9,11 L8,11 L8,13 L6,13 L6,14 L-1,14 L-1,13 L-3,13 L-3,11 L-4,11 L-4,10 L-5,10 L-5,4 L-4,4 L-4,3 L-3,3 L-3,2 L-2,2 L-2,1 L0,1 Z " fill="#F5F5F5" transform="translate(337,209)"/>
<path d="M0,0 L2,0 L2,1 L36,1 L36,0 L38,0 L38,1 L39,1 L39,2 L37,2 L37,19 L52,19 L52,20 L-15,20 L-15,19 L1,19 L1,2 L-1,2 L-1,1 L0,1 Z M2,2 L2,19 L19,19 L19,2 Z M20,2 L20,19 L36,19 L36,2 Z " fill="#909090" transform="translate(615,107)"/>
<path d="M0,0 L1,0 L1,17 L18,17 L18,0 L19,0 L19,51 L18,51 L18,18 L1,18 L1,19 L0,19 L0,18 L-16,18 L-16,74 L-17,74 L-17,71 L-18,71 L-18,70 L-17,70 L-17,17 L0,17 Z " fill="#8E8F8F" transform="translate(143,19)"/>
<path d="M0,0 L10,0 L10,16 L0,16 Z " fill="#FCFCFC" transform="translate(659,74)"/>
<path d="M0,0 L10,0 L10,16 L0,16 Z " fill="#FDFDFD" transform="translate(635,74)"/>
<path d="M0,0 L10,0 L10,16 L0,16 Z " fill="#FDFDFD" transform="translate(169,74)"/>
<path d="M0,0 L5,0 L5,1 L7,1 L7,2 L8,2 L8,3 L9,3 L9,4 L10,4 L10,12 L-5,12 L-5,4 L-4,4 L-4,3 L-3,3 L-3,2 L-2,2 L-2,1 L0,1 Z " fill="#EFEFEF" transform="translate(475,78)"/>
<path d="M0,0 L16,0 L16,17 L5,17 L5,16 L6,16 L6,15 L7,15 L7,13 L8,13 L8,12 L9,12 L9,10 L10,10 L10,8 L11,8 L11,6 L10,6 L10,5 L7,5 L7,4 L4,4 L4,3 L2,3 L2,2 L0,2 Z " fill="#F7F7F7" transform="translate(422,91)"/>
<path d="M0,0 L6,0 L6,1 L9,1 L9,2 L11,2 L11,3 L13,3 L13,4 L15,4 L15,7 L16,7 L16,8 L17,8 L17,12 L13,12 L13,13 L6,13 L6,12 L5,12 L5,10 L4,10 L4,8 L1,8 L1,7 L0,7 Z " fill="#141414" transform="translate(1023,69)"/>
<path d="M0,0 L1,0 L1,15 L18,15 L18,0 L19,0 L19,15 L36,15 L36,17 L19,17 L19,31 L22,31 L22,32 L19,32 L19,33 L18,33 L18,17 L1,17 L1,32 L0,32 L0,17 L-10,17 L-10,15 L0,15 Z " fill="#BABABA" transform="translate(385,39)"/>
<path d="M0,0 L1,0 L1,17 L17,17 L17,0 L18,0 L18,17 L35,17 L35,18 L18,18 L18,35 L35,35 L35,37 L18,37 L18,51 L17,51 L17,18 L1,18 L1,19 L0,19 L0,18 L-17,18 L-17,17 L0,17 Z " fill="#ABABAB" transform="translate(634,19)"/>
<path d="M0,0 L17,0 L17,9 L0,9 Z " fill="#F9FAFA" transform="translate(723,91)"/>
<path d="M0,0 L7,0 L7,11 L8,11 L8,12 L7,12 L7,29 L33,29 L33,31 L32,31 L32,30 L1,30 L1,29 L0,29 Z M1,12 L1,29 L6,29 L6,12 Z " fill="#B0B0B0" transform="translate(787,79)"/>
<path d="M0,0 L7,0 L7,16 L1,16 L1,15 L0,15 L0,14 L-2,14 L-2,13 L-4,13 L-4,12 L-5,12 L-5,11 L-8,11 L-8,10 L-10,10 L-10,8 L-2,8 L-2,7 L1,7 L1,2 L0,2 Z " fill="#F5F5F5" transform="translate(66,74)"/>
<path d="M0,0 L3,0 L3,7 L2,7 L2,16 L0,16 L0,15 L-1,15 L-1,14 L-3,14 L-3,13 L-4,13 L-4,12 L-6,12 L-6,11 L-9,11 L-9,10 L-15,10 L-15,9 L-18,9 L-18,8 L-20,8 L-20,7 L-21,7 L-21,4 L-20,4 L-20,3 L-19,3 L-19,2 L-15,2 L-15,3 L-12,3 L-12,5 L-11,5 L-11,7 L-10,7 L-10,8 L-3,8 L-3,7 L1,7 L1,3 L0,3 Z " fill="#E0E0E0" transform="translate(1039,74)"/>
<path d="M0,0 L7,0 L7,1 L9,1 L9,2 L10,2 L10,3 L11,3 L11,12 L10,12 L10,13 L8,13 L8,14 L0,14 Z " fill="#ECECEC" transform="translate(170,209)"/>
<path d="M0,0 L1,0 L1,17 L18,17 L18,0 L20,0 L20,17 L36,17 L36,0 L37,0 L37,17 L40,17 L40,18 L-16,18 L-16,34 L-17,34 L-17,17 L0,17 Z " fill="#AFAFAF" transform="translate(881,19)"/>
<path d="M0,0 L6,0 L6,1 L7,1 L7,2 L8,2 L8,3 L9,3 L9,12 L-4,12 L-4,4 L-3,4 L-3,3 L-2,3 L-2,2 L-1,2 L-1,1 L0,1 Z " fill="#F8F8F8" transform="translate(412,78)"/>
<path d="M0,0 L1,0 L1,17 L18,17 L18,0 L19,0 L19,17 L36,17 L36,0 L37,0 L37,17 L40,17 L40,18 L37,18 L37,51 L33,51 L33,50 L36,50 L36,18 L19,18 L19,20 L18,20 L18,18 L1,18 L1,20 L0,20 L0,18 L-9,18 L-9,17 L0,17 Z " fill="#A7A7A7" transform="translate(385,19)"/>
<path d="M0,0 L1,0 L1,21 L-11,21 L-11,38 L-12,38 L-12,21 L-28,21 L-28,20 L-12,20 L-12,4 L-28,4 L-28,2 L-12,2 L-12,1 L-11,1 L-11,2 L0,2 Z M-11,4 L-11,20 L0,20 L0,4 Z " fill="#B0B0B0" transform="translate(155,70)"/>
<path d="M0,0 L1,0 L1,16 L18,16 L18,18 L1,18 L1,34 L2,34 L2,35 L1,35 L1,36 L0,36 L0,37 L-1,37 L-1,36 L-17,36 L-17,34 L0,34 L0,18 L-16,18 L-16,16 L0,16 Z " fill="#B8B7B7" transform="translate(37,38)"/>
<path d="M0,0 L2,0 L2,17 L18,17 L18,0 L19,0 L19,35 L36,35 L36,37 L19,37 L19,50 L18,50 L18,18 L-1,18 L-1,17 L0,17 Z " fill="#BABABA" transform="translate(580,19)"/>
<path d="M0,0 L3,0 L3,3 L4,3 L4,6 L5,6 L5,8 L6,8 L6,11 L7,11 L7,13 L8,13 L8,16 L9,16 L9,19 L6,19 L6,14 L-3,14 L-3,15 L-4,15 L-4,18 L-5,18 L-5,19 L-7,19 L-7,16 L-6,16 L-6,14 L-5,14 L-5,11 L-4,11 L-4,9 L-3,9 L-3,6 L-2,6 L-2,4 L-1,4 L-1,1 L0,1 Z " fill="#4F4F4F" transform="translate(555,207)"/>
<path d="M0,0 L6,0 L6,1 L8,1 L8,2 L9,2 L9,3 L10,3 L10,4 L11,4 L11,10 L10,10 L10,12 L9,12 L9,13 L8,13 L8,14 L0,14 Z " fill="#F4F4F4" transform="translate(658,209)"/>
<path d="M0,0 L1,0 L1,17 L17,17 L17,0 L19,0 L19,17 L34,17 L34,18 L19,18 L19,35 L17,35 L17,18 L1,18 L1,35 L0,35 Z " fill="#BABABA" transform="translate(917,127)"/>
<path d="M0,0 L1,0 L1,1 L17,1 L17,0 L18,0 L18,1 L35,1 L35,3 L18,3 L18,17 L17,17 L17,3 L1,3 L1,19 L0,19 L0,3 L-17,3 L-17,1 L0,1 Z " fill="#ACACAC" transform="translate(705,53)"/>
<path d="M0,0 L1,0 L1,20 L-1,20 L-1,18 L-2,18 L-2,17 L-3,17 L-3,15 L-4,15 L-4,14 L-5,14 L-5,12 L-6,12 L-6,11 L-7,11 L-7,10 L-8,10 L-8,8 L-9,8 L-9,6 L-10,6 L-10,5 L-11,5 L-11,3 L-12,3 L-12,2 L0,2 Z " fill="#D8D8D8" transform="translate(548,70)"/>
<path d="M0,0 L1,0 L1,17 L11,17 L11,18 L1,18 L1,35 L11,35 L11,37 L1,37 L1,52 L0,52 L0,37 L-17,37 L-17,35 L0,35 L0,18 L-17,18 L-17,17 L0,17 Z " fill="#9A9A9A" transform="translate(179,19)"/>
<path d="M0,0 L10,0 L10,1 L12,1 L12,2 L13,2 L13,3 L14,3 L14,4 L15,4 L15,5 L16,5 L16,13 L15,13 L15,15 L14,15 L14,16 L13,16 L13,17 L11,17 L11,18 L9,18 L9,19 L1,19 L1,18 L0,18 Z M3,2 L3,16 L11,16 L11,15 L12,15 L12,14 L13,14 L13,12 L14,12 L14,6 L13,6 L13,5 L12,5 L12,4 L11,4 L11,3 L9,3 L9,2 Z " fill="#2F2F2F" transform="translate(655,207)"/>
<path d="M0,0 L1,0 L1,17 L18,17 L18,0 L19,0 L19,17 L36,17 L36,18 L19,18 L19,34 L18,34 L18,18 L1,18 L1,35 L0,35 L0,18 L-12,18 L-12,17 L0,17 Z M36,0 L37,0 L37,17 L36,17 Z " fill="#9E9E9E" transform="translate(651,127)"/>
<path d="M0,0 L3,0 L3,2 L4,2 L4,3 L5,3 L5,5 L6,5 L6,6 L7,6 L7,8 L8,8 L8,9 L9,9 L9,10 L10,10 L10,12 L11,12 L11,13 L12,13 L12,0 L14,0 L14,18 L12,18 L12,17 L11,17 L11,16 L10,16 L10,14 L9,14 L9,13 L8,13 L8,11 L7,11 L7,10 L6,10 L6,9 L5,9 L5,7 L4,7 L4,6 L3,6 L3,19 L0,19 Z " fill="#2C2C2C" transform="translate(275,207)"/>
<path d="M0,0 L3,0 L3,2 L4,2 L4,3 L5,3 L5,5 L6,5 L6,6 L7,6 L7,8 L8,8 L8,9 L9,9 L9,10 L10,10 L10,12 L11,12 L11,13 L12,13 L12,0 L14,0 L14,18 L12,18 L12,17 L11,17 L11,16 L10,16 L10,14 L9,14 L9,13 L8,13 L8,11 L7,11 L7,10 L6,10 L6,9 L5,9 L5,7 L4,7 L4,6 L3,6 L3,19 L0,19 Z " fill="#2C2C2C" transform="translate(138,207)"/>
<path d="M0,0 L24,0 L24,1 L12,1 L12,18 L29,18 L29,19 L-5,19 L-5,54 L-6,54 L-6,18 L11,18 L11,1 L1,1 L1,2 L0,2 Z M29,2 L30,2 L30,18 L29,18 Z " fill="#999999" transform="translate(132,108)"/>
<path d="M0,0 L13,0 L13,7 L12,7 L12,9 L11,9 L11,10 L9,10 L9,11 L4,11 L4,10 L2,10 L2,9 L1,9 L1,6 L0,6 Z " fill="#F4F5F4" transform="translate(408,91)"/>
<path d="M0,0 L1,0 L1,16 L17,16 L17,18 L1,18 L1,34 L17,34 L17,35 L1,35 L1,52 L0,52 L0,35 L-5,35 L-5,36 L-6,36 L-6,34 L0,34 L0,18 L-7,18 L-7,19 L-8,19 L-8,17 L-9,17 L-9,16 L0,16 Z " fill="#A6A6A7" transform="translate(73,56)"/>
<path d="M0,0 L7,0 L7,1 L9,1 L9,2 L10,2 L10,3 L11,3 L11,5 L9,5 L9,4 L8,4 L8,3 L6,3 L6,2 L1,2 L1,3 L-1,3 L-1,4 L-2,4 L-2,5 L-3,5 L-3,13 L-2,13 L-2,15 L-1,15 L-1,16 L8,16 L8,15 L9,15 L9,13 L10,13 L10,12 L3,12 L3,10 L12,10 L12,14 L11,14 L11,16 L10,16 L10,17 L8,17 L8,18 L6,18 L6,19 L1,19 L1,18 L-1,18 L-1,17 L-3,17 L-3,16 L-4,16 L-4,14 L-5,14 L-5,12 L-6,12 L-6,5 L-5,5 L-5,4 L-4,4 L-4,3 L-3,3 L-3,2 L-2,2 L-2,1 L0,1 Z " fill="#292929" transform="translate(222,207)"/>
<path d="M0,0 L7,0 L7,1 L9,1 L9,2 L10,2 L10,3 L11,3 L11,4 L12,4 L12,5 L13,5 L13,12 L12,12 L12,14 L11,14 L11,15 L10,15 L10,17 L8,17 L8,18 L6,18 L6,19 L1,19 L1,18 L-1,18 L-1,17 L-3,17 L-3,16 L-4,16 L-4,14 L-5,14 L-5,12 L-6,12 L-6,5 L-5,5 L-5,4 L-4,4 L-4,3 L-3,3 L-3,2 L-2,2 L-2,1 L0,1 Z M1,2 L1,3 L-1,3 L-1,4 L-2,4 L-2,5 L-3,5 L-3,6 L-4,6 L-4,12 L-3,12 L-3,13 L-2,13 L-2,15 L0,15 L0,16 L7,16 L7,15 L9,15 L9,13 L10,13 L10,5 L9,5 L9,4 L8,4 L8,3 L5,3 L5,2 Z " fill="#292929" transform="translate(336,207)"/>
<path d="M0,0 L9,0 L9,1 L12,1 L12,2 L13,2 L13,3 L14,3 L14,4 L15,4 L15,5 L16,5 L16,12 L15,12 L15,14 L14,14 L14,16 L13,16 L13,17 L11,17 L11,18 L9,18 L9,19 L0,19 Z M2,2 L2,16 L10,16 L10,15 L12,15 L12,14 L13,14 L13,5 L12,5 L12,4 L11,4 L11,3 L9,3 L9,2 Z " fill="#2A2A2A" transform="translate(168,207)"/>
<path d="M0,0 L2,0 L2,17 L18,17 L18,0 L20,0 L20,17 L21,17 L21,18 L20,18 L20,35 L19,35 L19,18 L2,18 L2,34 L1,34 L1,18 L-1,18 L-1,17 L0,17 Z " fill="#BEBEBE" transform="translate(562,127)"/>
<path d="M0,0 L1,0 L1,14 L0,14 L0,9 L-9,9 L-9,26 L7,26 L7,27 L-9,27 L-9,44 L6,44 L6,45 L-20,45 L-20,44 L-10,44 L-10,27 L-20,27 L-20,26 L-10,26 L-10,9 L-20,9 L-20,8 L0,8 Z M7,25 L8,25 L8,26 L7,26 Z " fill="#989898" transform="translate(395,82)"/>
<path d="M0,0 L121,0 L121,1 L0,1 Z " fill="#989898" transform="translate(421,126)"/>
<path d="M0,0 L2,0 L2,1 L3,1 L3,3 L4,3 L4,5 L5,5 L5,6 L6,6 L6,8 L7,8 L7,9 L8,9 L8,11 L9,11 L9,12 L10,12 L10,14 L11,14 L11,15 L12,15 L12,17 L0,17 Z " fill="#F1F1F1" transform="translate(535,91)"/>
<path d="M0,0 L1,0 L1,16 L11,16 L11,14 L12,14 L12,35 L1,35 L1,52 L0,52 L0,35 L-14,35 L-14,36 L-15,36 L-15,34 L0,34 Z M1,18 L1,34 L11,34 L11,18 Z " fill="#AEAEAE" transform="translate(634,56)"/>
<path d="M0,0 L1,0 L1,17 L17,17 L17,0 L18,0 L18,17 L35,17 L35,18 L18,18 L18,34 L17,34 L17,18 L1,18 L1,34 L0,34 L0,18 L-17,18 L-17,17 L0,17 Z " fill="#ACACAC" transform="translate(705,19)"/>
<path d="M0,0 L1,0 L1,17 L17,17 L17,0 L18,0 L18,17 L35,17 L35,18 L18,18 L18,34 L17,34 L17,18 L1,18 L1,34 L0,34 L0,18 L-17,18 L-17,17 L0,17 Z " fill="#A0A09F" transform="translate(73,19)"/>
<path d="M0,0 L25,0 L25,19 L-10,19 L-10,18 L-8,18 L-8,17 L-7,17 L-7,16 L-6,16 L-6,15 L-5,15 L-5,18 L11,18 L11,1 L0,1 Z M13,1 L13,18 L24,18 L24,1 Z " fill="#A5A5A6" transform="translate(498,90)"/>
<path d="M0,0 L1,0 L1,17 L18,17 L18,0 L19,0 L19,17 L33,17 L33,18 L19,18 L19,34 L18,34 L18,18 L1,18 L1,35 L0,35 L0,18 L-10,18 L-10,17 L0,17 Z " fill="#A5A5A5" transform="translate(385,127)"/>
<path d="M0,0 L3,0 L3,1 L4,1 L4,2 L5,2 L5,3 L6,3 L6,8 L5,8 L5,9 L1,9 L1,16 L5,16 L5,17 L1,17 L1,32 L-1,32 L-1,17 L-7,17 L-7,16 L-1,16 L-1,9 L-3,9 L-3,8 L0,8 Z " fill="#A6A6A6" transform="translate(1024,94)"/>
<path d="M0,0 L7,0 L7,1 L9,1 L9,2 L10,2 L10,3 L11,3 L11,4 L12,4 L12,5 L9,5 L9,4 L8,4 L8,3 L7,3 L7,2 L1,2 L1,3 L-1,3 L-1,4 L-2,4 L-2,5 L-3,5 L-3,13 L-2,13 L-2,14 L-1,14 L-1,15 L0,15 L0,16 L7,16 L7,15 L9,15 L9,13 L12,13 L12,15 L11,15 L11,16 L10,16 L10,17 L8,17 L8,18 L6,18 L6,19 L1,19 L1,18 L-1,18 L-1,17 L-2,17 L-2,16 L-3,16 L-3,15 L-4,15 L-4,14 L-5,14 L-5,12 L-6,12 L-6,6 L-5,6 L-5,4 L-4,4 L-4,3 L-3,3 L-3,2 L-2,2 L-2,1 L0,1 Z " fill="#282828" transform="translate(820,207)"/>
<path d="M0,0 L4,0 L4,1 L6,1 L6,2 L7,2 L7,3 L8,3 L8,5 L17,5 L17,12 L16,12 L16,11 L14,11 L14,10 L13,10 L13,9 L10,9 L10,8 L3,8 L3,7 L0,7 L0,6 L-1,6 L-1,5 L-2,5 L-2,2 L-1,2 L-1,1 L0,1 Z " fill="#D1D2D3" transform="translate(600,76)"/>
<path d="M0,0 L1,0 L1,17 L17,17 L17,19 L1,19 L1,35 L10,35 L10,36 L8,36 L8,38 L7,38 L7,37 L1,37 L1,53 L0,53 L0,19 L-1,19 L-1,17 L0,17 Z " fill="#BCBCBB" transform="translate(581,37)"/>
<path d="M0,0 L1,0 L1,17 L18,17 L18,0 L19,0 L19,17 L36,17 L36,18 L19,18 L19,34 L18,34 L18,18 L1,18 L1,35 L0,35 Z " fill="#ACACAC" transform="translate(881,127)"/>
<path d="M0,0 L2,0 L2,17 L19,17 L19,18 L2,18 L2,35 L0,35 L0,18 L-16,18 L-16,17 L0,17 Z " fill="#B8B8B8" transform="translate(1041,127)"/>
<path d="M0,0 L10,0 L10,10 L9,10 L9,11 L3,11 L3,10 L2,10 L2,9 L1,9 L1,8 L0,8 Z " fill="#F4F4F4" transform="translate(659,91)"/>
<path d="M0,0 L11,0 L11,2 L3,2 L3,8 L11,8 L11,10 L3,10 L3,16 L11,16 L11,18 L0,18 Z " fill="#262626" transform="translate(929,207)"/>
<path d="M0,0 L11,0 L11,2 L3,2 L3,8 L11,8 L11,10 L3,10 L3,16 L11,16 L11,18 L0,18 Z " fill="#262626" transform="translate(249,207)"/>
<path d="M0,0 L17,0 L17,1 L1,1 L1,18 L17,18 L17,19 L1,19 L1,36 L0,36 L0,19 L-17,19 L-17,35 L-18,35 L-18,18 L0,18 Z " fill="#BABABA" transform="translate(864,126)"/>
<path d="M0,0 L1,0 L1,16 L18,16 L18,0 L19,0 L19,16 L36,16 L36,17 L19,17 L19,18 L18,18 L18,17 L1,17 L1,34 L0,34 Z M36,0 L37,0 L37,16 L36,16 Z " fill="#999999" transform="translate(90,110)"/>
<path d="M0,0 L1,0 L1,17 L18,17 L18,0 L19,0 L19,50 L18,50 L18,18 L1,18 L1,19 L0,19 L0,18 L-16,18 L-16,17 L0,17 Z " fill="#9A9A9A" transform="translate(37,19)"/>
<path d="M0,0 L4,0 L4,1 L6,1 L6,2 L9,2 L9,3 L12,3 L12,4 L13,4 L13,5 L14,5 L14,6 L15,6 L15,10 L14,10 L14,11 L13,11 L13,12 L6,12 L6,11 L5,11 L5,10 L4,10 L4,8 L3,8 L3,6 L4,6 L4,2 L3,2 L3,1 L0,1 Z " fill="#D3D3D3" transform="translate(594,91)"/>
<path d="M0,0 L1,0 L1,16 L5,16 L5,17 L4,17 L4,18 L3,18 L3,19 L2,19 L2,30 L3,30 L3,31 L4,31 L4,32 L5,32 L5,34 L-1,34 L-1,17 L-17,17 L-17,16 L0,16 Z " fill="#C3C2C2" transform="translate(1006,56)"/>
<path d="M0,0 L1,0 L1,1 L2,1 L2,2 L3,2 L3,3 L1,3 L1,20 L18,20 L18,21 L-17,21 L-17,20 L0,20 L0,3 L-16,3 L-16,2 L0,2 Z M8,4 L19,4 L19,20 L18,20 L18,5 L8,5 Z " fill="#898989" transform="translate(37,106)"/>
<path d="M0,0 L3,0 L3,1 L4,1 L4,3 L5,3 L5,4 L4,4 L4,17 L13,17 L13,16 L14,16 L14,18 L4,18 L4,35 L3,35 L3,18 L0,18 Z " fill="#C1C1C0" transform="translate(896,91)"/>
<path d="M0,0 L7,0 L7,1 L9,1 L9,2 L10,2 L10,3 L11,3 L11,5 L9,5 L9,4 L8,4 L8,3 L6,3 L6,2 L1,2 L1,3 L-1,3 L-1,4 L-2,4 L-2,5 L-3,5 L-3,6 L-4,6 L-4,12 L-3,12 L-3,13 L-2,13 L-2,15 L-1,15 L-1,16 L7,16 L7,15 L8,15 L8,14 L9,14 L9,13 L11,13 L11,16 L10,16 L10,17 L8,17 L8,18 L6,18 L6,19 L1,19 L1,18 L-1,18 L-1,17 L-3,17 L-3,16 L-4,16 L-4,15 L-5,15 L-5,12 L-6,12 L-6,5 L-5,5 L-5,4 L-4,4 L-4,3 L-3,3 L-3,2 L-2,2 L-2,1 L0,1 Z " fill="#222222" transform="translate(496,207)"/>
<path d="M0,0 L11,0 L11,2 L2,2 L2,8 L10,8 L10,10 L2,10 L2,16 L11,16 L11,19 L0,19 Z " fill="#1C1C1C" transform="translate(305,207)"/>
<path d="M0,0 L2,0 L2,17 L17,17 L17,18 L2,18 L2,35 L0,35 L0,18 L-14,18 L-14,17 L0,17 Z " fill="#BEBEBE" transform="translate(456,127)"/>
<path d="M0,0 L1,0 L1,16 L18,16 L18,18 L1,18 L1,33 L0,33 L0,18 L-16,18 L-16,16 L0,16 Z " fill="#B0B0B0" transform="translate(143,38)"/>
<path d="M0,0 L6,0 L6,1 L8,1 L8,2 L9,2 L9,5 L7,5 L7,3 L5,3 L5,2 L1,2 L1,3 L0,3 L0,7 L2,7 L2,8 L5,8 L5,9 L7,9 L7,10 L9,10 L9,11 L10,11 L10,16 L9,16 L9,17 L8,17 L8,18 L5,18 L5,19 L1,19 L1,18 L-1,18 L-1,17 L-2,17 L-2,16 L-3,16 L-3,13 L-1,13 L-1,14 L0,14 L0,16 L7,16 L7,15 L8,15 L8,12 L6,12 L6,11 L4,11 L4,10 L2,10 L2,9 L0,9 L0,8 L-2,8 L-2,2 L-1,2 L-1,1 L0,1 Z " fill="#262626" transform="translate(395,207)"/>
<path d="M0,0 L8,0 L8,1 L10,1 L10,2 L13,2 L13,3 L17,3 L17,11 L13,11 L13,10 L12,10 L12,9 L11,9 L11,5 L0,5 Z " fill="#F6F6F6" transform="translate(1007,91)"/>
<path d="M0,0 L1,0 L1,2 L11,2 L11,1 L12,1 L12,20 L26,20 L26,23 L25,23 L25,21 L12,21 L12,38 L11,38 L11,21 L-5,21 L-5,20 L11,20 L11,4 L1,4 L1,9 L0,9 Z " fill="#A4A4A4" transform="translate(800,70)"/>
<path d="M0,0 L5,0 L5,1 L7,1 L7,2 L8,2 L8,3 L9,3 L9,5 L6,5 L6,3 L5,3 L5,2 L1,2 L1,3 L-1,3 L-1,6 L0,6 L0,7 L1,7 L1,8 L4,8 L4,9 L7,9 L7,10 L8,10 L8,11 L9,11 L9,16 L8,16 L8,17 L7,17 L7,18 L5,18 L5,19 L0,19 L0,18 L-1,18 L-1,17 L-2,17 L-2,16 L-3,16 L-3,15 L-4,15 L-4,14 L-3,14 L-3,13 L-2,13 L-2,14 L-1,14 L-1,15 L0,15 L0,16 L6,16 L6,15 L7,15 L7,12 L6,12 L6,11 L3,11 L3,10 L1,10 L1,9 L-1,9 L-1,8 L-2,8 L-2,7 L-3,7 L-3,2 L-2,2 L-2,1 L0,1 Z " fill="#242424" transform="translate(958,207)"/>
<path d="M0,0 L5,0 L5,1 L7,1 L7,2 L8,2 L8,3 L9,3 L9,5 L6,5 L6,3 L5,3 L5,2 L1,2 L1,3 L-1,3 L-1,6 L0,6 L0,7 L1,7 L1,8 L4,8 L4,9 L7,9 L7,10 L8,10 L8,11 L9,11 L9,16 L8,16 L8,17 L7,17 L7,18 L5,18 L5,19 L0,19 L0,18 L-1,18 L-1,17 L-2,17 L-2,16 L-3,16 L-3,15 L-4,15 L-4,14 L-3,14 L-3,13 L-2,13 L-2,14 L-1,14 L-1,15 L0,15 L0,16 L6,16 L6,15 L7,15 L7,12 L6,12 L6,11 L3,11 L3,10 L1,10 L1,9 L-1,9 L-1,8 L-2,8 L-2,7 L-3,7 L-3,2 L-2,2 L-2,1 L0,1 Z " fill="#252525" transform="translate(708,207)"/>
<path d="M0,0 L10,0 L10,2 L2,2 L2,8 L10,8 L10,10 L2,10 L2,16 L11,16 L11,19 L0,19 Z " fill="#1C1C1C" transform="translate(630,207)"/>
<path d="M0,0 L8,0 L8,17 L5,17 L5,14 L4,14 L4,11 L3,11 L3,9 L2,9 L2,6 L1,6 L1,4 L0,4 Z " fill="#F9F9F9" transform="translate(856,91)"/>
<path d="M0,0 L6,0 L6,3 L5,3 L5,11 L6,11 L6,12 L7,12 L7,14 L8,14 L8,15 L9,15 L9,16 L0,16 Z " fill="#F5F5F5" transform="translate(582,74)"/>
<path d="M0,0 L14,0 L14,1 L15,1 L15,6 L5,6 L5,7 L4,7 L4,6 L-1,6 L-1,3 L0,3 Z " fill="#CACACA" transform="translate(104,103)"/>
<path d="M0,0 L1,0 L1,11 L0,11 L0,8 L-9,8 L-9,18 L-5,18 L-5,19 L-10,19 L-10,18 L-12,18 L-12,17 L-13,17 L-13,16 L-14,16 L-14,14 L-15,14 L-15,12 L-16,12 L-16,3 L-15,3 L-15,7 L0,7 Z " fill="#BFBFBF" transform="translate(485,83)"/>
<path d="M0,0 L1,0 L1,17 L17,17 L17,0 L18,0 L18,17 L21,17 L21,18 L18,18 L18,35 L17,35 L17,18 L1,18 L1,35 L0,35 L0,18 L-3,18 L-3,17 L0,17 Z " fill="#ACACAC" transform="translate(421,127)"/>
<path d="M0,0 L2,0 L2,15 L3,15 L3,16 L9,16 L9,15 L11,15 L11,0 L13,0 L13,15 L12,15 L12,17 L11,17 L11,18 L9,18 L9,19 L4,19 L4,18 L2,18 L2,17 L1,17 L1,16 L0,16 Z " fill="#222222" transform="translate(364,207)"/>
<path d="M0,0 L1,0 L1,16 L9,16 L9,17 L7,17 L7,19 L6,19 L6,20 L5,20 L5,21 L4,21 L4,23 L3,23 L3,25 L2,25 L2,27 L1,27 L1,34 L0,34 L0,17 L-16,17 L-16,16 L0,16 Z " fill="#C7C7C5" transform="translate(456,56)"/>
<path d="M0,0 L2,0 L2,14 L3,14 L3,15 L4,15 L4,16 L10,16 L10,15 L11,15 L11,14 L12,14 L12,0 L14,0 L14,15 L13,15 L13,16 L12,16 L12,17 L11,17 L11,18 L9,18 L9,19 L5,19 L5,18 L3,18 L3,17 L2,17 L2,16 L1,16 L1,15 L0,15 Z " fill="#202020" transform="translate(872,207)"/>
<path d="M0,0 L2,0 L2,15 L3,15 L3,16 L10,16 L10,15 L11,15 L11,0 L13,0 L13,16 L12,16 L12,17 L11,17 L11,18 L9,18 L9,19 L4,19 L4,18 L2,18 L2,17 L1,17 L1,15 L0,15 Z " fill="#1F1F1F" transform="translate(786,207)"/>
<path d="M0,0 L9,0 L9,15 L7,15 L7,13 L6,13 L6,11 L5,11 L5,10 L4,10 L4,8 L3,8 L3,7 L2,7 L2,6 L1,6 L1,4 L0,4 Z " fill="#F4F4F4" transform="translate(901,74)"/>
<path d="M0,0 L1,0 L1,16 L2,16 L2,17 L18,17 L18,18 L2,18 L2,34 L0,34 L0,18 L-8,18 L-8,19 L-9,19 L-9,17 L-11,17 L-11,16 L0,16 Z " fill="#BFBFBF" transform="translate(438,56)"/>
<path d="M0,0 L5,0 L5,17 L-4,17 L-4,16 L-3,16 L-3,15 L-2,15 L-2,14 L-1,14 L-1,11 L1,11 L1,1 L0,1 Z " fill="#F4F4F4" transform="translate(68,91)"/>
<path d="M0,0 L1,0 L1,17 L2,17 L2,19 L1,19 L1,35 L11,35 L11,33 L12,33 L12,53 L10,53 L10,52 L11,52 L11,37 L2,37 L2,40 L1,40 L1,38 L0,38 L0,36 L-1,36 L-1,35 L-2,35 L-2,34 L0,34 Z " fill="#B8B8B8" transform="translate(899,37)"/>
<path d="M0,0 L1,0 L1,17 L17,17 L17,18 L1,18 L1,35 L0,35 L0,18 L-17,18 L-17,35 L-18,35 L-18,17 L0,17 Z " fill="#9E9E9E" transform="translate(705,127)"/>
<path d="M0,0 L1,0 L1,17 L17,17 L17,18 L1,18 L1,35 L0,35 L0,18 L-17,18 L-17,35 L-18,35 L-18,17 L0,17 Z " fill="#999999" transform="translate(73,127)"/>
<path d="M0,0 L1,0 L1,17 L18,17 L18,18 L1,18 L1,35 L0,35 L0,18 L-17,18 L-17,17 L0,17 Z M18,0 L19,0 L19,17 L18,17 Z " fill="#999999" transform="translate(37,127)"/>
<path d="M0,0 L2,0 L2,17 L17,17 L17,18 L2,18 L2,35 L0,35 L0,18 L-1,18 L-1,17 L0,17 Z " fill="#BABABA" transform="translate(1005,127)"/>
<path d="M0,0 L2,0 L2,17 L17,17 L17,18 L2,18 L2,35 L0,35 L0,18 L-1,18 L-1,17 L0,17 Z " fill="#BABABA" transform="translate(987,127)"/>
<path d="M0,0 L2,0 L2,17 L17,17 L17,18 L2,18 L2,35 L0,35 L0,18 L-1,18 L-1,17 L0,17 Z " fill="#BABABA" transform="translate(952,127)"/>
<path d="M0,0 L2,0 L2,17 L17,17 L17,18 L2,18 L2,35 L0,35 L0,18 L-1,18 L-1,17 L0,17 Z " fill="#BEBEBE" transform="translate(491,127)"/>
<path d="M0,0 L1,0 L1,17 L18,17 L18,0 L19,0 L19,34 L18,34 L18,18 L1,18 L1,35 L0,35 Z " fill="#A4A4A4" transform="translate(793,19)"/>
<path d="M0,0 L1,0 L1,17 L18,17 L18,0 L19,0 L19,34 L18,34 L18,18 L1,18 L1,35 L0,35 Z " fill="#B5B6B6" transform="translate(740,19)"/>
<path d="M0,0 L1,0 L1,17 L18,17 L18,18 L1,18 L1,35 L0,35 L0,18 L-16,18 L-16,17 L0,17 Z M18,0 L19,0 L19,17 L18,17 Z " fill="#BABABA" transform="translate(828,127)"/>
<path d="M0,0 L1,0 L1,17 L18,17 L18,18 L1,18 L1,35 L0,35 L0,18 L-16,18 L-16,17 L0,17 Z M18,0 L19,0 L19,17 L18,17 Z " fill="#999999" transform="translate(775,127)"/>
<path d="M0,0 L1,0 L1,16 L18,16 L18,17 L1,17 L1,33 L0,33 L0,17 L-17,17 L-17,34 L-18,34 L-18,16 L0,16 Z " fill="#909090" transform="translate(108,128)"/>
<path d="M0,0 L2,0 L2,17 L16,17 L16,18 L2,18 L2,35 L0,35 L0,18 L-1,18 L-1,17 L0,17 Z " fill="#BABABA" transform="translate(970,127)"/>
<path d="M0,0 L2,0 L2,17 L16,17 L16,18 L2,18 L2,35 L0,35 L0,18 L-1,18 L-1,17 L0,17 Z " fill="#BEBEBE" transform="translate(474,127)"/>
<path d="M0,0 L5,0 L5,17 L0,17 Z " fill="#F5F5F5" transform="translate(954,91)"/>
<path d="M0,0 L5,0 L5,17 L0,17 Z " fill="#FCFCFC" transform="translate(788,91)"/>
<path d="M0,0 L1,0 L1,1 L18,1 L18,3 L1,3 L1,19 L0,19 L0,3 L-16,3 L-16,1 L0,1 Z " fill="#B3B3B3" transform="translate(828,53)"/>
<path d="M0,0 L1,0 L1,17 L18,17 L18,18 L1,18 L1,51 L0,51 Z M18,0 L19,0 L19,17 L18,17 Z " fill="#8E8F8F" transform="translate(108,19)"/>
<path d="M0,0 L2,0 L2,17 L17,17 L17,18 L2,18 L2,34 L0,34 L0,18 L-1,18 L-1,17 L0,17 Z " fill="#BEBEBE" transform="translate(509,127)"/>
<path d="M0,0 L1,0 L1,20 L13,20 L13,0 L14,0 L14,28 L13,28 L13,29 L12,29 L12,30 L11,30 L11,21 L1,21 L1,27 L0,27 Z " fill="#A5A5A5" transform="translate(658,70)"/>
<path d="M0,0 L1,0 L1,16 L17,16 L17,18 L-17,18 L-17,16 L0,16 Z " fill="#BEBEBE" transform="translate(634,38)"/>
<path d="M0,0 L9,0 L9,6 L8,6 L8,8 L7,8 L7,9 L6,9 L6,10 L0,10 Z " fill="#FBFBFB" transform="translate(476,91)"/>
<path d="M0,0 L1,0 L1,1 L18,1 L18,3 L1,3 L1,17 L0,17 L0,3 L-16,3 L-16,1 L0,1 Z " fill="#AEAEAE" transform="translate(775,53)"/>
<path d="M0,0 L11,0 L11,2 L2,2 L2,8 L10,8 L10,10 L3,10 L3,19 L0,19 Z " fill="#2A2A2A" transform="translate(578,207)"/>
<path d="M0,0 L1,0 L1,1 L27,1 L27,2 L11,2 L11,19 L27,19 L27,20 L-8,20 L-8,19 L10,19 L10,2 L-1,2 L-1,1 L0,1 Z " fill="#898989" transform="translate(63,107)"/>
<path d="M0,0 L1,0 L1,17 L16,17 L16,18 L-20,18 L-20,17 L-18,17 L-18,2 L-29,2 L-29,1 L-17,1 L-17,17 L0,17 Z " fill="#909090" transform="translate(687,109)"/>
<path d="M0,0 L3,0 L3,17 L-6,17 L-6,16 L-5,16 L-5,15 L-4,15 L-4,13 L-3,13 L-3,12 L-2,12 L-2,10 L-1,10 L-1,8 L0,8 Z " fill="#F2F2F2" transform="translate(684,91)"/>
<path d="M0,0 L13,0 L13,2 L8,2 L8,19 L5,19 L5,2 L0,2 Z " fill="#323232" transform="translate(845,207)"/>
<path d="M0,0 L7,0 L7,11 L0,11 Z " fill="#E7E7E7" transform="translate(952,79)"/>
<path d="M0,0 L1,0 L1,39 L10,39 L10,18 L12,18 L12,19 L13,19 L13,21 L11,21 L11,40 L0,40 Z " fill="#1F1F1F" transform="translate(885,70)"/>
<path d="M0,0 L1,0 L1,16 L18,16 L18,18 L1,18 L1,34 L0,34 L0,18 L-3,18 L-3,16 L0,16 Z " fill="#B2B2B2" transform="translate(687,56)"/>
<path d="M0,0 L1,0 L1,17 L5,17 L5,18 L1,18 L1,35 L0,35 L0,18 L-17,18 L-17,34 L-18,34 L-18,17 L0,17 Z " fill="#989898" transform="translate(634,127)"/>
<path d="M0,0 L5,0 L5,1 L6,1 L6,2 L7,2 L7,3 L8,3 L8,4 L9,4 L9,5 L16,5 L16,6 L8,6 L8,8 L3,8 L3,7 L0,7 L0,6 L-1,6 L-1,5 L-2,5 L-2,2 L-1,2 L-1,1 L0,1 Z " fill="#C6C6C5" transform="translate(48,76)"/>
<path d="M0,0 L4,0 L4,18 L0,18 Z " fill="#EBEAEA" transform="translate(706,72)"/>
<path d="M0,0 L1,0 L1,1 L18,1 L18,2 L16,2 L16,3 L15,3 L15,4 L14,4 L14,3 L1,3 L1,19 L0,19 L0,3 L-10,3 L-10,1 L0,1 Z " fill="#BCBCBC" transform="translate(385,71)"/>
<path d="M0,0 L2,0 L2,35 L0,35 L0,18 L-1,18 L-1,17 L0,17 Z " fill="#BABABA" transform="translate(1023,127)"/>
<path d="M0,0 L1,0 L1,17 L18,17 L18,18 L-20,18 L-20,17 L-18,17 L-18,1 L-17,1 L-17,17 L0,17 Z " fill="#909090" transform="translate(793,109)"/>
<path d="M0,0 L1,0 L1,1 L2,1 L2,2 L3,2 L3,4 L4,4 L4,5 L5,5 L5,7 L6,7 L6,8 L7,8 L7,9 L8,9 L8,11 L9,11 L9,13 L0,13 Z " fill="#EAEAEA" transform="translate(900,95)"/>
<path d="M0,0 L1,0 L1,18 L0,18 L0,3 L-17,3 L-17,19 L-18,19 L-18,1 L0,1 Z " fill="#B5B6B6" transform="translate(758,53)"/>
<path d="M0,0 L1,0 L1,17 L18,17 L18,18 L1,18 L1,35 L0,35 L0,18 L-17,18 L-17,17 L0,17 Z " fill="#999999" transform="translate(740,127)"/>
<path d="M0,0 L1,0 L1,35 L0,35 L0,18 L-17,18 L-17,34 L-18,34 L-18,17 L0,17 Z " fill="#999999" transform="translate(811,127)"/>
<path d="M0,0 L1,0 L1,19 L0,19 L0,3 L-17,3 L-17,17 L-18,17 L-18,1 L0,1 Z " fill="#AFAFAF" transform="translate(864,53)"/>
<path d="M0,0 L1,0 L1,17 L18,17 L18,18 L1,18 L1,35 L0,35 Z M18,0 L19,0 L19,17 L18,17 Z " fill="#AFAFAF" transform="translate(846,19)"/>
<path d="M0,0 L2,0 L2,1 L3,1 L3,2 L4,2 L4,4 L5,4 L5,6 L6,6 L6,8 L8,8 L8,7 L9,7 L9,5 L10,5 L10,3 L11,3 L11,2 L12,2 L12,0 L15,0 L15,1 L14,1 L14,3 L13,3 L13,4 L12,4 L12,6 L11,6 L11,8 L10,8 L10,9 L9,9 L9,10 L8,10 L8,19 L6,19 L6,10 L5,10 L5,8 L4,8 L4,7 L3,7 L3,5 L2,5 L2,3 L1,3 L1,2 L0,2 Z " fill="#242424" transform="translate(443,207)"/>
<path d="M0,0 L1,0 L1,17 L18,17 L18,18 L1,18 L1,35 L0,35 L0,18 L-16,18 L-16,17 L0,17 Z " fill="#979797" transform="translate(143,127)"/>
<path d="M0,0 L4,0 L4,17 L0,17 Z " fill="#F1F1F1" transform="translate(706,91)"/>
<path d="M0,0 L1,0 L1,18 L0,18 L0,3 L-17,3 L-17,17 L-18,17 L-18,1 L0,1 Z " fill="#A4A4A4" transform="translate(811,53)"/>
<path d="M0,0 L1,0 L1,51 L0,51 L0,18 L-17,18 L-17,17 L0,17 Z " fill="#B5B6B6" transform="translate(616,19)"/>
<path d="M0,0 L2,0 L2,18 L19,18 L19,19 L-1,19 L-1,18 L1,18 L1,1 L0,1 Z M7,2 L20,2 L20,18 L19,18 L19,3 L7,3 Z " fill="#989898" transform="translate(402,108)"/>
<path d="M0,0 L1,0 L1,2 L6,2 L6,3 L22,3 L22,4 L6,4 L6,20 L4,20 L4,4 L1,4 L1,9 L0,9 Z " fill="#B6B7B7" transform="translate(983,70)"/>
<path d="M0,0 L1,0 L1,17 L18,17 L18,18 L1,18 L1,34 L0,34 L0,18 L-16,18 L-16,17 L0,17 Z " fill="#B3B3B3" transform="translate(828,19)"/>
<path d="M0,0 L1,0 L1,17 L18,17 L18,18 L1,18 L1,34 L0,34 L0,18 L-16,18 L-16,17 L0,17 Z " fill="#AEAEAE" transform="translate(775,19)"/>
<path d="M0,0 L1,0 L1,3 L2,3 L2,5 L3,5 L3,7 L4,7 L4,10 L5,10 L5,13 L-4,13 L-4,11 L-3,11 L-3,8 L-2,8 L-2,5 L-1,5 L-1,2 L0,2 Z " fill="#B9BABA" transform="translate(111,81)"/>
<path d="M0,0 L21,0 L21,1 L20,1 L20,4 L19,4 L19,7 L18,7 L18,10 L17,10 L17,12 L16,12 L16,2 L0,2 Z " fill="#C3C3C2" transform="translate(812,72)"/>
<path d="M0,0 L7,0 L7,17 L6,17 L6,16 L5,16 L5,12 L4,12 L4,10 L3,10 L3,6 L2,6 L2,4 L1,4 L1,1 L0,1 Z " fill="#E7E7E7" transform="translate(119,72)"/>
</svg>
